<svg width="60" height="63" viewBox="0 0 60 63" fill="none" xmlns="http://www.w3.org/2000/svg">
<path d="M30 1.5L55.9808 16.5V46.5L30 61.5L4.01924 46.5V16.5L30 1.5Z" fill="#F4F4FB" stroke="white"/>
<path fill-rule="evenodd" clip-rule="evenodd" d="M18.8807 33.2635C15.4948 33.2635 12.75 36.0083 12.75 39.3942C12.75 42.7801 15.4948 45.5249 18.8807 45.5249C22.2666 45.5249 25.0114 42.7801 25.0114 39.3942C25.0114 36.0083 22.2666 33.2635 18.8807 33.2635ZM10.5 39.3942C10.5 34.7657 14.2522 31.0135 18.8807 31.0135C23.5092 31.0135 27.2614 34.7657 27.2614 39.3942C27.2614 44.0227 23.5092 47.7749 18.8807 47.7749C14.2522 47.7749 10.5 44.0227 10.5 39.3942Z" fill="#1E22AA"/>
<path fill-rule="evenodd" clip-rule="evenodd" d="M41.8866 33.2635C38.5007 33.2635 35.7559 36.0083 35.7559 39.3942C35.7559 42.7801 38.5007 45.5249 41.8866 45.5249C45.2724 45.5249 48.0172 42.7801 48.0172 39.3942C48.0172 36.0083 45.2724 33.2635 41.8866 33.2635ZM33.5059 39.3942C33.5059 34.7657 37.258 31.0135 41.8866 31.0135C46.5151 31.0135 50.2672 34.7657 50.2672 39.3942C50.2672 44.0227 46.5151 47.7749 41.8866 47.7749C37.258 47.7749 33.5059 44.0227 33.5059 39.3942Z" fill="#1E22AA"/>
<path d="M37.1084 17.8039C37.1084 19.27 35.9199 20.4584 34.4539 20.4584C32.9878 20.4584 31.7994 19.27 31.7994 17.8039C31.7994 16.3379 32.9878 15.1494 34.4539 15.1494C35.9199 15.1494 37.1084 16.3379 37.1084 17.8039Z" fill="#1E22AA"/>
<path d="M28.8154 19.1752L20.2824 27.5684C19.7605 28.0817 19.8818 28.9531 20.524 29.3045L28.0178 33.4049C28.3854 33.606 28.6139 33.9916 28.6139 34.4105V40.0134C28.6139 41.0397 29.4458 41.8716 30.4721 41.8716C31.4983 41.8716 32.3302 41.0397 32.3302 40.0134V31.0387C32.3302 30.6252 32.106 30.2441 31.7445 30.0433L27.827 27.8669C27.6923 27.792 27.6713 27.6069 27.7858 27.5038L31.0335 24.5809C31.0642 24.5533 31.1122 24.559 31.1355 24.5931L33.0672 27.4164C33.2705 27.7135 33.6073 27.8911 33.9673 27.8911H40.0283C40.6636 27.8911 41.1786 27.3761 41.1786 26.7408C41.1786 26.1055 40.6636 25.5905 40.0283 25.5905H35.1704C35.165 25.5905 35.1599 25.5878 35.1568 25.5833L30.9819 19.393C30.4868 18.6588 29.4468 18.5543 28.8154 19.1752Z" fill="#1E22AA"/>
</svg>
