<svg width="191" height="74" viewBox="0 0 191 74" fill="none" xmlns="http://www.w3.org/2000/svg">
<path d="M35.0657 43.0417H31.0391V39.0151H35.0657V43.0417Z" fill="white"/>
<path d="M55.1632 26.8372H47.1719V18.8458H55.1632V26.8372Z" fill="white"/>
<path d="M25.6562 39.0098H31.0448V33.6212H25.6562V39.0098Z" fill="white"/>
<path d="M35.0703 39.0098H40.4588V33.6212H35.0703V39.0098Z" fill="white"/>
<path d="M40.4556 43.0343H35.0625V48.4272H40.4556V43.0343Z" fill="white"/>
<path d="M47.1868 48.4204H40.4531V55.1541H47.1868V48.4204Z" fill="white"/>
<path d="M25.6641 43.0469H31.053V48.4358H25.6641V43.0469Z" fill="white"/>
<path d="M18.9375 48.4154H25.6618V55.1396H18.9375V48.4154Z" fill="white"/>
<path d="M18.9375 26.8407H25.6618V33.5649H18.9375V26.8407Z" fill="white"/>
<path d="M40.4609 26.8407H47.1852V33.5649H40.4609V26.8407Z" fill="white"/>
<path d="M54.4613 33.5182C58.0318 33.5182 60.3591 35.2903 61.179 38.3583H57.926C57.4235 36.9565 56.2597 36.0573 54.4613 36.0573C52.0282 36.0573 50.4148 37.8558 50.4148 41.0296C50.4148 44.2297 52.0282 46.0281 54.4613 46.0281C56.2597 46.0281 57.3706 45.2347 57.926 43.727H61.179C60.3591 46.5835 58.0318 48.5671 54.4613 48.5671C50.2825 48.5671 47.3203 45.6049 47.3203 41.0296C47.3203 36.4804 50.2825 33.5182 54.4613 33.5182Z" fill="white"/>
<path d="M71.6754 36.1369C69.4273 36.1369 67.2584 37.8294 67.2584 40.9768C67.2584 44.124 69.4273 45.9491 71.6754 45.9491C73.9499 45.9491 76.0922 44.177 76.0922 41.0298C76.0922 37.9088 73.9499 36.1369 71.6754 36.1369ZM71.0405 33.5184C73.5002 33.5184 75.1929 34.6822 76.0922 35.8724V33.7566H79.1337V48.5211H76.0922V46.1606C75.1665 47.4036 73.4209 48.5674 70.9877 48.5674C67.2056 48.5674 64.1641 45.4729 64.1641 40.9768C64.1641 36.4807 67.2056 33.5184 71.0405 33.5184Z" fill="white"/>
<path d="M82.9609 27.9188H85.9759V48.5212H82.9609V27.9188Z" fill="white"/>
<path d="M95.6129 36.1369C93.3648 36.1369 91.1959 37.8294 91.1959 40.9768C91.1959 44.124 93.3648 45.9491 95.6129 45.9491C97.8874 45.9491 100.03 44.177 100.03 41.0298C100.03 37.9088 97.8874 36.1369 95.6129 36.1369ZM94.978 33.5184C97.4377 33.5184 99.1304 34.6822 100.03 35.8724V33.7566H103.071V48.5211H100.03V46.1606C99.104 47.4036 97.3584 48.5674 94.9252 48.5674C91.1431 48.5674 88.1016 45.4729 88.1016 40.9768C88.1016 36.4807 91.1431 33.5184 94.978 33.5184Z" fill="white"/>
<path d="M129.757 35.2509C131.209 35.2509 132.503 35.5815 133.639 36.2429C134.775 36.8899 135.652 37.7957 136.27 38.9603C136.903 40.1105 137.219 41.426 137.219 42.9069C137.219 44.3878 136.903 45.7106 136.27 46.8751C135.652 48.0253 134.775 48.9311 133.639 49.5925C132.503 50.2395 131.209 50.563 129.757 50.563C128.291 50.563 126.989 50.2395 125.854 49.5925C124.718 48.9311 123.834 48.0253 123.201 46.8751C122.568 45.7106 122.252 44.3878 122.252 42.9069C122.252 41.426 122.568 40.1105 123.201 38.9603C123.834 37.7957 124.718 36.8899 125.854 36.2429C126.989 35.5815 128.291 35.2509 129.757 35.2509ZM129.757 36.1135C128.42 36.1135 127.255 36.4011 126.263 36.9762C125.271 37.5369 124.509 38.3277 123.977 39.3485C123.445 40.3693 123.179 41.5554 123.179 42.9069C123.179 44.244 123.445 45.4302 123.977 46.4654C124.509 47.4862 125.271 48.2841 126.263 48.8592C127.255 49.4344 128.42 49.7219 129.757 49.7219C131.08 49.7219 132.23 49.4344 133.208 48.8592C134.2 48.2841 134.962 47.4862 135.494 46.4654C136.026 45.4302 136.292 44.244 136.292 42.9069C136.292 41.5554 136.026 40.3693 135.494 39.3485C134.962 38.3277 134.2 37.5369 133.208 36.9762C132.23 36.4011 131.08 36.1135 129.757 36.1135ZM129.714 37.9035C128.851 37.9035 128.061 38.1048 127.342 38.5074C126.637 38.91 126.077 39.4922 125.66 40.2543C125.243 41.0019 125.034 41.8789 125.034 42.8854C125.034 43.8918 125.243 44.776 125.66 45.538C126.077 46.2857 126.637 46.868 127.342 47.2849C128.061 47.6875 128.851 47.8888 129.714 47.8888C130.792 47.8888 131.727 47.6012 132.518 47.0261C133.308 46.4366 133.848 45.653 134.135 44.6754H132.324C131.892 45.8687 131.022 46.4654 129.714 46.4654C128.851 46.4654 128.147 46.1563 127.601 45.538C127.054 44.9198 126.781 44.0428 126.781 42.9069C126.781 41.7567 127.054 40.8725 127.601 40.2543C128.147 39.636 128.851 39.3269 129.714 39.3269C130.347 39.3269 130.893 39.4851 131.353 39.8014C131.813 40.1033 132.137 40.5418 132.324 41.1169H134.135C133.862 40.0961 133.33 39.3053 132.539 38.7446C131.748 38.1839 130.807 37.9035 129.714 37.9035ZM145.557 48.8592C147.383 47.3927 148.813 46.1922 149.848 45.2577C150.883 44.3087 151.753 43.3239 152.458 42.3031C153.177 41.2679 153.536 40.2543 153.536 39.2622C153.536 38.3277 153.306 37.5944 152.846 37.0624C152.4 36.5161 151.674 36.2429 150.668 36.2429C149.69 36.2429 148.928 36.552 148.382 37.1703C147.85 37.7741 147.562 38.5865 147.519 39.6073H145.621C145.679 37.997 146.168 36.7533 147.088 35.8763C148.008 34.9992 149.194 34.5607 150.646 34.5607C152.127 34.5607 153.299 34.9705 154.162 35.79C155.039 36.6095 155.477 37.7382 155.477 39.1759C155.477 40.3693 155.118 41.5339 154.399 42.6697C153.694 43.7911 152.889 44.7832 151.983 45.6459C151.078 46.4941 149.92 47.4862 148.511 48.622H155.93V50.2611H145.557V48.8592ZM158.414 42.4756C158.414 40.0026 158.817 38.0761 159.622 36.6958C160.427 35.3012 161.836 34.6039 163.849 34.6039C165.848 34.6039 167.249 35.3012 168.055 36.6958C168.86 38.0761 169.262 40.0026 169.262 42.4756C169.262 44.9917 168.86 46.947 168.055 48.3417C167.249 49.7363 165.848 50.4336 163.849 50.4336C161.836 50.4336 160.427 49.7363 159.622 48.3417C158.817 46.947 158.414 44.9917 158.414 42.4756ZM167.321 42.4756C167.321 41.2247 167.235 40.168 167.062 39.3053C166.904 38.4283 166.566 37.7238 166.049 37.1918C165.546 36.6599 164.812 36.3939 163.849 36.3939C162.871 36.3939 162.124 36.6599 161.606 37.1918C161.103 37.7238 160.765 38.4283 160.593 39.3053C160.434 40.168 160.355 41.2247 160.355 42.4756C160.355 43.7696 160.434 44.8551 160.593 45.7321C160.765 46.6092 161.103 47.3137 161.606 47.8456C162.124 48.3776 162.871 48.6436 163.849 48.6436C164.812 48.6436 165.546 48.3776 166.049 47.8456C166.566 47.3137 166.904 46.6092 167.062 45.7321C167.235 44.8551 167.321 43.7696 167.321 42.4756ZM171.935 48.8592C173.761 47.3927 175.191 46.1922 176.227 45.2577C177.262 44.3087 178.132 43.3239 178.836 42.3031C179.555 41.2679 179.915 40.2543 179.915 39.2622C179.915 38.3277 179.684 37.5944 179.224 37.0624C178.779 36.5161 178.053 36.2429 177.046 36.2429C176.069 36.2429 175.307 36.552 174.76 37.1703C174.228 37.7741 173.941 38.5865 173.898 39.6073H172C172.057 37.997 172.546 36.7533 173.466 35.8763C174.386 34.9992 175.572 34.5607 177.025 34.5607C178.506 34.5607 179.677 34.9705 180.54 35.79C181.417 36.6095 181.856 37.7382 181.856 39.1759C181.856 40.3693 181.496 41.5339 180.777 42.6697C180.073 43.7911 179.268 44.7832 178.362 45.6459C177.456 46.4941 176.299 47.4862 174.89 48.622H182.308V50.2611H171.935V48.8592ZM184.275 36.6311V34.8411H188.33V50.4336H186.346V36.6311H184.275Z" fill="white"/>
</svg>
