<svg width="30" height="31" viewBox="0 0 30 31" fill="none" xmlns="http://www.w3.org/2000/svg">
<path d="M13.75 23H16.25V20.5H13.75V23ZM15 3C8.1 3 2.5 8.6 2.5 15.5C2.5 22.4 8.1 28 15 28C21.9 28 27.5 22.4 27.5 15.5C27.5 8.6 21.9 3 15 3ZM15 25.5C9.4875 25.5 5 21.0125 5 15.5C5 9.9875 9.4875 5.5 15 5.5C20.5125 5.5 25 9.9875 25 15.5C25 21.0125 20.5125 25.5 15 25.5ZM15 8C12.2375 8 10 10.2375 10 13H12.5C12.5 11.625 13.625 10.5 15 10.5C16.375 10.5 17.5 11.625 17.5 13C17.5 15.5 13.75 15.1875 13.75 19.25H16.25C16.25 16.4375 20 16.125 20 13C20 10.2375 17.7625 8 15 8Z" fill="#1E22AA"/>
</svg>
