<svg width="170" height="74" viewBox="0 0 170 74" fill="none" xmlns="http://www.w3.org/2000/svg">
<path d="M33.1958 49.3877H25.1111V41.303H33.1958V49.3877Z" fill="#1E22AA"/>
<path d="M73.5444 16.8521H57.4995V0.807127H73.5444V16.8521Z" fill="#1E22AA"/>
<path d="M14.2959 41.292H25.1149V30.473H14.2959V41.292Z" fill="#1E22AA"/>
<path d="M33.1914 41.292H44.0104V30.473H33.1914V41.292Z" fill="#1E22AA"/>
<path d="M44.0157 49.3728H33.1875V60.2007H44.0157V49.3728Z" fill="#1E22AA"/>
<path d="M57.5312 60.1868H44.0115V73.7065H57.5312V60.1868Z" fill="#1E22AA"/>
<path d="M14.312 49.398H25.1317V60.2178H14.312V49.398Z" fill="#1E22AA"/>
<path d="M0.807129 60.1769H14.308V73.6777H0.807129V60.1769Z" fill="#1E22AA"/>
<path d="M0.807129 16.8595H14.308V30.3604H0.807129V16.8595Z" fill="#1E22AA"/>
<path d="M44.0264 16.8595H57.5272V30.3604H44.0264V16.8595Z" fill="#1E22AA"/>
<path d="M72.1256 30.2665C79.2944 30.2665 83.9672 33.8245 85.6133 39.9843H79.082C78.0731 37.1698 75.7364 35.3645 72.1256 35.3645C67.2404 35.3645 64.0011 38.9754 64.0011 45.3476C64.0011 51.7728 67.2404 55.3837 72.1256 55.3837C75.7364 55.3837 77.9668 53.7907 79.082 50.7636H85.6133C83.9672 56.4987 79.2944 60.4814 72.1256 60.4814C63.7356 60.4814 57.7881 54.5339 57.7881 45.3476C57.7881 36.214 63.7356 30.2665 72.1256 30.2665Z" fill="#101820"/>
<path d="M106.681 35.5242C102.167 35.5242 97.8126 38.9225 97.8126 45.2418C97.8126 51.5607 102.167 55.225 106.681 55.225C111.248 55.225 115.549 51.667 115.549 45.3481C115.549 39.0819 111.248 35.5242 106.681 35.5242ZM105.406 30.267C110.345 30.267 113.743 32.6036 115.549 34.9931V30.7451H121.656V60.389H115.549V55.6497C113.69 58.1453 110.186 60.4819 105.3 60.4819C97.7066 60.4819 91.5999 54.2689 91.5999 45.2418C91.5999 36.2145 97.7066 30.267 105.406 30.267Z" fill="#101820"/>
<path d="M129.341 19.0236H135.394V60.3887H129.341V19.0236Z" fill="#101820"/>
<path d="M154.749 35.5242C150.235 35.5242 145.881 38.9225 145.881 45.2418C145.881 51.5607 150.235 55.225 154.749 55.225C159.316 55.225 163.617 51.667 163.617 45.3481C163.617 39.0819 159.316 35.5242 154.749 35.5242ZM153.474 30.267C158.413 30.267 161.811 32.6036 163.617 34.9931V30.7451H169.723V60.389H163.617V55.6497C161.758 58.1453 158.253 60.4819 153.368 60.4819C145.774 60.4819 139.668 54.2689 139.668 45.2418C139.668 36.2145 145.774 30.267 153.474 30.267Z" fill="#101820"/>
</svg>
