<svg width="249" height="307" viewBox="0 0 249 307" fill="none" xmlns="http://www.w3.org/2000/svg">
<path d="M120.015 277.329C116.098 277.329 112.19 276.618 109.193 275.197C106.796 274.058 105.365 272.635 104.891 271.157L93.6133 245.788C95.0264 245.945 96.4574 246.086 97.9063 246.212L124.501 232.487L143.563 242.787L135.318 270.054C135.318 271.915 133.825 273.777 130.837 275.197C127.85 276.618 123.933 277.329 120.015 277.329Z" fill="#CDE7FC"/>
<path d="M78.9089 211.33L33.877 199.674L36.3365 237.538C36.3365 239.399 37.8301 241.262 40.8173 242.682C46.7917 245.523 56.4868 245.523 62.4613 242.682C64.572 241.678 65.9404 240.453 66.5575 239.164C66.8079 238.63 78.9089 211.33 78.9089 211.33Z" fill="#B7DFFF"/>
<path d="M182.416 200.554L197.978 227.864C198.452 229.343 199.883 230.767 202.28 231.906C208.255 234.746 217.95 234.746 223.924 231.906C226.911 230.485 228.405 228.624 228.405 226.761L229.612 176.759L182.416 200.554Z" fill="#B7DFFF"/>
<path d="M97.903 246.211C96.4541 246.085 95.0231 245.944 93.61 245.786C62.8434 242.365 41.2621 231.709 28.0458 226.459C27.8589 226.385 27.6755 226.31 27.4903 226.231C11.5122 219.442 3.10332 196.694 8.24152 192.218C21.0428 181.064 20.6931 169.474 21.1349 166.571C25.783 136.102 50.7514 108.99 84.7646 94.7562C84.5768 95.1848 84.4784 95.6259 84.4784 96.078C84.4784 98.9949 88.4048 101.508 94.0662 102.646C91.2042 104.161 89.5943 105.268 89.3707 105.424C88.3243 106.155 87.725 107.156 87.5908 108.196C87.4388 109.305 87.8323 110.46 88.7714 111.381C89.317 111.912 89.9878 112.297 90.7212 112.542C91.1505 112.689 91.5977 112.787 92.0627 112.834C92.2774 112.856 92.4831 112.867 92.6977 112.867C93.8693 112.867 95.041 112.541 96.0069 111.877C96.1768 111.759 112.768 100.515 139.188 100.515C139.984 100.515 140.797 100.525 141.62 100.547C141.674 100.548 141.728 100.549 141.781 100.549C144.545 100.548 146.826 98.7424 146.915 96.4551C147.004 94.1207 144.76 92.1464 141.942 92.0956C140.994 92.0705 140.064 92.0588 139.134 92.0588C130.78 92.0588 123.312 93.0315 116.864 94.4528C115.442 91.7207 110.478 89.6301 104.173 89.0925C104.235 88.837 104.307 88.5615 104.378 88.2677C111.981 86.3818 119.869 85.1137 127.963 84.5466C131.156 84.3228 134.322 84.2131 137.435 84.2131C191.339 84.2131 232.874 116.996 231.926 160.539C231.577 176.564 225.057 191.6 214.244 204.489C198.217 223.573 172.771 237.95 143.964 243.871L123.464 234.037L97.903 246.211Z" fill="#CDE7FC"/>
<path d="M41.4166 216.462C41.4166 226.089 29.1242 228.56 18.9506 223.723C11.5702 216.987 4.10938 211.488 4.10938 201.86C4.10938 192.232 12.8269 185.437 23.0004 190.274C33.174 195.109 41.4166 206.835 41.4166 216.462Z" fill="#EFF8FF"/>
<path d="M37.8744 216.645C37.8744 225.444 30.342 228.995 21.0449 224.575C11.7469 220.156 4.21094 209.439 4.21094 200.641C4.21094 191.842 11.7469 188.292 21.0449 192.711C30.342 197.131 37.8744 207.847 37.8744 216.645Z" fill="white"/>
<path d="M36.2468 216.953C36.2468 225.491 28.929 228.936 19.9074 224.646C10.8876 220.358 3.57422 209.961 3.57422 201.423C3.57422 192.885 10.8876 189.441 19.9074 193.729C28.929 198.017 36.2468 208.415 36.2468 216.953Z" fill="#CDE7FC"/>
<path d="M28.4373 215.225C26.5851 214.344 25.0843 212.21 25.0843 210.457C25.0843 210.149 25.1451 209.886 25.2319 209.645C23.6596 209.162 22.4629 209.885 22.4629 211.447C22.4629 213.201 23.9646 215.336 25.8168 216.216C27.3435 216.942 28.6171 216.576 29.0231 215.448C28.8317 215.389 28.6377 215.32 28.4373 215.225Z" fill="white"/>
<path d="M15.331 208.071C13.4787 207.19 11.9771 205.056 11.9771 203.303C11.9771 202.995 12.0387 202.732 12.1246 202.491C10.5523 202.007 9.35742 202.731 9.35742 204.294C9.35742 206.046 10.8581 208.181 12.7104 209.061C14.2371 209.788 15.5107 209.421 15.9168 208.293C15.7254 208.234 15.5313 208.166 15.331 208.071Z" fill="white"/>
<path d="M105.338 124.98C105.338 124.98 124.773 127.624 130.685 162.771C131.024 164.839 130.032 166.941 127.992 168.185C124.728 170.184 120.837 171.268 120.837 171.268L105.338 124.98Z" fill="#182849"/>
<path d="M120.84 171.267C120.84 171.267 108.238 151.262 81.0488 141.926C85.3955 132.708 98.2657 117.376 109.481 127.639C120.697 137.901 120.84 171.267 120.84 171.267Z" fill="white"/>
<path d="M79.2266 141.258C83.5732 132.04 95.8477 117.725 107.063 127.988C116.094 136.251 117.946 159.492 118.325 168.234" stroke="#182849" stroke-linecap="round"/>
<path d="M73.864 184.49C72.2988 183.549 70.5101 182.837 68.623 182.293C67.6749 182.037 66.709 181.819 65.7162 181.646C64.7235 181.499 63.7217 181.393 62.7022 181.333C61.6826 181.282 60.6451 181.194 59.5986 181.179C58.5433 181.176 57.5147 181.353 56.5578 181.707C54.6617 182.438 52.9087 183.561 51.9785 185.394L52.2379 185.779C54.5633 186.109 56.2984 186.06 58.0067 185.961C58.8474 185.907 59.6434 185.75 60.4394 185.497C61.2354 185.243 62.0582 184.994 62.9078 184.864C63.7575 184.731 64.6251 184.636 65.5015 184.579C66.378 184.503 67.2635 184.467 68.1579 184.469C69.9645 184.452 71.789 184.611 73.6493 184.895L73.864 184.49Z" fill="#182849"/>
<path d="M20.3574 172.463C21.1749 172.756 21.9432 172.991 23.0146 173.236L23.4511 172.98C23.5566 170.994 22.3295 169.218 20.9969 167.891L20.3574 172.463Z" fill="#182849"/>
<path d="M214.313 93.3115C214.439 93.0472 214.555 92.7828 214.734 92.5265C214.966 92.1613 215.235 91.8269 215.521 91.5324C216.066 90.9712 216.692 90.5794 217.256 90.4557C217.408 90.4211 217.56 90.4042 217.721 90.4042C218.097 90.4042 218.481 90.5036 218.875 90.7031C219.501 91.0176 220.145 91.5662 220.699 92.2504C220.977 92.6016 221.236 92.9676 221.424 93.2902C221.513 93.4684 221.612 93.6429 221.71 93.8159C221.844 94.0648 221.987 94.3123 222.112 94.6164C222.908 96.3529 223.374 98.1799 223.481 100.056C223.615 101.895 223.418 103.77 222.891 105.639C222.524 107.004 221.969 108.356 221.236 109.673C219.876 108.86 218.615 107.864 217.524 106.739C216.049 105.224 214.94 103.552 214.224 101.74C213.839 100.853 213.634 99.9031 213.473 99.0776C213.374 98.1836 213.285 97.2366 213.428 96.2903C213.5 95.5067 213.732 94.6569 214.09 93.7688C214.161 93.6179 214.242 93.4654 214.313 93.3115ZM235.886 110.462C233.65 111.298 231.307 111.764 229.115 111.809C228.516 111.822 227.926 111.802 227.336 111.744C228.149 110.088 228.749 108.392 229.115 106.683C229.652 104.332 229.777 101.973 229.5 99.6837C229.241 97.3139 228.543 95.0119 227.407 92.8417C226.352 90.8357 224.742 88.3437 221.585 86.851C219.823 86.0181 217.587 85.8127 215.762 86.3157C214.117 86.7538 212.677 87.6507 211.478 88.9829C211.022 89.4954 210.611 90.0647 210.262 90.6649C209.994 91.1038 209.824 91.5257 209.645 91.9337L209.43 92.4433C208.965 93.7453 208.715 94.9198 208.67 95.9913C208.554 97.2204 208.706 98.4347 208.902 99.6225C209.153 100.642 209.475 101.843 210.029 102.985C211.004 105.146 212.462 107.146 214.34 108.925C215.843 110.345 217.515 111.544 219.349 112.501C218.535 113.536 217.614 114.536 216.576 115.488C213.616 118.215 209.77 120.556 205.45 122.255L204.27 122.721L207.713 128.361L208.876 127.856C214.036 125.602 218.41 122.699 221.88 119.226C223.356 117.749 224.644 116.186 225.717 114.564C226.897 114.726 228.105 114.773 229.276 114.698C231.96 114.552 234.643 113.927 237.272 112.834C240.608 111.44 244.704 107.672 246.922 105.471C247.191 105.21 246.788 104.851 246.457 105.047C243.73 106.632 238.945 109.314 235.886 110.462Z" fill="#CDE7FC"/>
<mask id="path-16-inside-1_1770_34484" fill="white">
<path fill-rule="evenodd" clip-rule="evenodd" d="M94.3294 246.361C92.8805 246.235 91.4495 246.093 90.0363 245.936C79.7203 244.789 70.4369 242.828 62.1552 240.531C61.4093 241.367 60.3189 242.149 58.8867 242.831C52.9122 245.671 43.2172 245.671 37.2427 242.831C34.2555 241.411 32.7619 239.548 32.7619 237.686L32.2511 229.822C31.7724 229.622 31.3011 229.425 30.8373 229.231L30.8368 229.231C28.5369 228.268 26.4192 227.382 24.4813 226.612C22.0826 226.781 19.3 226.206 16.3332 224.796C7.31335 220.508 0 210.11 0 201.572C0 197.773 1.4485 194.982 3.85129 193.433C4.06986 193.01 4.34155 192.652 4.66788 192.367C16.0865 182.418 17.0416 172.123 17.4282 167.954C17.475 167.45 17.5135 167.035 17.5613 166.721C22.2093 136.252 47.1778 109.14 81.191 94.9059C89.3546 91.4896 95.3115 89.7801 100.805 88.4174C108.407 86.5315 116.295 85.2634 124.389 84.6964C127.582 84.4725 130.748 84.3628 133.861 84.3628C187.765 84.3628 229.3 117.145 228.352 160.689C228.231 166.268 227.361 171.727 225.823 177.018L226.039 176.909L224.832 226.911C224.832 228.773 223.338 230.635 220.351 232.055C214.376 234.896 204.681 234.896 198.707 232.055C196.31 230.916 194.879 229.493 194.405 228.013L191.201 222.391C176.875 232.554 159.362 240.121 140.39 244.021L139.753 243.715L131.743 270.203C131.743 272.065 130.25 273.926 127.262 275.347C124.275 276.767 120.358 277.478 116.44 277.478C112.523 277.478 108.615 276.767 105.618 275.347C103.221 274.207 101.791 272.785 101.316 271.306L90.0383 245.937C91.4514 246.094 92.8824 246.236 94.3313 246.362L94.3825 246.335L94.3294 246.361Z"/>
</mask>
<path d="M90.0363 245.936L90.1472 244.942L90.1468 244.942L90.0363 245.936ZM94.3294 246.361L94.2428 247.357C94.4202 247.372 94.5985 247.34 94.7592 247.264L94.3294 246.361ZM62.1552 240.531L62.4225 239.567C62.0556 239.466 61.6627 239.581 61.4092 239.865L62.1552 240.531ZM58.8867 242.831L59.316 243.734L59.3164 243.734L58.8867 242.831ZM37.2427 242.831L36.8133 243.734L36.8134 243.734L37.2427 242.831ZM32.7619 237.686H33.7619C33.7619 237.665 33.7612 237.643 33.7598 237.622L32.7619 237.686ZM32.2511 229.822L33.249 229.757C33.2243 229.378 32.987 229.046 32.6365 228.899L32.2511 229.822ZM30.8373 229.231L31.2233 228.308C31.2171 228.306 31.2109 228.303 31.2047 228.301L30.8373 229.231ZM30.8368 229.231L30.4509 230.153C30.457 230.156 30.4632 230.158 30.4694 230.161L30.8368 229.231ZM24.4813 226.612L24.8505 225.683C24.7111 225.628 24.561 225.604 24.4113 225.615L24.4813 226.612ZM16.3332 224.796L16.7626 223.893L16.7625 223.893L16.3332 224.796ZM3.85129 193.433L4.39322 194.273C4.54002 194.178 4.65947 194.047 4.73967 193.892L3.85129 193.433ZM4.66788 192.367L5.32478 193.121L5.3248 193.121L4.66788 192.367ZM17.4282 167.954L18.424 168.047L17.4282 167.954ZM17.5613 166.721L16.5727 166.57L16.5726 166.571L17.5613 166.721ZM81.191 94.9059L80.8049 93.9835L81.191 94.9059ZM100.805 88.4174L100.564 87.4468V87.4468L100.805 88.4174ZM124.389 84.6964L124.459 85.6939L124.459 85.6939L124.389 84.6964ZM228.352 160.689L227.352 160.667V160.667L228.352 160.689ZM225.823 177.018L224.863 176.739C224.752 177.121 224.878 177.532 225.184 177.787C225.49 178.041 225.918 178.09 226.273 177.911L225.823 177.018ZM226.039 176.909L227.039 176.933C227.047 176.582 226.871 176.252 226.574 176.064C226.276 175.876 225.903 175.858 225.589 176.016L226.039 176.909ZM224.832 226.911L223.832 226.887C223.832 226.895 223.832 226.903 223.832 226.911H224.832ZM220.351 232.055L220.78 232.959L220.78 232.959L220.351 232.055ZM198.707 232.055L199.136 231.152L199.136 231.152L198.707 232.055ZM194.405 228.013L195.357 227.708C195.336 227.642 195.308 227.578 195.274 227.518L194.405 228.013ZM191.201 222.391L192.07 221.896C191.93 221.65 191.693 221.476 191.417 221.415C191.141 221.354 190.853 221.412 190.622 221.575L191.201 222.391ZM140.39 244.021L139.957 244.923C140.154 245.017 140.377 245.045 140.591 245.001L140.39 244.021ZM139.753 243.715L140.185 242.814C139.922 242.688 139.617 242.683 139.35 242.8C139.082 242.918 138.88 243.146 138.796 243.426L139.753 243.715ZM131.743 270.203L130.786 269.913C130.758 270.007 130.743 270.105 130.743 270.203H131.743ZM127.262 275.347L126.833 274.444L127.262 275.347ZM105.618 275.347L105.189 276.25L105.19 276.25L105.618 275.347ZM101.316 271.306L102.269 271.001C102.258 270.966 102.245 270.933 102.23 270.9L101.316 271.306ZM90.0383 245.937L90.1491 244.943C89.7931 244.903 89.4429 245.057 89.2313 245.346C89.0197 245.635 88.979 246.016 89.1245 246.343L90.0383 245.937ZM94.3313 246.362L94.2448 247.358C94.433 247.374 94.622 247.337 94.7898 247.25L94.3313 246.362ZM94.3825 246.335L94.841 247.224C95.3263 246.974 95.521 246.38 95.2784 245.891C95.0359 245.402 94.4457 245.198 93.9527 245.432L94.3825 246.335ZM89.9255 246.93C91.3471 247.088 92.7861 247.23 94.2428 247.357L94.4159 245.364C92.9748 245.239 91.5519 245.099 90.1472 244.942L89.9255 246.93ZM61.8879 241.495C70.2143 243.804 79.5504 245.776 89.9258 246.93L90.1468 244.942C79.8902 243.802 70.6594 241.852 62.4225 239.567L61.8879 241.495ZM59.3164 243.734C60.8327 243.012 62.0435 242.158 62.9012 241.197L61.4092 239.865C60.7752 240.575 59.8051 241.286 58.457 241.928L59.3164 243.734ZM36.8134 243.734C39.9709 245.235 44.0449 245.961 48.0647 245.961C52.0845 245.961 56.1585 245.235 59.316 243.734L58.4573 241.928C55.6404 243.267 51.8796 243.961 48.0647 243.961C44.2498 243.961 40.489 243.267 37.6721 241.928L36.8134 243.734ZM31.7619 237.686C31.7619 240.133 33.7028 242.255 36.8133 243.734L37.6722 241.928C34.8082 240.566 33.7619 238.963 33.7619 237.686H31.7619ZM31.2532 229.887L31.764 237.751L33.7598 237.622L33.249 229.757L31.2532 229.887ZM30.4513 230.153C30.9151 230.347 31.3866 230.545 31.8656 230.745L32.6365 228.899C32.1581 228.699 31.6871 228.502 31.2233 228.308L30.4513 230.153ZM30.4694 230.161L30.4699 230.161L31.2047 228.301L31.2043 228.301L30.4694 230.161ZM24.1121 227.542C26.0399 228.308 28.1487 229.19 30.4509 230.153L31.2228 228.308C28.925 227.347 26.7985 226.457 24.8505 225.683L24.1121 227.542ZM24.4113 225.615C22.2214 225.768 19.6112 225.247 16.7626 223.893L15.9037 225.699C18.9889 227.166 21.9438 227.793 24.5513 227.61L24.4113 225.615ZM16.7625 223.893C12.4304 221.833 8.47391 218.286 5.6021 214.203C2.72445 210.111 1 205.575 1 201.572H-1C-1 206.108 0.932222 211.039 3.9662 215.353C7.00601 219.675 11.2162 223.47 15.9038 225.699L16.7625 223.893ZM1 201.572C1 198.037 2.33403 195.601 4.39322 194.273L3.30935 192.592C0.562975 194.363 -1 197.508 -1 201.572H1ZM4.01098 191.613C3.57698 191.991 3.23116 192.454 2.96291 192.973L4.73967 193.892C4.90857 193.565 5.10611 193.312 5.32478 193.121L4.01098 191.613ZM16.4325 167.862C16.0552 171.93 15.1437 181.913 4.01096 191.613L5.3248 193.121C17.0292 182.923 18.0279 172.316 18.424 168.047L16.4325 167.862ZM16.5726 166.571C16.5195 166.92 16.4782 167.369 16.4325 167.862L18.424 168.047C18.4719 167.53 18.5076 167.149 18.5499 166.872L16.5726 166.571ZM80.8049 93.9835C46.5709 108.31 21.288 135.66 16.5727 166.57L18.5498 166.872C23.1307 136.843 47.7847 109.97 81.577 95.8284L80.8049 93.9835ZM100.564 87.4468C95.0343 88.8186 89.0267 90.5428 80.8049 93.9835L81.577 95.8284C89.6825 92.4364 95.5888 90.7417 101.045 89.388L100.564 87.4468ZM124.32 83.6988C116.167 84.2699 108.221 85.5472 100.564 87.4468L101.045 89.388C108.592 87.5158 116.424 86.2568 124.459 85.6939L124.32 83.6988ZM133.861 83.3628C130.725 83.3628 127.536 83.4733 124.32 83.6988L124.459 85.6939C127.629 85.4717 130.772 85.3628 133.861 85.3628V83.3628ZM229.352 160.711C230.317 116.391 188.084 83.3628 133.861 83.3628V85.3628C187.446 85.3628 228.283 117.9 227.352 160.667L229.352 160.711ZM226.783 177.297C228.345 171.926 229.228 166.38 229.352 160.711L227.352 160.667C227.233 166.156 226.378 171.529 224.863 176.739L226.783 177.297ZM225.589 176.016L225.373 176.125L226.273 177.911L226.489 177.802L225.589 176.016ZM225.831 226.935L227.039 176.933L225.039 176.885L223.832 226.887L225.831 226.935ZM220.78 232.959C223.89 231.479 225.832 229.358 225.832 226.911H223.832C223.832 228.189 222.785 229.79 219.921 231.152L220.78 232.959ZM198.277 232.959C201.435 234.46 205.509 235.186 209.529 235.186C213.549 235.186 217.622 234.46 220.78 232.959L219.921 231.152C217.104 232.492 213.344 233.186 209.529 233.186C205.714 233.186 201.953 232.492 199.136 231.152L198.277 232.959ZM193.452 228.318C194.047 230.173 195.762 231.763 198.277 232.959L199.136 231.152C196.857 230.069 195.711 228.812 195.357 227.708L193.452 228.318ZM190.332 222.886L193.536 228.508L195.274 227.518L192.07 221.896L190.332 222.886ZM140.591 245.001C159.691 241.075 177.334 233.455 191.78 223.207L190.622 221.575C176.416 231.654 159.033 239.168 140.189 243.042L140.591 245.001ZM139.32 244.617L139.957 244.923L140.822 243.119L140.185 242.814L139.32 244.617ZM132.7 270.492L140.71 244.005L138.796 243.426L130.786 269.913L132.7 270.492ZM127.692 276.25C130.802 274.771 132.743 272.649 132.743 270.203H130.743C130.743 271.48 129.697 273.082 126.833 274.444L127.692 276.25ZM116.44 278.478C120.46 278.478 124.534 277.751 127.692 276.25L126.833 274.444C124.016 275.783 120.255 276.478 116.44 276.478V278.478ZM105.19 276.25C108.355 277.751 112.42 278.478 116.44 278.478V276.478C112.626 276.478 108.874 275.783 106.047 274.443L105.19 276.25ZM100.364 271.611C100.959 273.465 102.674 275.055 105.189 276.25L106.048 274.444C103.769 273.36 102.622 272.104 102.269 271.001L100.364 271.611ZM89.1245 246.343L100.403 271.712L102.23 270.9L90.9521 245.531L89.1245 246.343ZM94.4179 245.365C92.9768 245.24 91.5538 245.1 90.1491 244.943L89.9275 246.931C91.349 247.089 92.7881 247.231 94.2448 247.358L94.4179 245.365ZM93.924 245.447L93.8728 245.473L94.7898 247.25L94.841 247.224L93.924 245.447ZM94.7592 247.264L94.8124 247.238L93.9527 245.432L93.8995 245.458L94.7592 247.264Z" fill="#182849" mask="url(#path-16-inside-1_1770_34484)"/>
<path d="M92.0644 112.834C90.8301 112.708 89.6406 112.214 88.7731 111.368C86.9485 109.588 87.2169 106.932 89.3723 105.424C90.1951 104.846 109.997 91.2634 141.944 92.0956C144.761 92.1464 147.006 94.1207 146.917 96.4551C146.827 98.788 144.457 100.619 141.622 100.547C113.789 99.8212 96.1785 111.756 96.0085 111.877C94.8637 112.663 93.4328 112.974 92.0644 112.834Z" fill="#031655"/>
<path d="M92.9248 107.592C93.7476 107.014 113.549 93.4314 145.505 94.2635C145.774 94.2687 146.033 94.3069 146.292 94.346C145.443 93.0521 143.833 92.1427 141.946 92.1081C109.998 91.2759 90.1969 104.858 89.3651 105.436C87.2097 106.944 86.9504 109.601 88.7749 111.381C89.5619 112.147 90.6083 112.609 91.7173 112.786C90.6173 111.071 91.0555 108.901 92.9248 107.592Z" fill="#A2C1DA"/>
<path d="M29.1707 214.644C29.1707 216.397 27.6691 217.104 25.8168 216.224C23.9654 215.343 22.4629 213.209 22.4629 211.456C22.4629 209.703 23.9654 208.996 25.8168 209.876C27.6691 210.756 29.1707 212.891 29.1707 214.644Z" fill="#2C4961"/>
<path d="M16.0644 207.491C16.0644 209.244 14.5627 209.951 12.7105 209.071C10.8582 208.191 9.35742 206.055 9.35742 204.303C9.35742 202.55 10.8582 201.843 12.7105 202.724C14.5627 203.604 16.0644 205.739 16.0644 207.491Z" fill="#2C4961"/>
<path d="M125.779 24.6352C125.779 24.6352 132.103 23.5365 132.639 23.4474C132.925 23.3988 134.965 21.8178 135.743 21.3391C137.111 20.4959 137.809 21.7095 137.809 21.7095C137.809 21.7095 138.283 21.8 138.345 22.1933L138.542 22.3781C138.694 22.4827 138.685 22.6219 138.703 22.7927L138.828 22.9326C138.945 23.0814 138.918 23.2081 138.927 23.2552C138.98 23.6028 138.712 23.9857 138.023 24.5947C137.031 25.4814 135.734 25.5344 134.732 25.8709C132.961 26.4667 125.86 27.8872 125.86 27.8872L125.779 24.6352Z" fill="white"/>
<path d="M109.505 13.3629C111.026 12.5462 114.514 16.5508 116.043 17.9316C117.608 19.3484 120.962 21.1438 122.232 22.2602C123.735 23.5776 127.652 23.9429 128.171 24.1638C128.895 24.4768 128.94 27.6198 128.377 27.9048C126.185 29.0145 120.399 27.5579 118.306 26.1234C117.671 25.6941 113.762 23.7551 111.714 21.5017C108.754 18.2446 107.708 14.3298 109.505 13.3629Z" fill="#A1B7CE"/>
<path d="M109.56 15.9557C112.986 11.1101 116.313 9.72055 116.071 6.03409C115.893 3.32632 115.07 1.80787 111.331 0.511789C110.124 0.0927734 107.781 -0.615669 104.802 1.06481C102.978 2.09652 101.824 3.80794 101.779 5.72849C101.744 7.64904 103.201 9.36782 100.125 11.0196C90.8321 16.0087 107.664 18.6311 109.56 15.9557Z" fill="#101820"/>
<path d="M97.7496 94.8217C97.7675 94.2355 97.4992 93.3466 97.2041 93.0314C96.9 92.6942 96.2381 92.8039 95.7999 92.8989C95.5584 92.9505 95.2185 93.0756 95.1112 93.3061C94.8965 93.7811 95.0307 94.6641 95.3795 95.2414C95.9787 96.2017 97.7228 95.7046 97.7496 94.8217Z" fill="#031655"/>
<path d="M102.989 91.9664C103.732 91.993 104.939 91.3854 104.715 90.7779C104.393 89.8972 103.562 89.1512 102.14 89.5216C101.827 89.6026 101.433 89.8257 101.344 90.1549C101.299 90.3346 101.2 90.5349 101.236 90.8088C101.352 91.6314 102.372 91.9444 102.989 91.9664Z" fill="#031655"/>
<path d="M111.011 37.6737C110.189 32.2125 92.0952 38.5191 91.5586 46.7964C91.0756 54.3895 94.358 71.9528 93.3295 76.6768C92.2294 81.7448 94.9751 92.0111 95.0824 93.8322C95.1361 94.6901 96.4866 94.8882 97.3363 94.383C97.9444 94.0251 98.4006 79.5518 100.493 72.1133C100.726 71.2937 100.851 61.7322 100.851 61.7322L102.184 67.1359C102.184 67.1359 101.933 70.3202 101.638 71.9366C100.815 76.4751 100.744 89.5757 101.808 90.6951C102.461 91.3763 103.829 91.0751 103.955 90.2223C104.438 86.8142 107.631 75.053 109.124 67.6845C110.725 59.7475 111.763 42.6703 111.011 37.6737Z" fill="white"/>
<path d="M94.6027 91.0474C94.4954 90.4656 94.3702 89.822 94.2539 89.1357C94.7548 89.3139 95.3272 89.4177 95.989 89.4177C96.785 89.4177 97.4647 89.2667 98.0282 89.0127C98.0014 89.3477 97.9745 89.6733 97.9388 89.9862C96.8119 90.3257 95.6939 90.6836 94.6027 91.0474Z" fill="white"/>
<path d="M104.17 89.0928C103.347 89.0221 102.498 88.9786 101.63 88.9632C101.505 88.9948 101.38 89.0265 101.255 89.0589C101.165 88.1892 101.102 87.0544 101.049 85.7672C101.058 85.7738 101.076 85.7804 101.085 85.787C101.702 86.125 102.48 86.332 103.41 86.332C103.92 86.332 104.376 86.2694 104.787 86.1604C104.841 86.1479 104.886 86.1346 104.93 86.1214C104.734 86.9123 104.537 87.6332 104.376 88.268C104.304 88.5618 104.233 88.8372 104.17 89.0928Z" fill="white"/>
<path d="M107.52 27.7998C107.52 27.7998 110.543 33.2904 111.491 37.6109C112.082 40.329 111.366 45.3425 111.116 52.0106C110.901 57.4976 111.178 62.8012 110.838 63.7821C108.978 69.0592 92.2264 70.5114 92.0476 66.5827C91.9313 63.9574 91.9491 61.9668 91.2604 57.6912C90.5539 53.2684 89.0782 45.1981 89.0782 43.5861C89.0514 35.2971 94.8201 28.4434 94.8201 28.4434L107.52 27.7998Z" fill="#182849"/>
<path d="M108.453 29.6625C108.802 29.1809 109.141 25.8169 109.553 24.6335C109.821 23.8434 111.154 22.252 111.44 20.9699C111.726 19.6488 111.833 17.24 111.726 15.1354C111.664 13.8658 110.984 13.1264 109.633 12.7936C108.98 12.6308 106.288 11.4975 102.961 12.1816C101.548 12.4732 99.1065 12.6109 97.747 13.488C95.7526 14.7723 96.2266 23.5444 95.0192 26.6314C94.7777 27.2456 94.3484 27.7611 94.2142 28.2662C94.1069 28.672 95.216 29.482 96.486 29.893C103.301 32.0992 107.764 30.6146 108.453 29.6625Z" fill="#96BDE4"/>
<path d="M108.367 30.4503L108.164 30.3037L108.164 30.3038L108.367 30.4503ZM108.926 28.0071L108.68 27.9649L108.926 28.0071ZM96.4 30.6808L96.477 30.443L96.477 30.443L96.4 30.6808ZM94.1283 29.0541L93.8867 28.9899L93.8866 28.9902L94.1283 29.0541ZM94.5294 28.2099L94.3128 28.0852L94.3128 28.0852L94.5294 28.2099ZM94.9332 27.4193L95.1659 27.5108L95.1661 27.5103L94.9332 27.4193ZM95.8585 21.6417L96.1073 21.6653L95.8585 21.6417ZM97.6611 14.2759L97.7964 14.4861L97.7966 14.4859L97.6611 14.2759ZM101.629 13.1774L101.666 13.4246L101.629 13.1774ZM102.875 12.9695L102.825 12.7246L102.825 12.7247L102.875 12.9695ZM109.165 13.466L109.089 13.7043V13.7043L109.165 13.466ZM109.547 13.5815L109.487 13.824L109.488 13.8242L109.547 13.5815ZM111.138 14.4724L110.945 14.6308C110.964 14.6541 110.987 14.6737 111.013 14.6888L111.138 14.4724ZM114.883 17.6823L115.059 17.5046H115.059L114.883 17.6823ZM115.957 18.7195L116.125 18.5341L116.125 18.5339L115.957 18.7195ZM119.441 21.1752L119.306 21.3857L119.441 21.1752ZM122.146 23.0481L121.981 23.2359L121.981 23.2361L122.146 23.0481ZM127.108 24.7386L127.062 24.9844L127.108 24.7386ZM128.085 24.9517L128.184 24.7222L128.183 24.7217L128.085 24.9517ZM128.291 28.6927L128.178 28.4696L128.178 28.4696L128.291 28.6927ZM118.22 26.9113L118.361 26.7051L118.36 26.7042L118.22 26.9113ZM117.48 26.4779L117.603 26.2604L117.48 26.4779ZM111.628 22.2896L111.813 22.1214L111.628 22.2896ZM111.31 21.9287L111.5 21.7663C111.441 21.6963 111.347 21.6648 111.257 21.6844C111.167 21.7039 111.095 21.7713 111.07 21.8599L111.31 21.9287ZM110.16 24.1669L110.372 24.2993L110.16 24.1669ZM109.467 25.4214L109.703 25.5035L109.704 25.5018L109.467 25.4214ZM108.569 30.597C108.643 30.4957 108.698 30.3446 108.745 30.1905C108.794 30.0274 108.842 29.8274 108.889 29.6053C108.982 29.1608 109.077 28.6085 109.173 28.0493L108.68 27.9649C108.584 28.5273 108.491 29.0689 108.399 29.5018C108.354 29.7184 108.309 29.9029 108.266 30.0466C108.22 30.1993 108.184 30.2772 108.164 30.3037L108.569 30.597ZM96.323 30.9187C99.7613 32.0317 102.616 32.2169 104.707 31.9986C105.752 31.8896 106.609 31.6794 107.254 31.4317C107.887 31.1888 108.353 30.8959 108.569 30.5968L108.164 30.3038C108.036 30.4808 107.686 30.7306 107.075 30.9649C106.477 31.1944 105.664 31.396 104.655 31.5014C102.638 31.7118 99.8539 31.5362 96.477 30.443L96.323 30.9187ZM93.8866 28.9902C93.8279 29.2122 93.9442 29.4241 94.0622 29.5754C94.191 29.7405 94.3798 29.9086 94.6015 30.0683C95.0469 30.3893 95.6653 30.7059 96.3231 30.9187L96.477 30.443C95.8647 30.2449 95.2937 29.9509 94.8938 29.6627C94.6929 29.5179 94.5452 29.3817 94.4565 29.2679C94.3571 29.1404 94.375 29.0989 94.37 29.118L93.8866 28.9902ZM94.3128 28.0852C94.1482 28.371 93.9695 28.678 93.8867 28.9899L94.3699 29.1183C94.4324 28.8829 94.5723 28.6364 94.7461 28.3347L94.3128 28.0852ZM94.7006 27.3278C94.5978 27.5892 94.4572 27.8342 94.3128 28.0852L94.7461 28.3347C94.8877 28.0886 95.0474 27.8122 95.1659 27.5108L94.7006 27.3278ZM95.6096 21.618C95.5012 22.7577 95.3946 23.8786 95.2534 24.8729C95.1117 25.8707 94.9376 26.7218 94.7004 27.3282L95.1661 27.5103C95.4255 26.847 95.6058 25.9477 95.7484 24.9432C95.8916 23.9352 95.9992 22.8022 96.1073 21.6653L95.6096 21.618ZM97.5257 14.0657C97.1697 14.2949 96.9047 14.7011 96.6975 15.1899C96.4881 15.6839 96.3245 16.2943 96.1904 16.9718C95.9223 18.3263 95.7641 19.9926 95.6096 21.618L96.1073 21.6653C96.2626 20.0322 96.4187 18.3936 96.6809 17.0689C96.812 16.4067 96.9675 15.834 97.1578 15.3851C97.3503 14.9311 97.5654 14.6348 97.7964 14.4861L97.5257 14.0657ZM101.591 12.9302C100.923 13.0309 100.173 13.1436 99.4633 13.3143C98.7555 13.4844 98.0669 13.7165 97.5256 14.0658L97.7966 14.4859C98.268 14.1818 98.8926 13.9657 99.5801 13.8004C100.265 13.6357 100.993 13.5259 101.666 13.4246L101.591 12.9302ZM102.825 12.7247C102.472 12.7974 102.053 12.8607 101.591 12.9302L101.666 13.4246C102.123 13.3557 102.558 13.2904 102.926 13.2143L102.825 12.7247ZM109.24 13.2277C108.21 12.9006 105.76 12.121 102.825 12.7246L102.926 13.2144C105.727 12.6385 108.07 13.3807 109.089 13.7043L109.24 13.2277ZM109.608 13.3389C109.527 13.3188 109.408 13.281 109.24 13.2277L109.089 13.7043C109.249 13.7552 109.387 13.7992 109.487 13.824L109.608 13.3389ZM111.331 14.314C110.939 13.8351 110.356 13.5233 109.607 13.3387L109.488 13.8242C110.171 13.9927 110.643 14.2626 110.945 14.6308L111.331 14.314ZM111.013 14.6888C112.186 15.3683 113.591 16.7557 114.707 17.8601L115.059 17.5046C113.96 16.4174 112.504 14.9751 111.263 14.2561L111.013 14.6888ZM114.707 17.8601C115.118 18.2661 115.49 18.6343 115.79 18.905L116.125 18.5339C115.835 18.2726 115.472 17.9138 115.059 17.5046L114.707 17.8601ZM115.789 18.9048C116.652 19.6858 118.037 20.5721 119.306 21.3857L119.576 20.9647C118.292 20.142 116.95 19.2807 116.125 18.5341L115.789 18.9048ZM119.306 21.3857C120.406 22.0903 121.414 22.737 121.981 23.2359L122.311 22.8603C121.708 22.3301 120.66 21.6592 119.576 20.9647L119.306 21.3857ZM121.981 23.2361C122.583 23.7637 123.52 24.1337 124.452 24.4033C125.391 24.6752 126.364 24.8552 127.062 24.9844L127.153 24.4928C126.453 24.3631 125.503 24.187 124.591 23.923C123.67 23.6566 122.825 23.3108 122.311 22.8601L121.981 23.2361ZM127.062 24.9844C127.306 25.0295 127.513 25.068 127.677 25.1022C127.848 25.138 127.947 25.1645 127.987 25.1817L128.183 24.7217C128.09 24.682 127.942 24.6468 127.779 24.6128C127.609 24.5771 127.395 24.5375 127.153 24.4928L127.062 24.9844ZM127.986 25.1812C128.008 25.191 128.054 25.2245 128.11 25.3187C128.165 25.4099 128.216 25.537 128.261 25.6964C128.352 26.0144 128.406 26.4243 128.421 26.8418C128.436 27.2588 128.412 27.669 128.352 27.9858C128.322 28.1449 128.285 28.2712 128.245 28.3602C128.202 28.4574 128.171 28.4731 128.178 28.4696L128.403 28.9157C128.551 28.841 128.642 28.6961 128.701 28.5656C128.764 28.4271 128.81 28.2585 128.844 28.078C128.912 27.7156 128.937 27.267 128.921 26.8236C128.904 26.3805 128.847 25.9282 128.742 25.56C128.69 25.3762 128.624 25.2042 128.54 25.0625C128.457 24.9238 128.343 24.7907 128.184 24.7222L127.986 25.1812ZM128.178 28.4696C127.682 28.7207 126.956 28.8371 126.088 28.8342C125.225 28.8314 124.248 28.7112 123.268 28.5111C121.301 28.1094 119.368 27.3953 118.361 26.7051L118.079 27.1175C119.164 27.8618 121.171 28.5933 123.168 29.001C124.171 29.2057 125.182 29.3313 126.086 29.3342C126.984 29.3372 127.804 29.2195 128.404 28.9157L128.178 28.4696ZM118.36 26.7042C118.222 26.6106 117.949 26.4563 117.603 26.2604L117.357 26.6954C117.714 26.8979 117.963 27.039 118.08 27.1184L118.36 26.7042ZM117.603 26.2604C116.2 25.4656 113.417 23.8857 111.813 22.1214L111.443 22.4577C113.111 24.2926 115.972 25.9107 117.357 26.6954L117.603 26.2604ZM111.813 22.1214C111.706 22.0039 111.602 21.8854 111.5 21.7663L111.12 22.091C111.225 22.214 111.333 22.3363 111.443 22.4577L111.813 22.1214ZM110.372 24.2993C110.802 23.6099 111.33 22.7675 111.551 21.9975L111.07 21.8599C110.873 22.5484 110.39 23.3268 109.948 24.0346L110.372 24.2993ZM109.704 25.5018C109.799 25.2217 110.053 24.8103 110.372 24.2993L109.948 24.0346C109.645 24.5204 109.349 24.992 109.23 25.341L109.704 25.5018ZM109.173 28.0493C109.345 27.0447 109.518 26.0345 109.703 25.5035L109.231 25.3393C109.029 25.9198 108.848 26.983 108.68 27.9649L109.173 28.0493Z" fill="#182849"/>
<path d="M109.976 14.1682C110.065 13.7278 109.824 13.2823 109.367 13.0437C107.364 11.9965 104.278 11.724 102.123 12.5628C102.123 12.5628 101.103 12.8802 100.942 13.3088C100.343 14.9053 102.749 17.9135 106.988 17.2162C109.117 16.8656 109.77 15.1505 109.976 14.1682Z" fill="white"/>
<path d="M103.268 14.9685L106.863 16.0459L110.557 8.28051L107.221 6.75689C107.221 6.75689 105.369 10.2357 105.11 10.7173C103.876 13.0009 103.268 14.9685 103.268 14.9685Z" fill="white"/>
<path d="M109.269 11.6091L108.24 13.0981C108.24 13.0981 107.149 12.8338 106.541 12.241C105.45 11.1666 105.727 9.51333 105.727 9.51333L106.156 8.58251C106.603 9.93823 106.89 11.2314 109.269 11.6091Z" fill="#D2D2D2"/>
<path d="M107.902 5.18185C108.85 3.97193 115.03 5.53091 114.627 7.67165C114.458 8.56491 113.375 10.5687 112.758 11.294C111.408 12.881 109.181 13.1807 108.564 13.0717C107.508 12.8847 105.469 10.7189 106.024 8.90366C106.381 7.76444 107.902 5.18185 107.902 5.18185Z" fill="white"/>
<path d="M106.614 3.18315C107.052 2.68092 108.054 2.03288 110.012 2.0292C111.738 2.02552 113.608 2.1544 114.931 4.31944C116.04 6.12879 114.592 9.08545 114.592 9.08545L113.599 8.75924C111.89 8.20105 110.397 7.27904 109.27 6.08901L106.658 7.92636L105.531 7.2879C105.531 7.2879 104.7 5.39605 106.614 3.18315Z" fill="#101820"/>
<path d="M106.296 6.67342C107.119 7.04089 106.949 7.70438 106.931 7.87965C106.886 8.443 106.278 8.88634 105.751 8.63964C105.214 8.38558 104.999 7.85681 105.125 7.30304C105.25 6.74852 105.76 6.4282 106.296 6.67342Z" fill="white"/>
<path d="M106.139 7.35498L105.969 8.19081C105.665 8.19891 105.522 7.73794 105.567 7.45811C105.602 7.17753 105.898 7.16204 106.139 7.35498Z" fill="#D2D2D2"/>
<path d="M144.442 21.4818L145.086 20.7159L141.025 18.6208C136.929 16.539 130.919 16.7849 124.184 19.855C111.708 25.5371 101.512 38.7277 101.396 49.3172C101.342 54.1186 103.381 57.5554 106.78 59.3537L106.824 59.3773C107.182 59.568 107.567 59.744 107.96 59.8972L110.974 61.2544L111.878 60.7441C115.321 60.9974 119.39 60.1976 123.764 58.2034C136.232 52.5206 146.436 39.3293 146.553 28.7398C146.58 25.7817 145.819 23.3412 144.442 21.4818Z" fill="#031655"/>
<path d="M108.043 32.9514C107.801 33.2718 107.568 33.5951 107.336 33.9198L137.065 48.0552C137.351 47.7532 137.629 47.4484 137.897 47.1406L108.043 32.9514Z" fill="#FFD66A"/>
<path d="M148.782 31.0654C148.675 40.9303 139.168 53.2173 127.559 58.5113C115.941 63.8046 106.612 60.099 106.72 50.2348C106.827 40.3699 116.325 28.0822 127.943 22.7889C139.552 17.4956 148.89 21.2012 148.782 31.0654Z" fill="#CDE7FC"/>
<path d="M127.926 24.1281C117.203 29.0164 108.393 40.4042 108.304 49.5135C108.205 58.6229 116.845 62.0575 127.569 57.1692C138.301 52.2817 147.102 40.8931 147.2 31.7845C147.299 22.6752 138.65 19.2406 127.926 24.1281ZM127.551 59.5648C115.262 65.1622 105.361 61.2298 105.478 50.7993C105.594 40.3689 115.673 27.3293 127.953 21.7326C140.233 16.1359 150.134 20.0676 150.027 30.498C149.91 40.9285 139.831 53.9681 127.551 59.5648Z" fill="white"/>
<path d="M136.414 21.9189C142.191 22.1332 146.055 25.6834 145.983 31.7853C145.885 40.8939 137.084 52.2817 126.361 57.17C123.311 58.5589 120.431 59.2747 117.873 59.3792C120.717 59.4853 124.026 58.7842 127.568 57.17C138.301 52.2817 147.101 40.8939 147.2 31.7853C147.271 25.2644 142.862 21.6538 136.414 21.9189Z" fill="#182849"/>
<path d="M105.477 50.8002C105.593 40.3697 115.673 27.3301 127.953 21.7334C131.486 20.1229 134.822 19.3055 137.782 19.201C134.535 19.0935 130.77 19.8976 126.736 21.7334C114.457 27.3301 104.377 40.3697 104.261 50.8002C104.18 58.2291 109.18 62.3574 116.505 62.0989C109.851 61.8787 105.405 57.8108 105.477 50.8002Z" fill="#182849"/>
<path d="M132.717 30.9077L134.676 32.0182L133.728 32.7974L131.912 31.6795L132.717 30.9077Z" fill="#182849"/>
<path d="M119.873 50.2209L121.778 51.3057L123.191 50.3159L121.089 48.9793L119.873 50.2209Z" fill="#182849"/>
<path d="M120.527 42.4958L122.432 43.5791L123.846 42.5901L121.744 41.2535L120.527 42.4958Z" fill="#182849"/>
<path d="M125.518 52.4019L127.342 53.4395L130.294 52.0366L128.469 50.9983L125.518 52.4019Z" fill="#96BDE4"/>
<path d="M125.518 52.4028V49.8983L125.384 49.952C123.667 50.6273 120.554 51.4609 119.007 49.4631L118.828 49.223L121.565 46.84L121.726 47.0094C122.71 48.0573 125.017 47.65 126.752 46.8282C129.579 45.4843 131.332 43.6013 131.332 41.9119C131.332 40.5238 129.856 40.417 126.69 41.5739C122.799 43.018 119.579 43.9098 119.579 40.1696C119.579 36.383 124.024 33.4742 125.384 32.673L125.518 32.5942V30.2855L128.47 28.8819V31.1876L128.595 31.1457C131.001 30.3459 132.566 30.4623 133.541 31.5146L133.755 31.7399L131.251 34.0088L131.072 33.9013C130.231 33.3763 128.487 33.5537 126.851 34.3328C124.168 35.6076 122.629 37.2056 122.629 38.7174C122.629 40.3486 124.499 39.7977 126.94 38.9074C130.947 37.4618 134.542 36.4883 134.542 40.3876C134.542 43.6293 131.564 46.6964 128.613 48.2988L128.47 48.3747V50.9992L125.518 52.4028Z" fill="#031655"/>
<path d="M133.504 37.9763L135.302 39.0007L134.291 40.1841L132.297 38.8961L133.504 37.9763Z" fill="#182849"/>
<path d="M127.345 53.4395V50.9357L127.211 50.9894C125.485 51.664 122.382 52.4983 120.834 50.5004L120.646 50.2604L123.392 47.8773L123.553 48.046C124.537 49.0946 126.845 48.6874 128.58 47.8648C131.397 46.5216 133.159 44.6379 133.159 42.9493C133.159 41.5612 131.683 41.4537 128.517 42.6113C124.626 44.0554 121.407 44.9472 121.407 41.207C121.407 37.4204 125.852 34.5116 127.211 33.7096L127.345 33.6323V31.3229L130.297 29.9201V32.225L130.422 32.1823C132.819 31.3825 134.393 31.4997 135.368 32.5512L135.574 32.7773L133.069 35.0462L132.899 34.9387C132.05 34.4136 130.315 34.5911 128.678 35.3695C125.995 36.6442 124.457 38.2429 124.457 39.7548C124.457 41.3852 126.326 40.8344 128.768 39.9448C132.765 38.4992 136.361 37.5257 136.361 41.425C136.361 44.6659 133.382 47.7337 130.431 49.3362L130.297 49.4113V52.0366L127.345 53.4395Z" fill="white"/>
<path d="M120.644 50.2607L118.828 49.2224L121.565 46.8394L123.389 47.8777L120.644 50.2607Z" fill="#96BDE4"/>
<path d="M125.518 30.2839L127.342 31.3223L130.294 29.9194L128.469 28.8803L125.518 30.2839Z" fill="#96BDE4"/>
<path d="M104.42 30.5648C104.42 30.5648 110.466 32.4588 110.966 32.6216C111.244 32.71 114.007 32.2887 114.964 32.2313C116.673 32.1289 116.467 33.464 116.467 33.464C116.467 33.464 116.807 33.7505 116.592 34.1069L116.646 34.3529C116.699 34.5068 116.601 34.6224 116.503 34.7719L116.521 34.9457C116.512 35.121 116.413 35.2167 116.386 35.2594C116.207 35.5753 115.725 35.7793 114.75 35.9862C113.328 36.2867 112.201 35.7557 111.145 35.5945C109.267 35.3073 102.354 33.3381 102.354 33.3381L104.42 30.5648Z" fill="white"/>
<path d="M98.1441 13.8389C99.9597 13.8279 101.203 19.0152 101.579 20.8554C101.963 22.7443 102.67 25.486 103.01 26.9919C103.412 28.7696 106.462 30.8212 106.748 31.2358C107.15 31.8213 105.129 34.4871 104.467 34.476C101.892 34.4326 97.9831 30.629 97.1692 28.4913C96.561 26.9234 94.5129 13.8603 98.1441 13.8389Z" fill="#96BDE4"/>
<path d="M97.4117 13.733C99.2273 13.7219 100.47 18.9092 100.846 20.7495C101.231 22.6384 101.937 25.38 102.277 26.886C102.68 28.6637 105.729 30.7153 106.016 31.1299C106.418 31.7153 104.397 34.3811 103.735 34.3701C101.159 34.3266 97.2506 30.5231 96.4368 28.3853C95.8286 26.8175 93.7805 13.7543 97.4117 13.733" stroke="#182849" stroke-width="0.5"/>
<path d="M84.7598 94.7563C84.7598 94.7534 84.7598 94.7497 84.7598 94.7468C86.8705 93.8719 90.5106 92.4205 94.5979 91.05C94.6069 91.061 94.6068 91.0713 94.6068 91.0824C91.2529 92.187 87.9616 93.4153 84.7598 94.7563ZM97.9697 90.0249C97.9697 90.0095 97.9697 89.994 97.9697 89.9785C99.0608 89.6516 100.161 89.3408 101.252 89.0587C101.252 89.0661 101.252 89.0735 101.261 89.0808C100.152 89.3828 99.0519 89.6972 97.9697 90.0249Z" fill="#D9DCE6"/>
<path d="M94.0585 102.646C88.397 101.508 84.4707 98.9954 84.4707 96.0785C84.4707 95.6263 84.5691 95.1852 84.7569 94.7566C87.9588 93.4156 91.2501 92.1873 94.604 91.0827C94.6666 91.3883 94.7203 91.6763 94.774 91.9443C94.8723 92.4738 94.9528 92.9259 95.0065 93.2786C94.765 93.8972 95.1317 95.3193 95.1585 95.9563C95.1854 96.4968 94.8902 97.6168 95.087 98.1176C95.3195 98.7067 96.0261 99.7127 96.6074 99.9365C96.7505 99.9917 97.305 100.053 97.7343 100.053C97.9579 100.053 98.1547 100.035 98.2173 99.9903C98.6913 99.6854 98.7897 98.3856 98.8434 97.8208C98.9149 97.0829 98.1546 95.7081 98.0115 94.9812C97.94 94.6285 97.7969 93.8678 97.6002 93.3523C97.7164 92.5835 97.8327 91.4273 97.9668 90.0252C99.049 89.6975 100.149 89.3831 101.258 89.0811C101.285 89.3639 101.321 89.618 101.357 89.8396C101.276 89.9317 101.205 90.037 101.178 90.1548C101.124 90.3551 101.044 90.794 101.044 91.1026C101.044 92.1343 101.365 93.155 101.365 93.155L102.636 93.8575V93.3199C102.636 93.3199 103.816 94.6307 105.587 95.4827C106.025 95.6904 106.392 95.7633 106.696 95.7633C107.063 95.7633 107.34 95.6602 107.537 95.56C107.742 95.454 108.404 95.0939 108.521 94.8737C108.628 94.6513 108.547 94.3715 108.324 94.2537C106.75 93.4201 106.124 92.8567 105.086 91.0805C104.8 90.5923 104.478 90.0797 104.022 89.7387C104.031 89.7019 104.04 89.6644 104.049 89.6268C104.084 89.4604 104.12 89.2822 104.165 89.0929C110.47 89.6305 115.434 91.7212 116.856 94.4532C106.419 96.7516 98.6377 100.222 94.0585 102.646Z" fill="#BFE3FF"/>
<path d="M94.0803 108.518C94.0803 108.518 94.0803 107.785 94.0803 106.833C96.9513 105.047 104.884 100.57 116.896 97.4631C116.905 98.5515 116.923 99.5074 116.923 99.5074L94.0803 108.518ZM94.0714 102.649C94.0714 102.648 94.0625 102.647 94.0625 102.646C98.6417 100.222 106.423 96.751 116.86 94.4527C116.86 94.4556 116.86 94.4593 116.86 94.463C106.441 96.7584 98.6596 100.224 94.0714 102.649Z" fill="#031655"/>
<path d="M97.7375 100.053C97.3082 100.053 96.7537 99.9921 96.6106 99.9369C96.0293 99.713 95.3227 98.7071 95.0902 98.1179C94.8934 97.6172 95.1885 96.4971 95.1617 95.9566C95.1349 95.3196 94.7682 93.8976 95.0096 93.279C95.0186 93.3659 95.0275 93.4462 95.0365 93.5206C94.9291 94.0162 95.0722 94.7423 95.3763 95.2415C95.6088 95.6098 96.0024 95.7637 96.4048 95.7637C97.0577 95.7637 97.7285 95.366 97.7464 94.8218C97.7554 94.4911 97.6749 94.0633 97.5497 93.6966C97.5676 93.5927 97.5855 93.4778 97.6033 93.3526C97.8001 93.8681 97.9432 94.6288 98.0147 94.9816C98.1578 95.7084 98.9181 97.0833 98.8466 97.8212C98.7929 98.386 98.6945 99.6857 98.2205 99.9906C98.1579 100.036 97.9611 100.053 97.7375 100.053Z" fill="url(#paint0_linear_1770_34484)"/>
<path d="M106.701 95.7637C106.397 95.7637 106.03 95.6908 105.592 95.4831C103.821 94.6311 102.641 93.3203 102.641 93.3203V93.8579L101.371 93.1553C101.371 93.1553 101.049 92.1347 101.049 91.1029C101.049 90.7944 101.129 90.3555 101.183 90.1552C101.21 90.0374 101.281 89.9321 101.362 89.84C101.38 89.9033 101.389 89.9637 101.398 90.0212C101.38 90.0639 101.362 90.1088 101.344 90.1552C101.299 90.3349 101.201 90.5352 101.237 90.8091C101.353 91.6317 102.373 91.9447 102.99 91.9668C102.999 91.9675 103.016 91.9682 103.034 91.9682C103.777 91.9682 104.939 91.3732 104.716 90.7782C104.582 90.4026 104.349 90.0513 104.018 89.801C104.027 89.7811 104.027 89.7605 104.027 89.7391C104.483 90.0801 104.805 90.5926 105.091 91.0809C106.129 92.8571 106.755 93.4204 108.329 94.254C108.553 94.3719 108.633 94.6517 108.526 94.8741C108.41 95.0943 107.748 95.4544 107.542 95.5604C107.345 95.6606 107.068 95.7637 106.701 95.7637Z" fill="url(#paint1_linear_1770_34484)"/>
<path d="M96.4077 95.7637C96.0053 95.7637 95.6117 95.6098 95.3792 95.2416C95.0751 94.7423 94.932 94.0162 95.0393 93.5206C95.0572 93.648 95.0662 93.7562 95.0752 93.8446C95.1109 94.3903 95.6654 94.6694 96.2915 94.6694C96.6403 94.6694 97.016 94.5788 97.329 94.3947C97.338 94.391 97.3379 94.3859 97.3468 94.3792C97.4184 94.3262 97.4811 94.0876 97.5526 93.6966C97.6778 94.0633 97.7582 94.4911 97.7493 94.8218C97.7314 95.366 97.0606 95.7637 96.4077 95.7637Z" fill="#031655"/>
<path d="M103.034 91.9673C103.016 91.9673 102.998 91.9665 102.989 91.9658C102.372 91.9437 101.352 91.6307 101.236 90.8082C101.2 90.5342 101.299 90.3339 101.344 90.1543C101.361 90.1079 101.379 90.063 101.397 90.0202C101.478 90.3936 101.576 90.6535 101.683 90.7736C101.916 91.0166 102.256 91.1241 102.596 91.1241C102.873 91.1241 103.159 91.0542 103.392 90.9282C103.687 90.7868 103.91 90.5438 103.955 90.2228C103.973 90.0939 103.991 89.9525 104.018 89.8C104.349 90.0504 104.581 90.4017 104.715 90.7772C104.939 91.3723 103.776 91.9673 103.034 91.9673Z" fill="#031655"/>
<path d="M97.3453 94.3784C97.542 94.1663 97.712 92.4498 97.9445 89.9865C97.9535 89.9835 97.9624 89.9813 97.9713 89.9784C97.9713 89.9938 97.9713 90.0093 97.9713 90.0248C97.8372 91.4269 97.721 92.583 97.6047 93.3518C97.5868 93.477 97.5689 93.5919 97.5511 93.6958C97.4795 94.0868 97.4168 94.3254 97.3453 94.3784ZM94.7785 91.9438C94.7248 91.6758 94.6711 91.3878 94.6085 91.0822C94.6085 91.0712 94.6086 91.0609 94.5996 91.0498C94.6086 91.0491 94.6085 91.0483 94.6085 91.0476C94.6711 91.3657 94.7248 91.6655 94.7785 91.9438ZM103.391 90.9283C103.678 90.7715 103.901 90.5277 103.937 90.2236C103.964 90.0461 103.999 89.8465 104.053 89.6263C104.044 89.6639 104.035 89.7015 104.026 89.7383C104.026 89.7596 104.026 89.7802 104.017 89.8001C103.991 89.9526 103.973 90.094 103.955 90.2228C103.91 90.5439 103.686 90.7869 103.391 90.9283Z" fill="#A48E8B"/>
<path d="M96.2888 94.668C95.6628 94.668 95.1083 94.3889 95.0725 93.8432C95.0636 93.7548 95.0546 93.6466 95.0367 93.5192C95.0278 93.4448 95.0188 93.3645 95.0099 93.2776C94.9562 92.9249 94.8758 92.4727 94.7774 91.9433C94.7237 91.6649 94.67 91.3651 94.6074 91.047C95.6986 90.6832 96.8165 90.3254 97.9434 89.9859C97.7109 92.4492 97.541 94.1657 97.3442 94.3778C97.3352 94.3845 97.3353 94.3896 97.3264 94.3933C97.0133 94.5774 96.6376 94.668 96.2888 94.668Z" fill="white"/>
<path d="M102.601 91.1235C102.261 91.1235 101.922 91.016 101.689 90.773C101.582 90.653 101.483 90.393 101.403 90.0197C101.394 89.9622 101.385 89.9019 101.367 89.8385C101.331 89.6169 101.296 89.3628 101.269 89.08C101.26 89.0726 101.26 89.0653 101.26 89.0579C101.385 89.0255 101.51 88.9939 101.635 88.9622C102.503 88.9777 103.353 89.0211 104.175 89.0918C104.131 89.2811 104.095 89.4593 104.059 89.6257C104.005 89.8459 103.97 90.0454 103.943 90.2229C103.907 90.527 103.684 90.7708 103.397 90.9277C103.165 91.0536 102.879 91.1235 102.601 91.1235Z" fill="white"/>
<path d="M223.142 306.583L167.744 280.003H167.753L223.142 306.582L248.998 294.27L223.142 306.583Z" fill="url(#paint2_linear_1770_34484)"/>
<path d="M167.75 280.003L135.678 264.612V264.611L167.759 280.003H167.75Z" fill="url(#paint3_linear_1770_34484)"/>
<path d="M169.551 180.88L173.477 182.764L223.24 306.583L219.323 304.724L169.551 180.88Z" fill="#182849"/>
<path d="M192.791 170.008L196.699 171.847L246.4 295.52L242.429 293.52L192.791 170.008Z" fill="#182849"/>
<path d="M199.298 170.607L248.999 294.269L246.396 295.517L196.695 171.846L199.298 170.607Z" fill="#182849"/>
<path d="M176.081 181.526L225.836 305.314L223.242 306.562L173.479 182.763L176.081 181.526Z" fill="#182849"/>
<path d="M216.096 284.847L239.26 273.801L238.053 270.796L214.889 281.842L216.096 284.847Z" fill="#182849"/>
<path d="M216.167 281.252L236.747 271.424L232.839 269.623L214.951 278.152L216.167 281.252Z" fill="#191E26"/>
<path d="M209.557 268.586L232.721 257.541L231.505 254.537L208.35 265.582L209.557 268.586Z" fill="#182849"/>
<path d="M209.621 264.99L230.21 255.163L226.302 253.362L208.414 261.891L209.621 264.99Z" fill="#191E26"/>
<path d="M203.012 252.327L226.177 241.281L224.969 238.276L201.805 249.321L203.012 252.327Z" fill="#182849"/>
<path d="M203.084 248.729L223.664 238.901L219.756 237.099L201.877 245.629L203.084 248.729Z" fill="#191E26"/>
<path d="M196.479 236.063L219.643 225.018L218.436 222.014L195.271 233.059L196.479 236.063Z" fill="#182849"/>
<path d="M196.534 232.468L217.122 222.64L213.214 220.838L195.326 229.368L196.534 232.468Z" fill="#191E26"/>
<path d="M189.934 219.802L213.089 208.757L211.882 205.752L188.727 216.798L189.934 219.802Z" fill="#182849"/>
<path d="M189.998 216.206L210.578 206.379L206.67 204.577L188.791 213.107L189.998 216.206Z" fill="#191E26"/>
<path d="M183.389 203.541L206.553 192.495L205.346 189.49L182.182 200.536L183.389 203.541Z" fill="#182849"/>
<path d="M183.461 199.945L204.04 190.117L200.132 188.315L182.244 196.845L183.461 199.945Z" fill="#191E26"/>
<path d="M177.078 184.637L197.908 174.844L196.7 171.847L175.861 181.635L177.078 184.637Z" fill="#182849"/>
<path d="M173.477 182.764L199.289 170.6L195.363 168.725L169.551 180.88L173.477 182.764Z" fill="#191E26"/>
<path d="M197.26 171.993L246.818 295.315L246.397 295.518L196.84 172.196L197.26 171.993Z" fill="white"/>
<path d="M173.912 182.563L223.666 306.36L223.246 306.563L173.482 182.764L173.912 182.563Z" fill="white"/>
<path d="M149.912 100.014C154.079 110.366 167.012 120.336 178.747 122.237C190.481 124.138 196.625 117.26 192.457 106.908C188.29 96.5548 175.357 86.5853 163.632 84.6846C151.897 82.784 145.744 89.6605 149.912 100.014Z" fill="#031655"/>
<path d="M161.139 88.6899C172.149 90.4728 184.241 99.7927 188.149 109.506C192.058 119.218 186.307 125.647 175.306 123.864C164.296 122.08 152.204 112.762 148.296 103.048C144.387 93.3352 150.138 86.9064 161.139 88.6899Z" fill="#CDE7FC"/>
<path d="M149.339 103.004C152.979 112.045 164.275 120.751 174.516 122.411C184.766 124.071 190.141 118.066 186.501 109.024C182.852 99.9828 171.556 91.277 161.315 89.6164C151.074 87.9565 145.699 93.9612 149.339 103.004ZM189.193 109.461C193.361 119.814 187.207 126.691 175.473 124.79C163.748 122.89 150.815 112.92 146.647 102.568C142.479 92.2137 148.624 85.3364 160.358 87.2378C172.092 89.1384 185.025 99.1079 189.193 109.461Z" fill="white"/>
<path d="M149.342 103.004C152.983 112.045 164.279 120.751 174.519 122.411C179.143 123.16 182.765 122.346 185.019 120.403C182.747 121.994 179.358 122.611 175.145 121.928C164.896 120.268 153.6 111.562 149.959 102.52C147.965 97.555 148.689 93.5092 151.435 91.1417C148.18 93.4164 147.196 97.6832 149.342 103.004Z" fill="#031655"/>
<path d="M160.359 87.2385C172.093 89.1392 185.026 99.1087 189.194 109.462C191.492 115.165 190.643 119.809 187.476 122.516C191.152 119.9 192.252 115.037 189.811 108.979C185.643 98.6248 172.71 88.6554 160.976 86.7547C155.708 85.9012 151.576 86.8224 148.982 89.0295C151.594 87.1759 155.493 86.4498 160.359 87.2385Z" fill="#031655"/>
<path d="M159.216 98.158L157.893 99.1919L158.34 99.7162C158.25 100.212 158.25 100.793 158.322 101.467L158.34 101.579L155.952 100.997L154.664 102.007L156.372 102.425L156.748 103.722L159.136 104.305L159.19 104.431C159.735 105.733 161.855 110.061 166.255 111.136C166.586 111.217 166.881 111.272 167.158 111.309L168.044 111.991L169.439 110.899C170.45 110.049 170.271 108.127 169.904 105.93C169.457 103.107 170.003 101.975 171.613 102.369C173.58 102.849 175.27 104.767 176.031 107.375C176.496 108.971 176.308 110.907 174.814 111.388L174.573 111.465L173.276 112.474L176.88 114.666L178.159 113.664L178.356 113.511C179.599 112.418 179.501 110.537 179.277 109.34L179.25 109.217L181.862 109.855L181.075 107.131L178.32 106.459L178.267 106.326C177.247 103.547 174.519 100.33 170.754 99.4099C166.219 98.3023 166.336 101.411 166.881 104.977C167.221 107.153 167.328 108.78 165.432 108.317C163.679 107.888 162.257 106.222 161.533 103.747C161.095 102.235 161.381 100.816 162.23 100.298L162.409 100.191L160.478 97.574L160.155 97.6749C159.825 97.7787 159.547 97.9186 159.306 98.0954L159.216 98.158Z" fill="#182849"/>
<path d="M157.893 99.1941L157.946 99.1543C158.197 98.9555 158.51 98.7994 158.868 98.6852L159.19 98.5836L161.112 101.201L160.943 101.309C160.084 101.827 159.807 103.247 160.245 104.756C160.96 107.232 162.383 108.897 164.144 109.326C165.218 109.589 165.647 109.178 165.754 108.375C167.311 108.588 167.203 107.023 166.881 104.977C166.595 103.109 166.425 101.366 166.98 100.289C167.489 99.3104 168.598 98.884 170.754 99.4106C174.519 100.33 177.247 103.547 178.267 106.328L178.32 106.457L181.075 107.13L181.862 109.857L180.154 109.44L179.25 109.218L179.268 109.34C179.349 109.706 179.403 110.132 179.411 110.583L177.963 110.227L177.98 110.348C178.213 111.544 178.311 113.425 177.077 114.514L176.88 114.665L173.276 112.473L174.573 111.467L174.636 111.444L174.814 111.387C176.308 110.909 176.496 108.971 176.031 107.376C175.27 104.767 173.58 102.849 171.621 102.369C170.664 102.137 170.083 102.439 169.86 103.311C168.607 103.231 168.214 104.406 168.616 106.939C168.983 109.167 169.162 111.117 168.098 111.947L168.044 111.991L167.158 111.312C166.881 111.272 166.586 111.216 166.255 111.137C161.855 110.063 159.735 105.734 159.19 104.432L159.136 104.305L156.748 103.721L156.372 102.425L154.664 102.006L155.952 100.997L156.989 101.249L158.34 101.579L158.322 101.469C158.242 100.792 158.25 100.21 158.34 99.7162L157.893 99.1963V99.1941Z" fill="#182849"/>
<path d="M167.625 99.5631L166.176 100.688L167.24 101.625L168.805 100.398L167.625 99.5631Z" fill="#182849"/>
<path d="M180.572 110.866L177.952 110.227L177.978 110.35C178.274 111.896 178.363 114.583 175.599 115.232L175.269 115.311L173.274 112.474L173.516 112.397C175.018 111.918 175.197 109.981 174.732 108.384C173.972 105.776 172.281 103.858 170.323 103.379C168.704 102.985 168.167 104.116 168.614 106.94C169.187 110.415 169.303 113.208 164.956 112.147C160.556 111.072 158.436 106.743 157.891 105.441L157.837 105.314L155.449 104.731L154.662 102.007L157.041 102.589L157.032 102.477C156.782 100.36 157.363 99.155 158.866 98.6852L159.188 98.5843L161.111 101.201L160.941 101.307C160.082 101.827 159.796 103.245 160.243 104.757C160.958 107.232 162.381 108.898 164.143 109.328C166.03 109.79 165.922 108.163 165.582 105.987C165.037 102.421 164.93 99.3126 169.464 100.419C173.229 101.34 175.948 104.557 176.968 107.337L177.022 107.468L179.776 108.141L180.572 110.866Z" fill="#EDEDED"/>
<path d="M179.775 108.14L181.072 107.129L181.859 109.854L180.571 110.865L179.775 108.14Z" fill="#182849"/>
<path d="M177.962 110.228L179.41 110.584C179.437 111.607 179.223 112.749 178.346 113.508L178.167 113.661L177.076 114.515C178.31 113.426 178.212 111.544 177.979 110.349L177.962 110.228Z" fill="#182849"/>
<path d="M169.86 103.311C169.708 103.909 169.725 104.78 169.904 105.93C170.092 107.03 170.226 108.058 170.191 108.92C170.155 109.78 169.949 110.474 169.439 110.899L168.098 111.947C169.162 111.117 168.983 109.167 168.616 106.939C168.214 104.406 168.607 103.231 169.86 103.311Z" fill="#182849"/>
<path d="M157.944 99.154C158.195 98.9551 158.508 98.7991 158.866 98.6849L159.188 98.5833L161.111 101.2L160.941 101.309C160.082 101.826 159.805 103.246 160.243 104.756C160.958 107.232 162.381 108.897 164.143 109.326C165.216 109.588 165.645 109.178 165.752 108.375C165.833 107.763 165.734 106.926 165.582 105.988C165.162 103.26 165.001 100.799 166.978 100.289C167.586 100.133 168.391 100.16 169.464 100.419C173.229 101.339 175.948 104.558 176.977 107.337L177.022 107.469L179.776 108.142L180.152 109.44L180.572 110.866L179.409 110.583L177.961 110.227L177.978 110.348C178.211 111.543 178.309 113.425 177.075 114.514L176.878 114.664C176.539 114.912 176.118 115.11 175.599 115.233L175.269 115.312L173.274 112.473L173.516 112.398C174.034 112.232 174.401 111.889 174.634 111.444C175.072 110.615 175.036 109.428 174.732 108.384C173.972 105.776 172.281 103.857 170.323 103.379C170.162 103.339 170.01 103.315 169.858 103.311C168.605 103.231 168.212 104.405 168.614 106.939C168.981 109.167 169.16 111.116 168.096 111.947L168.033 111.989C167.434 112.419 166.468 112.515 164.965 112.146C160.556 111.072 158.436 106.743 157.891 105.441L157.837 105.316L155.449 104.732L154.662 102.005L156.37 102.425L157.041 102.589L157.032 102.477C156.979 102.026 156.961 101.617 156.987 101.248C157.041 100.322 157.345 99.6511 157.891 99.196L157.944 99.154Z" fill="white"/>
<path d="M162.411 100.191L161.114 101.201L159.191 98.584L160.479 97.5736L162.411 100.191Z" fill="#182849"/>
<path d="M211.017 205.812C210.981 206.282 209.872 206.605 208.548 206.535C207.224 206.464 206.178 206.028 206.214 205.558C206.25 205.089 207.359 204.766 208.682 204.836C210.006 204.907 211.052 205.343 211.017 205.812Z" fill="#031655"/>
<path d="M201.422 209.533C201.422 210.056 200.223 210.48 198.739 210.48C197.263 210.48 196.064 210.056 196.064 209.533C196.064 209.01 197.263 208.586 198.739 208.586C200.223 208.586 201.422 209.01 201.422 209.533Z" fill="#031655"/>
<path d="M208.12 209.696C206.966 209.024 206.394 209.076 205.356 208.578C204.838 208.328 204.247 207.269 203.738 206.792C203.666 206.728 203.416 206.677 203.156 206.807C203.094 206.84 203.04 207.27 203.147 207.419C203.657 208.15 204.301 208.686 206.26 209.646C206.528 209.779 207.467 209.933 207.467 209.933V210.321C207.467 210.321 207.914 210.808 208.138 210.877C208.639 211.031 210.32 210.629 210.32 210.629C210.32 210.629 210.356 210.673 210.392 209.961C209.462 209.962 208.862 210.134 208.12 209.696Z" fill="#031655"/>
<path d="M207.636 209.657C207.824 209.776 208.083 210.094 208.307 210.164C208.79 210.318 210.373 210.018 210.373 210.018C210.373 210.018 210.623 208.736 210.176 207.657C209.979 207.188 209.255 206.893 209.255 206.893C209.255 206.893 206.84 207.02 205.543 206.417C204.926 206.135 203.486 206.265 203.173 206.78C202.958 207.118 204.201 208.118 205.427 208.76C206.545 209.343 207.117 209.331 207.636 209.657Z" fill="#87D6FF"/>
<path d="M209.624 208.286C209.41 208.382 208.801 208.424 208.56 208.439C207.925 208.474 207.397 208.37 207.299 207.598C207.281 207.471 207.299 205.725 207.299 205.725C207.299 205.395 210.089 205.332 210.161 205.498C210.286 205.761 210.17 208.04 209.624 208.286Z" fill="#FFF0E6"/>
<path d="M198.799 214.707C197.681 214.056 197.126 214.105 196.116 213.621C195.615 213.379 194.264 212.597 193.764 212.134C193.692 212.073 193.12 212.409 192.869 212.535C192.807 212.568 192.762 212.984 192.86 213.129C193.361 213.839 194.658 214.534 196.715 214.806C197.01 214.846 197.94 214.989 197.94 214.989V215.285C197.94 215.285 198.718 215.651 198.933 215.716C199.425 215.867 201.285 214.943 201.285 214.943C201.285 214.943 201.321 214.984 201.357 214.294C200.454 214.295 199.532 215.132 198.799 214.707Z" fill="#031655"/>
<path d="M198.506 214.669C198.694 214.785 198.891 214.958 199.114 215.026C199.58 215.176 201.35 214.35 201.35 214.35C201.35 214.35 201.476 213.82 201.037 212.774C200.85 212.318 199.91 211.986 199.91 211.986C199.91 211.986 197.102 212.148 195.689 211.87C194.517 211.637 193.399 211.968 193.095 212.467C192.89 212.796 194.571 213.884 196.19 214.202C197.862 214.533 197.996 214.353 198.506 214.669Z" fill="#87D6FF"/>
<path d="M199.944 212.856C199.729 212.952 199.148 213.028 198.763 213.028C198.271 213.029 197.6 212.96 197.502 212.187C197.484 212.061 197.502 210.418 197.502 210.418C197.502 210.089 200.301 210.341 200.382 210.507C200.498 210.77 200.561 212.581 199.944 212.856Z" fill="#FFF0E6"/>
<path d="M183.318 155.758L183.81 152.797C183.81 152.797 186.189 152.417 186.887 152.332C187.236 152.291 188.255 152.266 189.552 152.533L188.873 154.778C188.873 154.778 187.513 155.219 186.833 155.379C186.288 155.511 183.318 155.758 183.318 155.758Z" fill="#FFF0E6"/>
<path d="M181.664 156.134C181.458 156.55 182.531 156.4 184.177 156.139C185.814 155.88 187.111 155.301 187.111 155.301L186.288 154.93L184.66 155.354C184.66 155.354 181.816 155.807 181.664 156.134Z" fill="#FFF0E6"/>
<path d="M184.518 152.644C184.518 152.644 182.988 152.964 182.487 153.129C182.112 153.253 181.369 153.595 181.038 153.795C180.922 153.864 180.725 154.035 180.743 154.13C180.77 154.259 180.895 154.242 181.056 154.199C181.414 154.106 182.469 153.704 182.469 153.704L184.527 153.395L184.518 152.644Z" fill="#FFF0E6"/>
<path d="M184.015 154.165L184.463 153.394C184.463 153.394 182.719 153.637 182.119 153.768C181.61 153.88 180.67 154.176 180.205 154.37C179.946 154.477 179.722 154.641 179.687 154.789C179.651 154.937 179.937 154.928 180.08 154.899C180.08 154.899 181.574 154.522 182.039 154.424C182.736 154.278 184.015 154.165 184.015 154.165Z" fill="#FFF0E6"/>
<path d="M183.991 154.22C183.991 154.22 182.292 154.419 181.702 154.549C181.004 154.706 180.253 154.768 179.627 154.976C179.269 155.095 179.072 155.27 179.072 155.401C179.072 155.552 179.35 155.572 179.582 155.532C179.582 155.532 180.906 155.321 181.442 155.232C182.024 155.135 183.687 155.021 183.687 155.021L183.991 154.22Z" fill="#FFF0E6"/>
<path d="M183.337 155.795L183.811 154.968C183.811 154.968 182.362 155.164 181.664 155.26C181.208 155.324 180.448 155.438 180.036 155.55C179.857 155.598 179.464 155.749 179.41 155.91C179.339 156.109 179.678 156.127 179.848 156.122C180.689 156.091 183.337 155.795 183.337 155.795Z" fill="#FFF0E6"/>
<path d="M188.24 154.834L188.938 152.634L196.164 151.365L196.415 154.154L188.24 154.834Z" fill="#FFF0E6"/>
<path d="M191.27 154.77C191.27 154.77 189.687 154.909 189.168 154.988C188.918 155.024 188.676 154.905 188.632 154.701C188.471 153.971 187.889 152.854 187.728 152.125C187.683 151.925 187.844 151.734 188.086 151.695C188.524 151.628 190.286 150.941 190.286 150.941L191.27 154.77Z" fill="#49A197"/>
<path d="M216.658 137.661C213.08 142.382 205.952 148.662 201.114 151.921C199.477 153.025 197.107 154.046 193.35 154.996C192.724 155.154 191.186 155.489 190.721 155.165C190.131 154.749 188.726 151.578 189.862 150.97C191.302 150.205 196.668 147.52 198.556 145.916C201.489 143.428 206.292 137.429 211.086 135.616C214.762 134.223 218.402 135.364 216.658 137.661Z" fill="#88B0D8"/>
<path d="M204.98 124.466C204.98 124.466 202.842 128.277 202.609 129.223C201.965 131.867 202.86 132.185 204.98 132.725C206.437 133.098 208.414 133.232 209.675 131.524C210.471 130.451 211.249 128.126 211.249 128.126C211.714 126.604 205.427 122.977 204.98 124.466Z" fill="#FFF0E6"/>
<path d="M214.124 125.16C214.133 124.531 214.16 124.249 212.952 123.03C211.933 121.995 208.999 121.363 206.486 122.19C203.901 123.039 204.554 124.076 204.554 124.076C204.554 124.076 206.441 126.436 207.416 125.43L210.162 127.848C210.162 127.848 210.484 127.946 210.913 127.825C211.584 127.632 212.228 128.012 212.228 128.012C212.228 128.012 214.088 126.956 214.124 125.16Z" fill="#182849"/>
<path d="M210.909 136.985L203.504 137.731L205.042 131.562L211.526 130.863C211.526 130.863 210.668 132.933 210.605 133.388C210.239 136.141 210.909 136.985 210.909 136.985Z" fill="#FFF0E6"/>
<path d="M204.765 132.688L204.721 132.964C204.721 132.964 205.642 133.204 206.447 132.937C207.35 132.636 207.699 131.579 207.699 131.579L207.35 131.408C207.35 131.408 206.626 132.523 204.765 132.688Z" fill="#EDD9C9"/>
<path d="M211.51 197.456C211.429 196.239 211.143 193.302 210.964 192.092C210.445 188.714 209.426 184.092 209.336 179.047C209.256 174.562 210.32 168.98 210.32 166.958C210.32 163.032 209.739 160.485 209.739 160.485L191.297 162.625C191.297 162.625 190.42 171.14 190.295 172.899C189.785 180.004 192.728 188.83 194.329 193.731C195.643 197.736 196.412 208.752 196.377 211.09C196.493 212.802 201.144 212.38 201.171 211.442C201.296 206.655 202.458 201.181 202.262 197.166C202.226 196.357 201.797 193.125 201.832 192.319C202.074 186.905 201.716 183.406 201.716 183.406C201.716 183.406 204.515 193.639 204.855 194.841C205.982 198.842 206.573 206.243 206.698 207.322C206.832 208.41 210.087 208.272 210.374 207.446C211.375 204.59 211.671 199.962 211.51 197.456Z" fill="white"/>
<path d="M208.547 158.523C208.547 158.523 209.129 161.07 209.129 164.996C209.129 167.019 208.064 172.6 208.145 177.085C208.234 182.13 209.254 186.752 209.773 190.13C209.951 191.34 210.238 194.277 210.318 195.494C210.479 198 210.184 202.628 209.182 205.484C208.896 206.31 205.641 206.448 205.506 205.36C205.381 204.282 204.791 196.88 203.664 192.879C203.324 191.677 200.525 181.444 200.525 181.444C200.525 181.444 200.882 184.943 200.641 190.358C200.605 191.163 201.034 194.395 201.07 195.204C201.267 199.219 200.104 204.693 199.979 209.48C199.952 210.418 195.302 210.84 195.185 209.128C195.221 206.79 194.452 195.775 193.137 191.769C191.536 186.868 188.594 178.042 189.103 170.937C189.229 169.178 189.431 160.387 189.431 160.387" stroke="#182849" stroke-width="0.5" stroke-linecap="round"/>
<path d="M216.554 135.076C215.069 133.596 212.663 133.966 210.534 134.277C210.534 134.277 210.838 137.213 205.517 136.303C204.122 136.065 204.166 134.981 204.166 134.981C201.269 135.661 198.451 136.926 196.412 138.04C194.248 139.224 193.398 142.412 193.103 147.248C192.853 151.221 191.046 156.716 190.921 161.633C190.84 164.547 192.575 165.218 196.546 165.726C202.53 166.488 206.796 165.715 209.381 163.821C210.999 162.629 210.713 161.372 210.794 160.557C211.196 156.539 210.964 156.29 214.228 149.387C215.239 147.251 220.176 138.698 216.554 135.076Z" fill="#96BDE4"/>
<path d="M175.951 125.033L173.08 125.735L176.005 131.334L179.019 131.022L175.951 125.033Z" fill="#FFF0E6"/>
<path d="M173.828 128.989C173.828 128.989 173.515 127.705 173.381 127.285C173.309 127.083 173.47 126.937 173.676 126.819C174.704 126.232 175.151 125.995 176.314 126.062C176.565 126.077 176.797 126.123 176.869 126.319C176.985 126.672 177.978 128.054 177.978 128.054L173.828 128.989Z" fill="#49A197"/>
<path d="M196.077 144.073C189.369 144.887 182.813 141.494 180.031 139.321C177.25 137.136 171.186 129.864 173.529 127.791C174.057 127.321 177.339 125.601 177.777 126.659C178.332 127.993 182.133 132.965 184.02 134.256C185.988 135.594 191.927 137.097 196.613 136.757C200.647 136.464 202.704 143.269 196.077 144.073Z" fill="#88B0D8"/>
<path d="M191.963 144.409L192.211 144.445C192.221 144.375 192.2 144.303 192.155 144.249C192.109 144.194 192.042 144.162 191.971 144.16L191.963 144.409ZM178.588 139.543L178.434 139.739L178.434 139.74L178.588 139.543ZM172.086 128.013L172.251 128.2L172.252 128.2L172.086 128.013ZM176.334 126.882L176.103 126.977L176.103 126.978L176.334 126.882ZM182.577 134.478L182.436 134.684L182.436 134.684L182.577 134.478ZM195.17 136.979L195.188 137.229L195.188 137.229L195.17 136.979ZM196.867 137.301L196.758 137.526C196.826 137.559 196.906 137.559 196.974 137.527L196.867 137.301ZM202.727 135.204L202.977 135.214C202.98 135.136 202.947 135.061 202.886 135.011C202.826 134.961 202.746 134.943 202.67 134.96L202.727 135.204ZM204.078 136.526L204.12 136.279L204.12 136.279L204.078 136.526ZM209.095 134.5L209.059 134.252C208.926 134.272 208.833 134.392 208.846 134.526L209.095 134.5ZM209.16 134.49L209.196 134.738L209.196 134.738L209.16 134.49ZM215.114 135.298L215.291 135.121L215.291 135.121L215.114 135.298ZM213.203 148.777L212.98 148.664L213.203 148.777ZM212.789 149.609L212.563 149.502L212.563 149.503L212.789 149.609ZM209.45 159.788L209.699 159.811L209.45 159.788ZM209.354 160.779L209.106 160.754L209.106 160.755L209.354 160.779ZM209.334 161.217L209.584 161.222V161.222L209.334 161.217ZM207.941 164.043L208.089 164.245L208.09 164.244L207.941 164.043ZM195.107 165.948L195.075 166.196L195.075 166.196L195.107 165.948ZM189.481 161.855L189.731 161.862L189.731 161.862L189.481 161.855ZM190.694 153.476L190.449 153.426L190.694 153.476ZM191.664 147.47L191.913 147.486L191.913 147.485L191.664 147.47ZM191.971 144.16C186.317 143.977 181.123 141.206 178.742 139.346L178.434 139.74C180.873 141.646 186.167 144.473 191.955 144.659L191.971 144.16ZM178.742 139.346C177.376 138.273 175.181 135.929 173.623 133.597C172.843 132.431 172.235 131.285 171.963 130.314C171.688 129.333 171.777 128.62 172.251 128.2L171.92 127.826C171.223 128.443 171.192 129.415 171.481 130.449C171.774 131.494 172.416 132.691 173.207 133.875C174.79 136.244 177.019 138.629 178.434 139.739L178.742 139.346ZM172.252 128.2C172.36 128.103 172.642 127.919 173.03 127.709C173.411 127.503 173.874 127.282 174.332 127.108C174.795 126.933 175.234 126.813 175.573 126.796C175.927 126.777 176.059 126.87 176.103 126.977L176.565 126.786C176.391 126.365 175.947 126.275 175.547 126.296C175.13 126.318 174.634 126.459 174.155 126.641C173.672 126.824 173.188 127.055 172.791 127.27C172.402 127.481 172.075 127.688 171.92 127.826L172.252 128.2ZM176.103 126.978C176.253 127.338 176.609 127.918 177.072 128.592C177.54 129.271 178.13 130.063 178.76 130.852C180.014 132.421 181.457 134.015 182.436 134.684L182.718 134.271C181.809 133.65 180.408 132.113 179.151 130.54C178.526 129.758 177.944 128.976 177.484 128.308C177.02 127.634 176.692 127.092 176.565 126.786L176.103 126.978ZM182.436 134.684C183.461 135.382 185.477 136.1 187.801 136.602C190.133 137.106 192.814 137.401 195.188 137.229L195.152 136.73C192.839 136.898 190.207 136.611 187.907 136.114C185.598 135.615 183.66 134.912 182.718 134.271L182.436 134.684ZM195.188 137.229C195.764 137.187 196.294 137.301 196.758 137.526L196.976 137.076C196.435 136.814 195.818 136.682 195.152 136.73L195.188 137.229ZM202.67 134.96C200.568 135.454 198.511 136.251 196.761 137.075L196.974 137.527C198.703 136.713 200.725 135.93 202.784 135.447L202.67 134.96ZM204.12 136.279C203.495 136.173 203.224 135.887 203.099 135.656C203.033 135.535 203.003 135.42 202.989 135.336C202.982 135.294 202.979 135.26 202.978 135.238C202.977 135.228 202.977 135.22 202.977 135.216C202.977 135.214 202.977 135.212 202.977 135.212C202.977 135.212 202.977 135.212 202.977 135.212C202.977 135.213 202.977 135.213 202.977 135.213C202.977 135.213 202.977 135.213 202.977 135.214C202.977 135.214 202.977 135.214 202.977 135.214C202.977 135.214 202.977 135.214 202.727 135.204C202.477 135.194 202.477 135.194 202.477 135.194C202.477 135.194 202.477 135.194 202.477 135.194C202.477 135.194 202.477 135.195 202.477 135.195C202.477 135.196 202.477 135.196 202.477 135.197C202.477 135.198 202.477 135.2 202.477 135.202C202.477 135.206 202.477 135.211 202.477 135.216C202.477 135.228 202.477 135.244 202.478 135.263C202.48 135.302 202.485 135.355 202.495 135.418C202.516 135.544 202.562 135.715 202.659 135.895C202.861 136.266 203.265 136.641 204.036 136.772L204.12 136.279ZM209.095 134.5C208.846 134.526 208.846 134.525 208.846 134.525C208.846 134.525 208.846 134.525 208.846 134.525C208.846 134.525 208.846 134.525 208.846 134.524C208.846 134.524 208.846 134.524 208.846 134.524C208.846 134.524 208.846 134.525 208.846 134.527C208.847 134.53 208.847 134.536 208.847 134.543C208.848 134.559 208.849 134.585 208.848 134.618C208.846 134.684 208.839 134.78 208.815 134.893C208.767 135.12 208.656 135.413 208.401 135.682C207.896 136.212 206.748 136.728 204.12 136.279L204.036 136.772C206.729 137.232 208.089 136.735 208.763 136.026C209.097 135.675 209.242 135.291 209.304 134.995C209.335 134.848 209.345 134.722 209.348 134.631C209.349 134.585 209.348 134.548 209.347 134.522C209.346 134.508 209.346 134.498 209.345 134.49C209.345 134.486 209.345 134.482 209.344 134.48C209.344 134.478 209.344 134.477 209.344 134.476C209.344 134.476 209.344 134.475 209.344 134.475C209.344 134.475 209.344 134.475 209.344 134.475C209.344 134.474 209.344 134.474 209.095 134.5ZM209.124 134.243L209.059 134.252L209.131 134.747L209.196 134.738L209.124 134.243ZM215.291 135.121C214.497 134.33 213.467 134.039 212.392 133.979C211.322 133.92 210.175 134.089 209.124 134.243L209.196 134.738C210.258 134.582 211.353 134.423 212.364 134.479C213.371 134.534 214.263 134.802 214.938 135.475L215.291 135.121ZM213.426 148.89C214.178 147.401 215.482 144.824 216.186 142.205C216.885 139.608 217.024 136.855 215.291 135.121L214.938 135.475C216.46 136.998 216.398 139.493 215.703 142.076C215.015 144.637 213.735 147.171 212.98 148.664L213.426 148.89ZM213.015 149.716C213.115 149.504 213.256 149.226 213.426 148.89L212.98 148.664C212.811 148.998 212.667 149.283 212.563 149.502L213.015 149.716ZM209.699 159.811C209.846 158.249 209.935 157.3 210.353 155.96C210.773 154.611 211.527 152.862 213.015 149.716L212.563 149.503C211.077 152.645 210.308 154.424 209.876 155.811C209.441 157.207 209.348 158.203 209.201 159.764L209.699 159.811ZM209.603 160.804C209.639 160.445 209.67 160.117 209.699 159.811L209.201 159.764C209.172 160.07 209.142 160.397 209.106 160.754L209.603 160.804ZM209.584 161.222C209.588 161.064 209.591 160.927 209.603 160.804L209.106 160.755C209.091 160.9 209.088 161.057 209.084 161.211L209.584 161.222ZM208.09 164.244C208.801 163.721 209.177 163.173 209.373 162.639C209.566 162.112 209.575 161.615 209.584 161.222L209.084 161.211C209.075 161.609 209.064 162.028 208.903 162.467C208.745 162.9 208.433 163.371 207.793 163.842L208.09 164.244ZM195.075 166.196C201.083 166.961 205.428 166.195 208.089 164.245L207.794 163.841C205.285 165.679 201.097 166.459 195.139 165.7L195.075 166.196ZM189.231 161.848C189.211 162.6 189.306 163.229 189.539 163.754C189.775 164.284 190.142 164.693 190.639 165.014C191.614 165.645 193.097 165.943 195.075 166.196L195.139 165.7C193.146 165.446 191.776 165.155 190.911 164.594C190.487 164.32 190.188 163.983 189.996 163.552C189.803 163.116 189.712 162.567 189.731 161.862L189.231 161.848ZM190.449 153.426C189.897 156.153 189.302 159.088 189.231 161.849L189.731 161.862C189.8 159.153 190.385 156.261 190.939 153.525L190.449 153.426ZM191.414 147.454C191.304 149.197 190.891 151.241 190.449 153.426L190.939 153.525C191.379 151.351 191.801 149.27 191.913 147.486L191.414 147.454ZM191.716 144.374C191.579 145.313 191.482 146.342 191.414 147.455L191.913 147.485C191.981 146.382 192.077 145.368 192.211 144.445L191.716 144.374Z" fill="#182849"/>
<path d="M174.517 121.251L170.51 122.729C170.51 122.729 171.002 124.258 171.529 124.837C171.977 125.336 172.612 125.816 173.461 126.173L175.948 125.034C175.948 125.034 175.921 123.945 175.957 123.677C176.01 123.268 175.429 121.693 175.429 121.693L174.517 121.251Z" fill="#FFF0E6"/>
<path d="M174.018 120.279C174.367 120.057 174.788 120.517 175.548 121.607C176.022 122.294 175.932 123.874 175.932 123.874L175.011 123.42L174.698 122.238C174.698 122.238 173.661 120.507 174.018 120.279Z" fill="#FFF0E6"/>
<path d="M170.518 122.753C170.518 122.753 170.107 121.66 170.062 121.288C170.035 121.007 170.116 120.437 170.223 120.169C170.259 120.077 170.402 119.911 170.554 119.9C170.759 119.886 170.813 119.975 170.84 120.094C170.912 120.351 170.92 121.145 170.92 121.145L171.663 122.593L170.518 122.753Z" fill="#FFF0E6"/>
<path d="M172.524 122.074L171.63 122.55C171.63 122.55 170.968 121.327 170.816 120.9C170.691 120.536 170.584 119.843 170.602 119.483C170.611 119.287 170.736 119.104 170.933 119.044C171.129 118.985 171.29 119.181 171.335 119.284C171.335 119.284 171.559 120.286 171.684 120.623C171.872 121.119 172.524 122.074 172.524 122.074Z" fill="#FFF0E6"/>
<path d="M172.594 122.046C172.594 122.046 171.914 120.858 171.745 120.444C171.584 120.04 171.235 119.463 171.181 118.962C171.145 118.696 171.297 118.525 171.494 118.493C171.718 118.457 171.914 118.642 171.986 118.805C171.986 118.805 172.442 119.733 172.621 120.113C172.818 120.523 173.623 121.662 173.623 121.662L172.594 122.046Z" fill="#FFF0E6"/>
<path d="M174.581 121.254L173.615 121.757C173.615 121.757 173.096 120.852 172.828 120.368C172.658 120.047 171.996 119.488 171.907 119.131C171.862 118.966 171.853 118.703 172.068 118.649C172.309 118.588 172.551 118.727 172.649 118.875C172.855 119.183 174.581 121.254 174.581 121.254Z" fill="#FFF0E6"/>
<path d="M209.127 121.913C212.275 121.412 215.495 124.011 216.326 125.291C216.818 126.053 217.078 126.976 216.711 128.303C216.103 130.486 215.155 131.509 214.663 131.988C213.366 133.261 211.917 133.227 210.45 133.972C209.717 134.343 207.901 133.628 207.32 132.98C207.159 132.795 206.819 132.204 207.24 131.455C207.499 130.984 207.553 130.444 207.526 129.862C207.49 128.988 205.138 130.259 204.923 129.614C204.476 128.247 205.925 122.423 209.127 121.913Z" fill="#182849"/>
<path d="M207.431 129.086C206.143 129.098 205.973 130.672 206.564 130.933C206.886 131.075 207.565 130.88 207.941 130.149C208.209 129.619 208.308 129.077 207.431 129.086Z" fill="#FFF0E6"/>
<path d="M207.243 129.641L206.93 130.425C207.109 130.543 207.448 130.177 207.547 129.935C207.636 129.693 207.466 129.572 207.243 129.641Z" fill="#EDD9C9"/>
<path d="M197.434 210.301C196.36 210.202 196.244 209.798 196.074 209.61C196.253 210.557 196.128 210.685 196.128 210.864C196.137 211.444 196.736 212.314 199.142 212.298C200.385 212.29 201.414 211.66 201.414 211.135C201.414 211.135 201.396 210.781 201.423 209.533C201.118 210.074 200.385 210.574 197.434 210.301Z" fill="#031655"/>
<path d="M207.385 206.311C206.428 206.172 206.356 205.804 206.222 205.628C206.312 206.486 206.195 206.594 206.178 206.755C206.142 207.274 206.625 208.082 208.78 208.182C209.898 208.234 210.855 207.718 210.891 207.247C210.891 207.246 210.9 206.93 211.016 205.812C210.703 206.283 210.014 206.696 207.385 206.311Z" fill="#031655"/>
<path d="M23.8477 96.6562C36.3672 96.4684 46.7957 113.622 48.7544 116.958C49.9528 118.994 49.4073 122.096 48.2356 124.146L45.785 128.42C45.785 128.42 25.8001 106.634 23.8477 96.6562Z" fill="#182849"/>
<path d="M45.785 128.42C45.785 128.42 40.5082 127.52 38.2186 128.989C28.1345 116.094 24.3601 103.46 23.8477 96.656C33.5481 96.656 45.785 128.42 45.785 128.42Z" fill="white"/>
<path d="M44.5741 128.879C44.5741 128.879 32.3372 97.115 22.6367 97.115C23.1492 103.919 26.9235 116.553 37.0077 129.448" stroke="#182849" stroke-linecap="round"/>
<defs>
<linearGradient id="paint0_linear_1770_34484" x1="95.439" y1="94.7047" x2="99.5867" y2="102.148" gradientUnits="userSpaceOnUse">
<stop stop-color="#0E448B"/>
<stop offset="1" stop-color="#01255C"/>
</linearGradient>
<linearGradient id="paint1_linear_1770_34484" x1="102.471" y1="90.787" x2="106.619" y2="98.2305" gradientUnits="userSpaceOnUse">
<stop stop-color="#0E448B"/>
<stop offset="1" stop-color="#01255C"/>
</linearGradient>
<linearGradient id="paint2_linear_1770_34484" x1="158.872" y1="263.773" x2="215.257" y2="301.437" gradientUnits="userSpaceOnUse">
<stop stop-color="#F9FAFC"/>
<stop offset="1" stop-color="#F3F5FA"/>
</linearGradient>
<linearGradient id="paint3_linear_1770_34484" x1="158.878" y1="263.772" x2="215.264" y2="301.437" gradientUnits="userSpaceOnUse">
<stop stop-color="#F0F1F6"/>
<stop offset="1" stop-color="#EAEDF4"/>
</linearGradient>
</defs>
</svg>
