<svg width="196" height="196" viewBox="0 0 196 196" fill="none" xmlns="http://www.w3.org/2000/svg">
<path fill-rule="evenodd" clip-rule="evenodd" d="M111.471 4.76541C128.766 8.43832 139.312 24.4198 153.21 35.3496C166.395 45.7186 183.696 51.8108 190.684 67.0601C198.046 83.1282 194.806 101.43 191.438 118.78C187.617 138.46 186.353 161.759 170.037 173.407C153.736 185.045 131.497 176.24 111.471 175.867C91.9345 175.502 71.4967 180.841 54.4717 171.251C36.4997 161.127 19.3439 143.765 17.949 123.185C16.5824 103.021 41.3144 91.2519 47.7512 72.0938C54.0739 53.2751 40.8569 28.8064 54.503 14.3875C68.0729 0.0492542 92.1605 0.664432 111.471 4.76541Z" fill="white" fill-opacity="0.05"/>
<path fill-rule="evenodd" clip-rule="evenodd" d="M101.952 0.877468C120.722 1.11965 130.754 22.7491 145.796 33.978C160.556 44.9964 180.692 49.6333 189.171 65.985C198.26 83.5133 197.17 104.546 192.311 123.684C187.2 143.819 178.052 163.724 161.256 175.949C144.453 188.179 121.909 195.25 101.952 189.451C83.2382 184.013 79.1244 158.898 63.3246 147.49C47.441 136.022 22.1534 140.016 11.0915 123.847C-0.699022 106.612 -3.93458 81.6109 5.51527 62.99C14.7786 44.7366 40.0693 43.9197 57.2781 32.8359C73.0572 22.673 83.1849 0.635321 101.952 0.877468Z" fill="white" fill-opacity="0.05"/>
<path d="M98.1708 36.1789L89.3622 31.5964C89.2846 31.5484 89.2033 31.5078 89.1221 31.4653L88.8783 31.3323L88.8654 31.3434C86.9666 30.466 84.4657 30.7006 81.7118 32.2909L45.5373 53.1755C39.6231 56.5907 34.8281 64.895 34.8281 71.7235V92.7706C34.8281 96.147 36.0028 98.526 37.9034 99.6601V99.6657L37.9367 99.6842C37.9663 99.7008 37.9958 99.7156 38.0254 99.7303L49.6359 105.698C49.7061 106.191 49.8077 106.459 50.1253 106.603L50.2306 106.672L50.2547 106.684C51.6344 107.436 52.122 107.7 52.1238 107.702L58.7529 111.406C58.7529 111.406 63.775 95.375 63.775 95.1256C63.775 94.8763 60.1105 90.5135 60.1105 90.5135L52.7519 98.5925L58.4703 89.9132C60.2583 87.1999 62.4932 84.9909 64.7983 83.661L78.1968 75.9256C84.111 72.5104 88.906 64.2061 88.906 57.3775V41.7737L98.1708 36.1789Z" fill="#CDE7FC"/>
<path d="M96.1094 36.842L97.1566 36.2104L97.0163 36.1384L96.1094 36.842Z" fill="#182849"/>
<path d="M88.4099 57.3773C88.4099 64.0359 83.7184 72.1648 77.9501 75.495L64.5516 83.2304C62.1892 84.5936 59.8804 86.871 58.0555 89.6397L52.3371 98.319L53.1202 98.9285L60.0947 91.2688C61.4929 92.9422 62.9076 94.6858 63.2493 95.1919C62.8966 96.4645 60.3107 104.771 58.4637 110.672L58.3104 110.587V103.086L56.6702 101.823L51.7921 104.555L49.5905 105.116L44.9526 102.732L43.4177 99.4826L43.1812 76.7344L44.1749 71.6587L36.0571 66.8933C37.5865 61.5258 41.3655 56.1582 45.7855 53.6075L81.96 32.7211C84.4553 31.2804 86.8325 30.9516 88.6573 31.7939L88.9344 31.9268C88.9935 31.9582 89.0508 31.9878 89.1339 32.0358L97.0171 36.1381L97.8815 35.4658L89.6178 31.1695C89.5458 31.127 89.4719 31.0864 89.3611 31.0292L88.82 30.7521L88.7941 30.7724C86.7161 29.9431 84.1266 30.3217 81.4631 31.8603L45.2887 52.7468C39.247 56.234 34.332 64.747 34.332 71.7233V92.7704C34.332 96.0951 35.4328 98.6348 37.4387 99.9536L37.7066 100.122L37.7657 100.153L37.7989 100.173L37.8469 100.196L49.186 106.025C49.2691 106.431 49.426 106.83 49.8582 107.022L50.176 107.207C51.2343 107.783 51.6776 108.023 51.8882 108.125L51.8808 108.134L58.8885 112.048L59.2283 111.553C64.2744 95.4505 64.2745 95.2233 64.2745 95.1254C64.2745 94.913 64.2745 94.6951 60.4918 90.1938L60.126 89.7597L56.6609 93.5628L58.8848 90.1864C60.6266 87.5433 62.8153 85.3785 65.0484 84.0912L78.4469 76.3557C84.4886 72.8667 89.4036 64.3536 89.4036 57.3773V42.0542L96.1102 36.8418L88.4099 41.4927V57.3773Z" fill="#182849"/>
<path d="M90.2977 36.7387L54.1232 57.6232C48.209 61.0384 43.4141 69.3409 43.4141 76.1713V97.2184C43.4141 104.047 48.209 106.814 54.1232 103.4L55.9056 102.37C57.2854 101.574 58.4028 102.22 58.4028 103.812V110.275C58.4028 112.155 60.2943 112.1 61.5558 110.185L70.5713 96.5036C72.3592 93.7902 74.5941 91.5812 76.8992 90.2495L90.2977 82.514C96.2119 79.1007 101.005 70.7964 101.005 63.9678V42.9207C101.005 36.0922 96.2119 33.3235 90.2977 36.7387Z" fill="#CDE7FC"/>
<path d="M67.6833 77.2922C67.8809 76.7991 68.0583 76.3023 68.2042 75.8017L68.219 75.7555L68.243 75.6632C68.5755 74.5106 68.7361 73.4504 68.7361 72.3514C68.7361 67.7208 65.4835 65.8442 61.4736 68.1604C57.4618 70.4748 54.2109 76.1065 54.2109 80.7389C54.2109 81.8379 54.3975 82.7743 54.7319 83.5445L54.8205 83.7403L54.743 83.5741C54.8889 83.9065 55.0643 84.1984 55.2638 84.4625L58.7141 90.3546C58.7178 90.3638 58.7824 90.4691 58.7861 90.4802L58.9043 90.6797L58.9616 90.7536C59.4677 91.4628 60.3968 91.605 61.4736 90.9844C62.5486 90.3638 63.4795 89.1466 63.9837 87.8537L64.0521 87.6856L64.1444 87.4215C64.15 87.403 64.1574 87.3864 64.1629 87.366L67.6833 77.2922Z" fill="#F9FCFF"/>
<path d="M54.2386 81.0013C54.3476 81.2211 54.475 81.4298 54.6265 81.6293L58.2984 87.8945C58.8654 88.6758 59.8093 88.2399 60.1916 88.0182C61.1225 87.4826 62.0036 86.3781 62.4875 85.1368L62.6409 84.7231L66.189 74.5717C66.3885 74.0767 66.5565 73.5909 66.6914 73.1273L66.7302 72.9907C67.0552 71.8695 67.2049 70.861 67.2049 69.8174C67.2049 67.7616 66.538 66.2452 65.3264 65.5452C64.1147 64.847 62.469 65.0262 60.6885 66.055C56.8207 68.2862 53.6734 73.7369 53.6734 78.203C53.6734 79.1986 53.8359 80.0759 54.1536 80.811L54.2386 81.0013ZM59.1425 89.3425C58.4886 89.3425 57.9179 89.06 57.5245 88.5059L57.3232 88.1937C57.2715 88.1087 57.2289 88.0311 57.2252 88.0219L53.8008 82.1797C53.6013 81.9174 53.4074 81.5868 53.2541 81.2396H53.256L53.2449 81.2137C52.8681 80.3456 52.6797 79.3353 52.6797 78.203C52.6797 73.421 56.0505 67.5843 60.1916 65.1942C62.2899 63.9826 64.2903 63.7997 65.8233 64.6863C67.3564 65.5692 68.1986 67.3922 68.1986 69.8174C68.1986 70.957 68.036 72.0523 67.6851 73.2659L67.6537 73.3896C67.5041 73.8975 67.3249 74.411 67.1144 74.9319L63.4129 85.5026C62.8403 86.9617 61.8207 88.2251 60.6885 88.879C60.151 89.1893 59.6227 89.3425 59.1425 89.3425Z" fill="#182849"/>
<path d="M65.2406 73.3247C65.2406 75.7296 63.5525 78.6535 61.4709 79.8559C59.3874 81.0583 57.6992 80.0831 57.6992 77.6782C57.6992 75.2734 59.3874 72.3477 61.4709 71.1471C63.5525 69.9447 65.2406 70.9199 65.2406 73.3247Z" fill="#CDE7FC"/>
<path d="M62.1212 69.6362C61.6927 69.6362 61.205 69.7877 60.6879 70.0851C58.7448 71.2081 57.1656 73.9454 57.1656 76.1877C57.1656 77.1666 57.4685 77.8796 58.0207 78.1992C58.5748 78.5187 59.3432 78.4245 60.191 77.935C62.1341 76.8139 63.7133 74.0765 63.7133 71.8324C63.7133 70.8553 63.4104 70.1423 62.8581 69.8228C62.642 69.6972 62.3927 69.6362 62.1212 69.6362ZM58.754 79.3794C58.3089 79.3794 57.8951 79.2723 57.5239 79.0599C56.6521 78.5556 56.1719 77.536 56.1719 76.1877C56.1719 73.5852 57.9358 70.5265 60.191 69.2262C61.3583 68.5502 62.4795 68.4578 63.355 68.9621C64.2268 69.4663 64.7071 70.4859 64.7071 71.8324C64.7071 74.4367 62.9413 77.4936 60.6879 78.7957C60.0155 79.1836 59.3562 79.3794 58.754 79.3794Z" fill="#182849"/>
<path d="M93.9864 60.9405C93.9864 67.1964 89.5941 74.8044 84.1748 77.9333C78.7574 81.0604 74.3633 78.5243 74.3633 72.2684C74.3633 66.0124 78.7574 58.4026 84.1748 55.2756C89.5941 52.1467 93.9864 54.6827 93.9864 60.9405Z" fill="#F9FCFF"/>
<path d="M87.5237 51.8935C86.2677 51.8935 84.8602 52.3221 83.3918 53.1699C78.1185 56.2138 73.8296 63.6445 73.8296 69.7323C73.8296 72.5749 74.7624 74.6769 76.4543 75.654C78.1499 76.6329 80.4347 76.3873 82.895 74.9669C88.1683 71.923 92.4571 64.4923 92.4571 58.4044C92.4571 55.5636 91.5244 53.4599 89.8325 52.4828C89.1491 52.0894 88.3715 51.8935 87.5237 51.8935ZM78.7613 77.2388C77.7417 77.2388 76.796 76.9986 75.9574 76.5147C73.946 75.3529 72.8359 72.9444 72.8359 69.7323C72.8359 63.3286 77.3483 55.5119 82.895 52.311C85.6748 50.704 88.3142 50.4602 90.3293 51.622C92.3426 52.7857 93.4508 55.1942 93.4508 58.4044C93.4508 64.8099 88.9385 72.6248 83.3918 75.8276C81.7682 76.7659 80.1909 77.2388 78.7613 77.2388Z" fill="#182849"/>
<path d="M85.7094 65.4158C85.7094 64.858 85.532 64.4997 85.1719 64.3427C84.8135 64.1857 84.2447 64.2005 83.467 64.387V69.0268C84.1597 68.541 84.7083 67.9777 85.1091 67.3386C85.5099 66.7014 85.7094 66.0586 85.7094 65.4158ZM80.7279 62.3331C80.7279 62.8983 80.8904 63.2677 81.2136 63.4395C81.5387 63.6149 82.0596 63.6205 82.7762 63.4561V58.9936C82.0983 59.4886 81.5886 60.0335 81.2432 60.6264C80.8996 61.2175 80.7279 61.7882 80.7279 62.3331ZM86.6477 64.9134C86.6477 65.7871 86.3669 66.6626 85.8035 67.5399C85.2402 68.4173 84.4608 69.2134 83.467 69.9319V72.2573L82.7762 72.6562V70.3714C82.2516 70.6596 81.681 70.9163 81.0641 71.138C80.4472 71.3596 79.9576 71.476 79.5938 71.4889V70.4749C80.0186 70.4656 80.5302 70.3696 81.125 70.1923C81.7179 70.0131 82.2683 69.7767 82.7762 69.4849V64.4794C81.9506 64.6678 81.3393 64.7324 80.9421 64.6733C80.5432 64.6142 80.2532 64.4387 80.0703 64.1506C79.8893 63.8624 79.7988 63.4339 79.7988 62.8687C79.7988 62.056 80.0666 61.2156 80.6041 60.3493C81.1416 59.4849 81.8656 58.724 82.7762 58.0664V56.175L83.467 55.7761V57.649C84.5864 57.0616 85.5856 56.7218 86.4611 56.6294L86.1804 57.6785C85.3769 57.7339 84.4737 58.0184 83.467 58.5356V63.3213C84.6769 63.0571 85.5117 63.0479 85.9661 63.2973C86.4204 63.5466 86.6477 64.086 86.6477 64.9134Z" fill="#182849"/>
<path d="M90.5582 39.6402C93.1755 38.1293 95.5693 37.8338 97.4292 38.5597L89.1397 34.2339L89.1249 34.245C87.228 33.3695 84.7253 33.6041 81.9713 35.1925L45.7969 56.079C43.7078 57.2851 41.7648 59.1063 40.1172 61.2525L48.4548 66.0198C50.1522 63.7331 52.1894 61.7919 54.3837 60.5248L90.5582 39.6402Z" fill="#F9FCFF"/>
<path d="M57.024 101.531C57.3491 101.531 57.652 101.609 57.9235 101.766C58.5552 102.13 58.9043 102.857 58.9043 103.812V110.275C58.9043 110.55 58.956 111.031 59.3051 111.134C59.7244 111.26 60.5094 110.874 61.143 109.911L70.1584 96.2302C71.9833 93.4614 74.2903 91.1859 76.6545 89.8191L90.0511 82.0836C95.8194 78.7553 100.511 70.6264 100.511 63.9678V42.9207C100.511 39.8029 99.4858 37.4941 97.624 36.4191C95.7622 35.3441 93.2483 35.6082 90.5479 37.1689L54.3754 58.0535C48.607 61.3838 43.9156 69.5108 43.9156 76.1712V97.2183C43.9156 100.334 44.9407 102.645 46.8025 103.72C48.6662 104.795 51.18 104.529 53.8785 102.97L55.6609 101.939C56.1319 101.668 56.5955 101.531 57.024 101.531ZM59.4714 112.15C59.3162 112.15 59.1648 112.13 59.0189 112.085C58.3244 111.878 57.9107 111.2 57.9107 110.275V103.812C57.9107 103.236 57.7352 102.804 57.4267 102.627C57.1182 102.449 56.6583 102.514 56.1578 102.8L54.3754 103.829C51.3555 105.573 48.4907 105.838 46.3056 104.581C44.1224 103.319 42.9219 100.706 42.9219 97.2183V76.1712C42.9219 69.1949 47.8368 60.6801 53.8785 57.1928L90.0511 36.3082C93.0692 34.5646 95.9358 34.2968 98.1208 35.5583C100.302 36.818 101.505 39.4335 101.505 42.9207V63.9678C101.505 70.9441 96.5896 79.4571 90.5479 82.9444L77.1513 90.6798C74.9164 91.9691 72.7295 94.1338 70.9896 96.7751L61.9742 110.458C61.2741 111.518 60.3191 112.15 59.4714 112.15Z" fill="#182849"/>
<path d="M73.5161 122.62C87.465 97.532 97.391 103.882 103.56 107.443C109.729 111.006 122.406 101.982 126.092 72.752C130.115 40.8498 153.007 24.3797 153.007 24.3797L164.598 31.3708L157.498 53.0422L153.007 59.3609V111.108L81.4584 152.417L77.068 161.244L64.8793 175.671L53.2891 168.68C53.2891 168.68 59.5672 147.711 73.5161 122.62Z" fill="#CDE7FC"/>
<path d="M73.5197 127.443C87.4686 102.355 97.3946 108.703 103.564 112.266C109.733 115.827 122.409 106.802 126.096 77.5747C130.119 45.6706 153.011 29.2023 153.011 29.2023L164.601 36.1934L157.501 57.863L153.011 64.1817V115.93L81.462 157.24L77.0716 166.067L72.0513 172.007L54.6133 169.478C54.6133 169.478 59.5708 152.532 73.5197 127.443Z" fill="#F9FCFF"/>
<path d="M54.2479 168.318C55.3838 164.729 61.7709 145.405 74.2237 123.012C74.6503 122.243 75.0752 121.512 75.5 120.794C75.6515 120.535 75.8047 120.286 75.9562 120.033C76.2277 119.587 76.4955 119.153 76.7652 118.727C76.948 118.439 77.1309 118.147 77.3119 117.868C77.5686 117.474 77.8236 117.099 78.0785 116.724C78.4146 116.231 78.7507 115.755 79.0851 115.291C79.2864 115.016 79.4859 114.737 79.6872 114.471C79.9126 114.172 80.1361 113.884 80.3614 113.599C80.5646 113.341 80.7677 113.09 80.9709 112.844C81.1741 112.596 81.3773 112.351 81.5805 112.114C81.9757 111.656 82.3709 111.211 82.7644 110.797C82.8142 110.744 82.866 110.698 82.9159 110.644C83.3259 110.217 83.7378 109.813 84.1479 109.432C84.1885 109.395 84.231 109.358 84.2716 109.32C88.4755 105.485 92.6314 104.129 96.8186 105.203L109.401 112.423C110.215 114.187 115.433 125.443 117.989 130.396L80.8472 151.841L76.3921 160.799L64.7095 174.628L54.2479 168.318ZM152.204 59.104V110.642L119.386 129.589C116.632 124.246 110.817 111.647 110.755 111.514L110.647 111.279L106.619 108.98C107.849 108.941 109.151 108.597 110.468 107.944C113.47 106.453 123.531 99.5155 126.892 72.8534C130.525 44.0561 149.954 27.7854 153.063 25.3529L163.636 31.7289L156.772 52.6744L152.204 59.104ZM52.3398 169.046L64.8813 176.611L65.404 176.299L77.7903 161.602L82.0736 152.993L153.815 111.571V59.6175L158.266 53.2913L165.405 31.4962V30.9162L152.971 23.4172L152.539 23.7256C152.308 23.8937 129.316 40.7684 125.295 72.6521C122.703 93.2042 115.566 103.614 109.752 106.501C107.598 107.571 105.544 107.657 103.965 106.747L103.632 106.555C101.881 105.541 99.7739 104.325 97.3377 103.675L97.3321 103.673C97.3265 103.671 97.321 103.671 97.3155 103.67C95.3077 103.138 93.0765 102.988 90.6328 103.664C85.6901 105.027 80.8361 109.451 75.8823 117.109C75.8731 117.122 75.8638 117.136 75.8564 117.149C75.4076 117.842 74.9588 118.566 74.5081 119.312C74.4139 119.469 74.3197 119.624 74.2255 119.783C73.7563 120.574 73.2854 121.381 72.8144 122.231C58.9837 147.107 52.5818 168.239 52.519 168.449L52.3398 169.046Z" fill="#182849"/>
<path d="M164.601 118.099V31.3708C164.601 31.3708 141.709 47.8409 137.686 79.7431C133.999 108.973 121.323 117.995 115.154 114.434C108.983 110.871 99.0588 104.523 85.1099 129.612C71.161 154.7 64.8828 175.671 64.8828 175.671L164.601 118.099Z" fill="#CDE7FC"/>
<path d="M163.794 33.0366C158.957 37.0576 141.87 52.9921 138.482 79.8445C135.12 106.507 125.06 113.444 122.056 114.935C119.402 116.252 116.811 116.32 114.748 115.131L114.413 114.938C111.299 113.136 107.415 110.892 102.649 112.207C97.2061 113.708 91.5412 119.696 85.8116 130.003C74.504 150.341 68.1982 168.144 66.2847 173.931L163.794 117.633V33.0366ZM64.1088 175.44C64.1716 175.23 70.5716 154.098 84.4023 129.222C90.4348 118.372 96.2641 112.297 102.221 110.655C107.64 109.159 112.025 111.693 115.22 113.546L115.555 113.738C117.132 114.648 119.186 114.56 121.341 113.492C127.154 110.605 134.291 100.197 136.884 79.6432C140.905 47.7594 163.897 30.883 164.128 30.7167L164.561 30.4064L165.405 30.9162V118.562L64.8809 176.611L63.9297 176.039L64.1088 175.44Z" fill="#182849"/>
<path d="M97.7702 148.045C108.668 128.444 116.422 133.405 121.243 136.189C126.063 138.97 135.967 131.92 138.847 109.085C141.99 84.1611 159.875 71.2927 159.875 71.2927L168.93 76.7544L163.383 93.6844L159.875 98.6216V139.052L103.975 171.325L100.546 178.22L91.023 189.493L81.9688 184.031C81.9688 184.031 86.8726 167.648 97.7702 148.045Z" fill="#CDE7FC"/>
<path d="M97.7704 152.402C108.668 132.799 116.422 137.761 121.243 140.544C126.064 143.326 135.967 136.276 138.847 113.441C141.991 88.5165 159.876 75.6481 159.876 75.6481L168.93 81.1098L163.383 98.0399L159.876 102.977V143.407L103.975 175.681L100.547 182.577L97.7133 185.928L82.9258 185.547C82.9258 185.547 86.8729 172.003 97.7704 152.402Z" fill="#F9FCFF"/>
<path d="M82.9275 183.667C83.9194 180.559 88.899 165.66 98.4759 148.437C98.8103 147.838 99.1409 147.266 99.4733 146.706C99.5842 146.518 99.6931 146.337 99.804 146.154C100.027 145.784 100.249 145.428 100.471 145.077C100.598 144.874 100.728 144.671 100.855 144.475C101.091 144.109 101.328 143.758 101.566 143.413C101.753 143.139 101.939 142.875 102.126 142.615C102.331 142.329 102.536 142.044 102.741 141.771C102.89 141.573 103.04 141.381 103.19 141.191C103.38 140.949 103.568 140.714 103.759 140.485C103.89 140.326 104.019 140.166 104.15 140.014C104.832 139.222 105.511 138.505 106.187 137.879C106.197 137.87 106.208 137.861 106.217 137.851C108.727 135.539 111.211 134.375 113.692 134.34C113.725 134.338 113.76 134.336 113.794 134.336C114.069 134.336 114.344 134.359 114.619 134.384C114.759 134.401 114.9 134.416 115.037 134.436C115.255 134.469 115.472 134.51 115.689 134.56C115.779 134.582 115.868 134.606 115.956 134.63L125.67 140.203C126.37 141.714 130.284 150.155 132.283 154.052L103.363 170.749L99.8705 177.777L90.8532 188.448L82.9275 183.667ZM159.07 98.367V138.586L133.679 153.246C131.499 148.987 127.072 139.397 127.024 139.294L126.917 139.061L124.209 137.515C125.024 137.415 125.868 137.161 126.719 136.738C129.085 135.563 137.009 130.105 139.647 109.185C142.443 87.0298 157.247 74.3923 159.931 72.2663L167.966 77.113L162.657 93.319L159.07 98.367ZM81.0195 184.397L91.025 190.433L91.5458 190.121L101.269 178.581L104.59 171.902L160.683 139.516V98.8786L164.15 93.9359L169.737 76.884V76.3003L159.839 70.3306L159.406 70.6409C159.225 70.7721 141.202 84.0006 138.049 108.984C136.032 124.974 130.504 133.06 126.003 135.295C124.375 136.104 122.827 136.172 121.647 135.493L121.389 135.341C120.009 134.541 118.348 133.585 116.424 133.073V133.071H116.422C114.826 132.646 113.049 132.528 111.097 133.066C107.198 134.141 103.376 137.613 99.4844 143.623C99.4752 143.638 99.4642 143.655 99.4549 143.67C99.1058 144.209 98.7568 144.77 98.4077 145.35C98.3301 145.48 98.2507 145.607 98.1731 145.738C97.8055 146.357 97.438 146.991 97.0686 147.655C86.2541 167.107 81.2467 183.634 81.1968 183.799L81.0195 184.397Z" fill="#182849"/>
<path d="M168.93 144.512V76.7544C168.93 76.7544 151.045 89.6209 147.901 114.547C145.022 137.382 135.118 144.432 130.297 141.65C125.478 138.867 117.724 133.906 106.827 153.507C95.9274 173.108 91.0234 189.493 91.0234 189.493L168.93 144.512Z" fill="#CDE7FC"/>
<path d="M175.196 151.021V83.2636C175.196 83.2636 157.311 96.1301 154.167 121.054C151.288 143.889 141.384 150.941 136.565 148.158C131.744 145.374 123.99 140.413 113.092 160.016C102.195 179.617 97.2891 196 97.2891 196L175.196 151.021Z" fill="#182849"/>
<path d="M168.127 78.4355C164.021 81.9264 151.274 94.2555 148.703 114.647C146.066 135.565 138.14 141.023 135.774 142.199C133.648 143.256 131.561 143.308 129.897 142.347L129.636 142.197C127.229 140.803 124.237 139.07 120.58 140.081C116.376 141.241 111.984 145.89 107.533 153.898C98.9751 169.292 94.086 182.823 92.4347 187.749L168.127 144.048V78.4355ZM90.2533 189.26C90.3032 189.096 95.3087 172.568 106.123 153.117C110.861 144.597 115.451 139.824 120.152 138.527C124.461 137.34 127.918 139.34 130.443 140.803L130.702 140.953C131.882 141.634 133.43 141.564 135.057 140.757C139.558 138.522 145.089 130.435 147.106 114.446C150.257 89.4624 168.28 76.232 168.461 76.1008L168.893 75.7905L169.737 76.3003V144.977L91.0254 190.433L90.0742 189.859L90.2533 189.26Z" fill="#182849"/>
</svg>
