<svg width="261" height="182" viewBox="0 0 261 182" fill="none" xmlns="http://www.w3.org/2000/svg">
<path fill-rule="evenodd" clip-rule="evenodd" d="M251.837 85.934C247.701 99.1214 234.484 106.146 224.952 116.154C215.908 125.648 209.888 138.661 197.505 142.971C184.457 147.513 170.454 143.639 157.201 139.735C142.169 135.307 124.131 132.602 116.273 119.044C108.422 105.498 116.917 88.8431 118.688 73.2868C120.416 58.1104 117.772 41.8112 126.493 29.2715C135.7 16.0341 150.479 3.96706 166.597 4.4028C182.39 4.82974 189.72 24.9458 204.153 31.371C218.33 37.6823 238.348 29.2055 248.56 40.8906C258.715 52.5104 256.456 71.2096 251.837 85.934Z" fill="white" fill-opacity="0.05"/>
<path fill-rule="evenodd" clip-rule="evenodd" d="M155.564 108.813C153.988 123.401 136.415 129.609 126.565 140.485C116.899 151.157 111.803 166.483 98.4512 171.873C84.1391 177.65 67.8521 175.247 53.3186 170.052C38.0277 164.586 23.2136 155.995 14.9421 142.021C6.66694 128.042 2.8302 109.975 8.81836 94.8739C14.4335 80.713 34.2814 79.3681 44.3269 67.9161C54.4255 56.4034 53.1866 36.4297 66.587 29.0166C80.8701 21.1152 100.565 20.4453 114.357 29.1755C127.877 37.7334 126.643 57.4746 133.997 71.6857C140.739 84.7159 157.14 94.2262 155.564 108.813Z" fill="white" fill-opacity="0.05"/>
<path d="M230.562 50.6108C229.057 51.4781 228.207 52.5648 227.995 53.6974C225.766 58.6922 220.166 56.9473 220.166 56.9473L200.501 45.5957L180.836 56.9473C180.836 56.9473 177.816 60.1819 186.469 61.4676C188.43 61.59 190.31 62.0824 191.815 62.9497C195.315 64.97 195.315 68.2454 191.815 70.2658C188.315 72.2861 182.642 72.2861 179.142 70.2658C177.637 69.3985 176.785 68.3118 176.576 67.1792C174.347 62.1844 168.747 63.9293 168.747 63.9293L149.082 75.2809L168.747 86.6352C168.747 86.6352 171.768 89.8672 163.115 91.1554C161.153 91.2779 159.273 91.7676 157.768 92.6375C154.268 94.6578 154.268 97.9333 157.768 99.9536C161.268 101.974 166.941 101.974 170.441 99.9536C171.946 99.0837 172.796 97.9996 173.007 96.867C175.237 91.8722 180.836 93.6145 180.836 93.6145L200.501 104.969L220.166 93.6145C220.166 93.6145 223.187 90.3825 214.534 89.0942C212.572 88.9743 210.692 88.482 209.187 87.6147C205.687 85.5944 205.687 82.319 209.187 80.2961C212.687 78.2757 218.36 78.2757 221.86 80.2961C223.365 81.1659 224.217 82.2501 224.427 83.3852C226.656 88.38 232.255 86.6352 232.255 86.6352L251.921 75.2809L232.255 63.9293C232.255 63.9293 229.235 60.6947 237.888 59.409C239.85 59.2865 241.73 58.7942 243.235 57.9269C246.735 55.9066 246.735 52.6311 243.235 50.6108C239.735 48.5905 234.061 48.5905 230.562 50.6108Z" fill="#CDE7FC"/>
<path d="M178.721 84.2169C179.652 84.2169 180.496 84.3648 181.137 84.5638L200.501 95.7165L219.492 84.7526C219.584 84.6123 219.732 84.3291 219.63 84.0613C219.515 83.745 218.796 82.6659 214.385 82.0104C212.281 81.8854 210.278 81.3267 208.682 80.4058C206.664 79.24 205.549 77.6278 205.549 75.8702C205.549 74.1126 206.664 72.5004 208.682 71.3347C212.526 69.1255 218.533 69.1281 222.365 71.3347C224.089 72.3295 225.145 73.6382 225.421 75.1152C227.194 79.0206 231.762 77.6457 231.956 77.5845L249.9 67.1945L231.518 56.5341C231.079 56.0648 230.451 54.9423 230.88 53.7153C231.467 52.0292 233.709 50.9221 237.737 50.3226C239.703 50.1976 241.402 49.7308 242.729 48.963C244.094 48.1773 244.846 47.19 244.846 46.185C244.846 45.1774 244.094 44.1876 242.729 43.3968C239.568 41.5755 234.227 41.5729 231.066 43.3993C229.887 44.0804 229.15 44.9299 228.99 45.7947C226.865 50.621 222.102 50.5216 219.865 49.8303L200.501 38.675L181.509 49.6415C181.417 49.7793 181.272 50.065 181.371 50.3354C181.486 50.6491 182.205 51.7282 186.616 52.3838C188.718 52.5088 190.723 53.0674 192.32 53.9883C194.338 55.1541 195.45 56.7637 195.45 58.5239C195.45 60.2815 194.338 61.8911 192.32 63.0569C188.483 65.2736 182.473 65.2762 178.637 63.0543C176.912 62.062 175.856 60.7559 175.581 59.2789C173.81 55.376 169.239 56.7459 169.045 56.8096L151.099 67.197L169.484 77.86C169.923 78.3293 170.55 79.4517 170.122 80.6787C169.535 82.3624 167.293 83.472 163.265 84.0715C161.298 84.1939 159.599 84.6633 158.273 85.4286C156.908 86.2168 156.155 87.204 156.153 88.2091C156.153 89.2167 156.905 90.204 158.273 90.9922C161.433 92.8212 166.78 92.8161 169.935 90.9922C171.114 90.3136 171.851 89.4642 172.012 88.5969C173.53 85.1505 176.394 84.2169 178.721 84.2169ZM200.501 98.0481L180.33 86.4056C180.343 86.4133 179.68 86.2194 178.675 86.2194C177.18 86.2194 175.042 86.699 173.93 89.1938C173.726 90.4437 172.67 91.7524 170.946 92.7447C167.112 94.9563 161.102 94.9589 157.262 92.7447C155.245 91.5789 154.13 89.9667 154.13 88.2091C154.132 86.4515 155.245 84.8419 157.262 83.6761C158.859 82.7552 160.862 82.1966 163.053 82.0639C167.514 81.3956 168.134 80.2374 168.213 80.013C168.308 79.7477 168.16 79.4645 168.071 79.3268L147.059 67.197L168.239 54.9679C170.68 54.1847 175.443 54.0852 177.499 58.6846C177.731 59.7866 178.45 60.6156 179.647 61.3044C182.807 63.1334 188.149 63.1283 191.31 61.3044C192.674 60.5187 193.427 59.5289 193.427 58.5239C193.427 57.5188 192.674 56.529 191.31 55.7408C189.983 54.9755 188.284 54.5061 186.404 54.3914C182.29 53.7842 180.047 52.6746 179.461 50.9909C179.032 49.7639 179.66 48.6441 180.096 48.1747L180.33 47.9885L200.501 36.3435L220.671 47.9885C220.674 48.0013 221.322 48.1773 222.327 48.1747C223.821 48.1747 225.959 47.6951 227.071 45.2003C227.278 43.9504 228.331 42.6417 230.056 41.6468C233.892 39.4352 239.903 39.4352 243.739 41.6468C245.757 42.8152 246.869 44.4274 246.869 46.185C246.869 47.9426 245.754 49.5522 243.739 50.718C242.142 51.6389 240.14 52.195 237.948 52.3302C233.487 52.9985 232.867 54.1567 232.788 54.3811C232.694 54.6464 232.841 54.9271 232.931 55.0674L253.94 67.1945L232.762 79.4263C230.321 80.2068 225.556 80.3089 223.503 75.7095C223.27 74.6075 222.554 73.7785 221.355 73.0872C218.199 71.2607 212.855 71.2607 209.692 73.0872C208.327 73.8754 207.572 74.8652 207.572 75.8702C207.572 76.8753 208.327 77.8651 209.692 78.6533C211.018 79.4186 212.717 79.8854 214.597 80.0028C218.712 80.6099 220.954 81.7195 221.541 83.4032C221.969 84.6302 221.342 85.75 220.906 86.2194L220.671 86.4056L200.501 98.0481Z" fill="#101820"/>
<path d="M143.521 140.432L163.186 129.078L143.524 117.723C143.524 117.723 137.922 115.981 135.692 120.976C135.483 122.108 134.631 123.193 133.126 124.062C129.629 126.083 123.953 126.083 120.453 124.062C116.955 122.042 116.955 118.767 120.453 116.746C121.958 115.876 123.838 115.387 125.8 115.264C134.452 113.976 131.432 110.744 131.432 110.744L111.767 99.3898L92.1017 110.744C92.1017 110.744 86.5024 112.489 84.2729 107.494C84.0637 106.359 83.2117 105.275 81.7067 104.405C78.2068 102.385 72.5334 102.385 69.0335 104.407C65.5362 106.425 65.5362 109.703 69.0335 111.724C70.5386 112.591 72.4186 113.083 74.3803 113.206C83.0331 114.491 80.0128 117.723 80.0128 117.723L60.3477 129.078L80.0128 140.432C80.0128 140.432 85.6121 142.174 87.8416 137.179C88.0508 136.047 88.9028 134.963 90.4079 134.093C93.9077 132.072 99.5811 132.072 103.081 134.093C106.581 136.113 106.581 139.388 103.081 141.409C101.576 142.279 99.6959 142.771 97.7342 142.891C89.0814 144.179 92.1017 147.411 92.1017 147.411L111.767 158.765L131.432 147.411C131.432 147.411 137.031 145.669 139.261 150.664C139.473 151.796 140.322 152.88 141.827 153.75C145.327 155.771 151 155.771 154.5 153.75C158 151.73 158 148.454 154.5 146.432C152.995 145.564 151.115 145.072 149.153 144.952C140.501 143.664 143.521 140.432 143.521 140.432Z" fill="#CDE7FC"/>
<path d="M92.7772 138.552L111.766 149.516L130.926 138.45C133.365 137.672 138.133 137.567 140.186 142.166C140.416 143.268 141.135 144.097 142.332 144.789C145.492 146.618 150.831 146.613 153.995 144.789C155.362 144.001 156.114 143.011 156.114 142.006C156.114 141.001 155.362 140.011 153.995 139.223C152.668 138.457 150.972 137.99 149.089 137.873C144.974 137.266 142.732 136.159 142.145 134.473C141.717 133.248 142.347 132.126 142.783 131.657L143.018 131.47L161.165 120.994L143.018 110.514C143.036 110.522 142.367 110.328 141.362 110.328C139.865 110.328 137.73 110.808 136.615 113.303C136.411 114.552 135.355 115.856 133.63 116.851C129.791 119.073 123.784 119.07 119.947 116.851C117.929 115.688 116.817 114.078 116.817 112.318C116.817 110.56 117.929 108.951 119.947 107.787C121.544 106.864 123.547 106.305 125.738 106.17C130.199 105.502 130.822 104.346 130.901 104.122C130.995 103.856 130.847 103.576 130.758 103.435L111.766 92.4715L92.6088 103.535C90.1701 104.321 85.405 104.42 83.3489 99.8183C83.1168 98.7163 82.4 97.8872 81.2011 97.1959C78.0481 95.3745 72.7038 95.372 69.5381 97.1959C68.1734 97.9867 67.4183 98.9739 67.4183 99.979C67.4183 100.984 68.1734 101.971 69.5381 102.762C70.8646 103.527 72.5611 103.994 74.4462 104.109C78.5583 104.719 80.8006 105.828 81.3873 107.512C81.8184 108.736 81.1883 109.859 80.752 110.328L80.5174 110.514L62.3675 120.994L80.5174 131.47C80.525 131.488 81.1679 131.657 82.173 131.657C83.6678 131.657 85.8054 131.179 86.9176 128.685C87.1217 127.432 88.1779 126.126 89.9023 125.131C93.7389 122.92 99.7489 122.92 103.586 125.131C105.603 126.3 106.716 127.909 106.716 129.667C106.716 131.427 105.601 133.034 103.586 134.2C101.989 135.121 99.9861 135.679 97.7949 135.812C93.3333 136.483 92.7134 137.638 92.6343 137.863C92.5399 138.131 92.6879 138.411 92.7772 138.552ZM111.766 151.847L91.364 140.016C90.9252 139.549 90.2977 138.424 90.7262 137.197C91.313 135.514 93.5552 134.406 97.5831 133.804C99.5499 133.682 101.249 133.213 102.575 132.447C103.94 131.659 104.693 130.674 104.693 129.667C104.693 128.659 103.94 127.669 102.575 126.881C99.4173 125.06 94.0756 125.057 90.9124 126.884C89.7339 127.562 88.9967 128.412 88.836 129.279C86.711 134.108 81.9484 134.003 79.7112 133.312L58.3242 120.994L79.3388 108.861C79.4306 108.724 79.5761 108.438 79.4766 108.167C79.3618 107.854 78.6424 106.775 74.2318 106.119C72.1273 105.992 70.1223 105.433 68.528 104.512C66.5102 103.346 65.3955 101.737 65.3955 99.979C65.3955 98.2214 66.5102 96.6117 68.528 95.4459C72.3722 93.2292 78.3797 93.2317 82.2112 95.4459C83.9357 96.4408 84.9918 97.7469 85.2673 99.2239C87.0223 103.091 91.6089 101.752 91.8053 101.693L111.766 90.1375L132.171 101.969C132.608 102.438 133.238 103.56 132.806 104.787C132.22 106.471 129.977 107.578 125.952 108.18C123.98 108.305 122.286 108.769 120.96 109.537C119.593 110.326 118.838 111.313 118.838 112.318C118.838 113.323 119.593 114.313 120.96 115.101C124.118 116.927 129.462 116.927 132.62 115.101C133.819 114.41 134.536 113.583 134.697 112.706C136.822 107.877 141.589 107.981 143.821 108.675L165.206 120.994L144.199 133.123C144.105 133.269 143.957 133.547 144.056 133.817C144.174 134.131 144.89 135.21 149.301 135.866C151.405 135.993 153.408 136.549 155.005 137.473C157.025 138.638 158.135 140.248 158.135 142.006C158.135 143.763 157.025 145.375 155.005 146.539C151.168 148.755 145.158 148.761 141.321 146.539C139.597 145.546 138.544 144.238 138.265 142.761C136.495 138.858 131.926 140.23 131.733 140.294L111.766 151.847Z" fill="#101820"/>
<path d="M90.4053 74.7197C88.9003 75.587 88.0508 76.6737 87.8391 77.8063C85.6095 82.8011 80.0102 81.0562 80.0102 81.0562L60.3451 69.7046L40.6798 81.0562C40.6798 81.0562 37.6596 84.2909 46.3123 85.5765C48.274 85.699 50.154 86.1913 51.6591 87.0586C55.159 89.0789 55.159 92.3544 51.6591 94.3747C48.1592 96.395 42.486 96.395 38.9861 94.3747C37.4811 93.5074 36.629 92.4207 36.4199 91.2881C34.1903 86.2933 28.591 88.0382 28.591 88.0382L8.92578 99.3899L28.591 110.744C28.591 110.744 31.6113 113.979 22.9586 115.264C20.9969 115.387 19.1169 115.877 17.6118 116.746C14.1119 118.767 14.1119 122.042 17.6118 124.063C21.1117 126.083 26.7849 126.083 30.2848 124.063C31.7898 123.195 32.6419 122.109 32.851 120.976C35.0806 115.981 40.6798 117.723 40.6798 117.723L60.3451 129.078L80.0102 117.723C80.0102 117.723 83.0305 114.491 74.3778 113.206C72.4161 113.083 70.5361 112.591 69.031 111.724C65.5337 109.703 65.5337 106.425 69.031 104.408C72.5309 102.385 78.2042 102.385 81.7041 104.405C83.2092 105.275 84.0612 106.359 84.2704 107.494C86.4999 112.489 92.0992 110.744 92.0992 110.744L111.764 99.3899L92.0992 88.0382C92.0992 88.0382 89.0789 84.8036 97.7317 83.5179C99.6933 83.3955 101.573 82.9031 103.078 82.0358C106.578 80.0155 106.578 76.7401 103.078 74.7197C99.5785 72.6994 93.9052 72.6994 90.4053 74.7197Z" fill="#CDE7FC"/>
<path d="M38.5634 108.323C39.4971 108.323 40.3414 108.473 40.9817 108.675L60.3459 119.828L79.3376 108.861C79.4294 108.723 79.5748 108.438 79.4753 108.167C79.3605 107.854 78.6411 106.774 74.2306 106.119C72.1261 105.991 70.121 105.433 68.5267 104.512C66.5089 103.346 65.3942 101.736 65.3942 99.9788C65.3942 98.2212 66.5089 96.6115 68.5267 95.4458C72.371 93.229 78.3785 93.2316 82.21 95.4458C83.9344 96.4406 84.9905 97.7467 85.266 99.2237C87.021 103.091 91.6076 101.752 91.804 101.693L109.745 91.3056L91.3627 80.6427C90.924 80.1733 90.2964 79.0509 90.725 77.8239C91.3117 76.1403 93.5539 75.0306 97.5819 74.4311C99.5486 74.3061 101.248 73.8419 102.574 73.0741C103.939 72.2858 104.694 71.296 104.694 70.291C104.694 69.2859 103.939 68.2987 102.574 67.5079C99.4212 65.6865 94.0743 65.684 90.9112 67.5079C89.7148 68.1992 88.9979 69.0283 88.8347 69.9058C86.7123 74.7347 81.9421 74.6327 79.71 73.9363L60.3484 62.7861L41.3541 73.7501C41.2623 73.8878 41.1169 74.171 41.2164 74.4414C41.3312 74.7577 42.0505 75.8367 46.4611 76.4923C48.5656 76.6199 50.5706 77.1785 52.165 78.0968C54.1828 79.2652 55.2975 80.8748 55.295 82.6324C55.295 84.39 54.1828 85.9997 52.165 87.1654C48.3284 89.3822 42.3184 89.3797 38.4818 87.1654C36.7574 86.1706 35.7013 84.8619 35.4258 83.3875C33.6606 79.4897 29.0867 80.8595 28.8903 80.9156L10.9469 91.303L29.329 101.969C29.7677 102.438 30.3953 103.56 29.9667 104.787C29.38 106.471 27.1377 107.578 23.1098 108.18C21.143 108.305 19.4442 108.769 18.1177 109.537C16.7529 110.325 16.0004 111.313 15.9978 112.318C15.9978 113.325 16.7529 114.313 18.1177 115.103C21.2783 116.927 26.625 116.927 29.7805 115.103C30.9769 114.412 31.6937 113.583 31.857 112.705C33.3722 109.259 36.237 108.323 38.5634 108.323ZM60.3459 122.159L40.1756 110.514C40.196 110.522 39.5251 110.328 38.5201 110.328C37.0227 110.328 34.8901 110.808 33.7753 113.302C33.5712 114.552 32.5151 115.858 30.7906 116.853C26.9515 119.07 20.9416 119.065 17.1075 116.853C15.0897 115.687 13.9749 114.075 13.9749 112.318C13.9774 110.56 15.0897 108.95 17.1075 107.787C18.7044 106.864 20.7068 106.305 22.8981 106.17C27.3597 105.502 27.9795 104.346 28.0586 104.122C28.153 103.856 28.0076 103.576 27.9157 103.435L6.90625 91.3056L28.0841 79.0764C30.5254 78.2933 35.2905 78.1912 37.344 82.7906C37.5761 83.8951 38.2956 84.7242 39.492 85.4155C42.65 87.2394 47.9967 87.242 51.1548 85.4155C52.5196 84.6247 53.2722 83.6375 53.2722 82.6324C53.2747 81.6248 52.5196 80.6376 51.1548 79.8493C49.8283 79.0841 48.132 78.6173 46.2469 78.4999C42.1348 77.8902 39.8925 76.7831 39.3058 75.0995C38.8772 73.8725 39.5047 72.7501 39.9409 72.2833L40.1756 72.097L60.3484 60.452L80.5161 72.097C80.5238 72.1098 81.1692 72.2833 82.1717 72.2833C83.6691 72.2833 85.8042 71.8037 86.9164 69.3089C87.1205 68.0589 88.1766 66.7528 89.901 65.758C93.7376 63.5463 99.7477 63.5437 103.584 65.758C105.602 66.9237 106.717 68.5334 106.717 70.291C106.717 72.0486 105.602 73.6608 103.584 74.824C101.987 75.7474 99.9849 76.3061 97.7936 76.4413C93.332 77.1071 92.7122 78.2652 92.6331 78.4897C92.5387 78.755 92.6867 79.0356 92.7759 79.1734L113.785 91.3056L92.6075 103.535C90.1688 104.321 85.4037 104.42 83.3477 99.8181C83.1155 98.7161 82.3988 97.887 81.1998 97.1957C78.0469 95.3743 72.7026 95.3718 69.5369 97.1957C68.1721 97.9865 67.417 98.9737 67.417 99.9788C67.417 100.984 68.1721 101.971 69.5369 102.762C70.8634 103.527 72.5598 103.994 74.4449 104.109C78.557 104.718 80.7993 105.828 81.386 107.512C81.8171 108.736 81.187 109.859 80.7508 110.328L80.5161 110.514L60.3459 122.159Z" fill="#101820"/>
<path d="M111.889 100.214C111.889 100.214 111.42 94.4791 107.529 89.1221C107.455 89.0201 107.338 88.9563 107.213 88.9487L91.5324 88.0941H91.4662L75.7855 88.9487C75.6631 88.9563 75.5432 89.0201 75.4693 89.1221C71.5791 94.4791 71.1096 100.214 71.1096 100.214L71.1198 100.216C70.5127 104.619 74.1479 109.178 82.0864 111.662C88.1653 113.563 94.7492 113.565 100.831 111.667C108.767 109.188 112.404 104.634 111.812 100.237L111.889 100.214Z" fill="#CDE7FC"/>
<path d="M72.2258 99.5173L72.2284 99.5199L72.1187 100.354C71.5396 104.568 75.4757 108.532 82.3887 110.698C88.2304 112.522 94.6741 112.527 100.531 110.701C107.439 108.543 111.38 104.586 110.811 100.372L110.699 99.525L110.773 99.502C110.498 97.8286 109.589 93.7853 106.875 89.9436L91.4803 89.1018L76.1288 89.9436C73.4044 93.8007 72.4988 97.8567 72.2258 99.5173ZM91.4676 114.091C88.1845 114.091 84.904 113.604 81.7842 112.627C73.958 110.178 69.5014 105.453 70.0958 100.265L70.1035 100.132C70.1239 99.8847 70.6417 94.0481 74.6543 88.5279C74.9018 88.1835 75.2947 87.9667 75.7258 87.9412L91.4114 87.084L107.271 87.9412C107.709 87.9667 108.102 88.1835 108.352 88.533C112.36 94.0481 112.878 99.8847 112.898 100.132L112.964 100.941L112.885 100.964C113.023 105.877 108.612 110.295 101.131 112.634C98.0158 113.604 94.7404 114.091 91.4676 114.091Z" fill="#182849"/>
<path d="M103.647 85.7931C110.374 89.6781 110.374 95.9738 103.647 99.8589C96.9206 103.744 86.0102 103.744 79.2834 99.8589C72.5566 95.9738 72.5566 89.6781 79.2834 85.7931C86.0128 81.908 96.9206 81.908 103.647 85.7931Z" fill="#CDE7FC"/>
<path d="M103.546 91.3262C110.275 95.2113 110.275 101.51 103.546 105.392C96.8191 109.277 85.9112 109.277 79.1818 105.392C72.455 101.51 72.455 95.2113 79.1818 91.3262C85.9112 87.4437 96.8191 87.4437 103.546 91.3262Z" fill="#E3F2FE"/>
<path d="M91.4658 83.8801C87.2363 83.8801 83.0068 84.8086 79.7875 86.6708C76.859 88.3595 75.2469 90.5457 75.2469 92.8288C75.2469 95.1068 76.859 97.2955 79.7875 98.9842C86.2235 102.701 96.7028 102.701 103.139 98.9842C106.07 97.2955 107.682 95.1068 107.682 92.8262C107.682 90.5457 106.07 88.3595 103.141 86.6708C99.9247 84.8086 95.6952 83.8801 91.4658 83.8801ZM91.4658 103.765C86.869 103.765 82.2747 102.752 78.7773 100.737C75.1958 98.6679 73.2266 95.8593 73.2266 92.8288C73.2266 89.7932 75.1958 86.9846 78.7773 84.9158C85.772 80.8802 97.1568 80.8802 104.154 84.9158C107.733 86.9846 109.705 89.7932 109.705 92.8262C109.705 95.8593 107.731 98.6679 104.152 100.737C100.652 102.752 96.06 103.765 91.4658 103.765Z" fill="#182849"/>
<path d="M105.261 89.9079H105.269V85.9029C105.269 85.63 105.047 85.4106 104.777 85.4106H102.402C102.045 85.1453 101.667 84.8851 101.244 84.6402C95.8459 81.523 87.091 81.523 81.6933 84.6402C81.2698 84.8851 80.8924 85.1453 80.5352 85.4106H78.1628C77.8924 85.4106 77.6704 85.63 77.6704 85.9004L77.6577 90.038H77.6628C77.5098 92.9256 80.0301 95.8516 85.2901 97.4485C89.318 98.6704 93.6724 98.6627 97.6953 97.4331C103.004 95.8082 105.499 92.8287 105.261 89.9079Z" fill="#CDE7FC"/>
<path d="M78.6694 89.0253H78.7229L78.6694 90.0891C78.5342 92.6936 81.1795 95.145 85.5849 96.4817C89.3935 97.6373 93.5923 97.6322 97.4008 96.4664C101.842 95.1042 104.464 92.6247 104.253 89.9921L104.166 88.8978H104.258V86.4208H102.067L101.799 86.2218C101.47 85.9795 101.123 85.7371 100.735 85.5152C95.6255 82.5663 87.3068 82.5663 82.1972 85.5178C81.8095 85.7397 81.4652 85.9795 81.1361 86.2218L80.8682 86.4208H78.677L78.6694 89.0253ZM91.4674 99.3643C89.2736 99.3643 87.0849 99.0479 84.9983 98.4128C80.1158 96.9307 77.1005 94.2267 76.6898 91.0457H76.6489L76.6464 90.4742C76.6439 90.3646 76.6439 90.2574 76.6464 90.1452L76.6591 85.8978C76.6591 85.0739 77.3326 84.4004 78.1617 84.4004H80.2051C80.5086 84.1836 80.8325 83.9693 81.1871 83.7627C86.8552 80.495 96.0795 80.495 101.75 83.7627C102.102 83.9693 102.424 84.1836 102.73 84.4004H104.776C105.605 84.4004 106.278 85.0739 106.278 85.903V89.9972C106.288 90.1962 106.288 90.3926 106.278 90.589L106.253 90.9207C105.898 94.1093 102.845 96.9128 97.9901 98.3974C95.8881 99.0428 93.6765 99.3643 91.4674 99.3643Z" fill="#182849"/>
<path d="M103.71 82.1147L103.603 81.9616C103.603 81.9616 97.5165 74.0154 97.5955 57.2762L91.4708 58.0185H91.4657L85.3383 57.2762C85.42 74.0154 79.2212 82.1147 79.2212 82.1147C76.4815 85.1248 77.3028 88.9359 81.6904 91.469C87.0882 94.5862 95.8431 94.5862 101.241 91.469C105.628 88.9384 106.45 85.1273 103.71 82.1147Z" fill="#CDE7FC"/>
<path d="M103.196 82.2705C103.196 82.2705 97.1094 74.3217 97.1885 57.585L91.0611 58.3274H91.0586L89.8954 58.187C89.3061 72.9544 83.8318 80.12 83.8318 80.12C81.0895 83.1327 81.9135 86.9412 86.2985 89.4743C90.5331 91.9181 96.8083 92.4181 101.931 91.0304C105.311 88.533 105.788 85.1556 103.301 82.421L103.196 82.2705Z" fill="#E3F2FE"/>
<path d="M86.3474 58.4114C86.1535 74.5308 80.2838 82.3928 80.0287 82.727C78.9471 83.9208 78.5059 85.1631 78.6972 86.3901C78.937 87.9385 80.1792 89.4308 82.197 90.594C87.3117 93.548 95.6329 93.5455 100.737 90.594C102.755 89.4308 103.997 87.9385 104.237 86.3901C104.429 85.1631 103.987 83.9183 102.962 82.7933L102.773 82.5356C102.551 82.2499 96.7808 74.5257 96.5895 58.4165L91.5921 59.0211L86.3474 58.4114ZM91.4672 94.8005C87.7428 94.8005 84.021 93.9817 81.1869 92.3465C78.6308 90.8695 77.0391 88.8671 76.6973 86.7039C76.4116 84.8519 77.0238 83.0305 78.4779 81.4336C78.4804 81.4209 84.4062 73.4211 84.3297 57.2814L84.3246 56.1334L91.587 57.0161L98.6149 56.1334L98.6098 57.2814C98.5308 73.4186 104.352 81.2729 104.411 81.3494L104.457 81.4336C105.908 83.028 106.523 84.8493 106.235 86.7013C105.898 88.8645 104.304 90.8695 101.75 92.3465C98.9134 93.9817 95.1916 94.8005 91.4672 94.8005Z" fill="#182849"/>
<path d="M82.3242 49.6897V54.9702C82.3242 56.3196 83.217 57.6716 85.0027 58.7022C88.574 60.7633 94.3647 60.7633 97.936 58.7022C99.7217 57.6716 100.612 56.3196 100.612 54.9702H100.614V49.6897H82.3242Z" fill="#CDE7FC"/>
<path d="M83.3354 50.7026V54.9677C83.3354 56.0034 84.1058 57.0187 85.5088 57.8273C88.7358 59.6946 94.1947 59.6946 97.4268 57.8273C98.8298 57.0187 99.6028 56.0034 99.6028 54.9677V50.7026H83.3354ZM91.4678 61.2686C88.9577 61.2686 86.45 60.7048 84.4986 59.5798C82.4451 58.3911 81.3125 56.7559 81.3125 54.9677V48.6797H101.623V54.9677C101.623 56.7534 100.49 58.3885 98.4395 59.5773C96.483 60.7048 93.9754 61.2686 91.4678 61.2686Z" fill="#182849"/>
<path d="M105.859 42.1796C105.859 50.1283 99.4153 56.572 91.4666 56.572C83.5179 56.572 77.0742 50.1283 77.0742 42.1796C77.0742 34.2309 83.5179 27.7898 91.4666 27.7898C99.4153 27.7898 105.859 34.2309 105.859 42.1796Z" fill="#CDE7FC"/>
<path d="M100.681 42.0548C100.681 47.1439 96.5556 51.2688 91.4665 51.2688C86.3774 51.2688 82.25 47.1439 82.25 42.0548C82.25 36.9631 86.3774 32.8383 91.4665 32.8383C96.5556 32.8383 100.681 36.9631 100.681 42.0548Z" fill="#E3F2FE"/>
<path d="M91.4689 28.7976C92.2062 28.7976 92.9152 28.9022 93.6193 29.017C97.0503 31.4889 99.1116 35.7362 98.3233 40.4503C97.5249 45.2129 93.6754 49.1082 88.9205 49.9449C87.4307 50.2077 85.987 50.1872 84.6248 49.927C80.9412 49.2255 78.102 45.9833 78.0867 42.2334C78.0867 42.2156 78.0867 42.1977 78.0867 42.1798C78.0867 34.8025 84.0916 28.7976 91.4689 28.7976ZM91.4689 26.7773C82.9743 26.7773 76.0664 33.6852 76.0664 42.1798C76.0664 50.6719 82.9743 57.585 91.4689 57.585C99.961 57.585 106.871 50.6719 106.871 42.1798C106.871 33.6852 99.961 26.7773 91.4689 26.7773Z" fill="#182849"/>
<path d="M92.6445 60.2482C92.6445 60.2482 93.9914 80.1633 96.7694 85.1325C99.5499 90.1018 98.4913 92.7012 98.4913 92.7012L103.509 90.3237L105.861 84.8723C105.861 84.8723 103.537 82.3291 103.606 81.9617C103.677 81.5969 100.055 74.5206 100.055 74.5206L97.2745 59.2278L92.6445 60.2482Z" fill="#182849"/>
<path d="M99 101.772C99 101.772 100.306 107.17 100.054 112.068L104.263 109.81L109.706 106.104L111.89 101.387L109.706 92.8261L107.683 96.1883L104.28 99.4713L99 101.772Z" fill="#182849"/>
<path d="M77.8828 89.4665L78.3062 92.7011L80.074 94.8005V90.8466L77.8828 88.8339V89.4665Z" fill="#182849"/>
<path d="M75.376 96.5861C75.376 96.5861 73.9092 102.374 74.1362 107.397L71.5547 103.764L71.0547 98.9457L73.7765 92.701L75.376 96.5861Z" fill="#182849"/>
<path d="M102.496 90.3239V95.0967L105.277 91.7932L104.72 88.0943L102.496 90.3239Z" fill="#182849"/>
<path d="M84.8114 55.3197V58.0977L82.7604 56.5722L82.3242 53.9907L84.8114 55.3197Z" fill="#182849"/>
<path d="M97.1875 55.4039L97.2717 59.2278L99.9681 56.9192L100.641 53.6336L97.1875 55.4039Z" fill="#182849"/>
</svg>
