<svg width="209" height="200" viewBox="0 0 209 200" fill="none" xmlns="http://www.w3.org/2000/svg">
<path fill-rule="evenodd" clip-rule="evenodd" d="M94.3802 17.8575C116.944 10.8423 140.262 -3.76004 162.289 4.79364C185.346 13.7471 201.216 37.6122 207.111 61.6337C212.82 84.9023 200.868 107.674 193.094 130.336C185.467 152.57 183.798 182.137 162.42 191.91C140.666 201.855 117.218 182.572 94.3802 175.462C79.1776 170.73 65.0886 165.564 51.4418 157.362C36.3385 148.284 19.2646 140.919 11.0081 125.351C1.94459 108.262 -3.59999 86.6059 4.63072 69.1007C12.7103 51.9168 35.007 48.6536 51.497 39.2385C65.7159 31.1201 78.7451 22.7183 94.3802 17.8575Z" fill="white" fill-opacity="0.05"/>
<path fill-rule="evenodd" clip-rule="evenodd" d="M106.052 2.44663C125.503 2.6976 135.899 25.1124 151.488 36.749C166.784 48.1674 187.651 52.9727 196.438 69.9181C205.857 88.0828 204.727 109.879 199.692 129.712C194.395 150.578 184.915 171.206 167.509 183.874C150.096 196.548 126.734 203.877 106.052 197.867C86.6589 192.231 82.3957 166.205 66.0222 154.383C49.5619 142.498 23.3562 146.637 11.8926 129.88C-0.325964 112.02 -3.679 86.1113 6.11395 66.8143C15.7136 47.8982 41.9225 47.0517 59.7562 35.5654C76.1082 25.0335 86.6036 2.19569 106.052 2.44663Z" fill="white" fill-opacity="0.05"/>
<path d="M138.633 105.659L158.259 94.3713C158.315 94.3389 158.384 94.3389 158.439 94.3713L178.069 105.93C178.186 106 178.186 106.171 178.066 106.239L158.44 117.529C158.384 117.56 158.315 117.56 158.26 117.527L138.631 105.968C138.513 105.899 138.514 105.728 138.633 105.659Z" fill="#CDE7FC"/>
<path d="M139.309 105.817L158.352 117.031L177.387 106.081L158.347 94.8686L139.309 105.817ZM158.351 118.027C158.236 118.027 158.121 117.997 158.018 117.937L138.389 106.378C138.19 106.261 138.066 106.044 138.066 105.811C138.068 105.58 138.193 105.364 138.394 105.248L138.396 105.247L158.022 93.9589C158.22 93.8451 158.473 93.8427 158.676 93.9601L178.309 105.52C178.51 105.64 178.633 105.859 178.63 106.091C178.628 106.322 178.501 106.538 178.299 106.652L158.676 117.94C158.576 117.998 158.463 118.027 158.351 118.027Z" fill="#182849"/>
<path d="M138.367 110.162L158.352 98.6679L178.335 110.435L158.352 121.929L138.367 110.162Z" fill="#E7F4FF"/>
<path d="M158.352 136.727V117.683C158.352 117.619 158.385 117.561 158.44 117.528L178.067 106.24C178.186 106.171 178.335 106.257 178.335 106.395V125.439C178.335 125.504 178.301 125.562 178.245 125.595L158.62 136.883C158.5 136.951 158.352 136.865 158.352 136.727Z" fill="#182849"/>
<path d="M158.824 117.854V136.215L177.858 125.269V106.907L158.824 117.854ZM158.527 137.38C158.414 137.38 158.302 137.351 158.2 137.293C158 137.176 157.875 136.959 157.875 136.727V117.684C157.875 117.448 158.001 117.23 158.205 117.115L177.829 105.828C178.029 105.713 178.279 105.712 178.483 105.829C178.683 105.946 178.808 106.163 178.808 106.395V125.44C178.808 125.673 178.683 125.89 178.482 126.006L158.854 137.294C158.754 137.351 158.64 137.38 158.527 137.38Z" fill="#182849"/>
<path d="M138.367 106.125L138.368 125.167C138.368 125.23 138.402 125.289 138.456 125.321L158.081 136.878C158.201 136.947 158.352 136.862 158.352 136.723V117.682C158.352 117.618 158.317 117.561 158.263 117.528L138.638 105.972C138.518 105.901 138.367 105.988 138.367 106.125Z" fill="#CDE7FC"/>
<path d="M138.844 124.998L157.878 136.205V117.852L138.844 106.644V124.998ZM158.173 137.378C158.058 137.378 157.943 137.347 157.841 137.285L138.216 125.73C138.017 125.613 137.895 125.397 137.895 125.167V106.125C137.895 105.892 138.02 105.675 138.223 105.558C138.425 105.441 138.677 105.445 138.88 105.562L158.505 117.119C158.703 117.232 158.827 117.451 158.827 117.683V136.723C158.827 136.957 158.701 137.175 158.496 137.291C158.397 137.349 158.284 137.378 158.173 137.378Z" fill="#182849"/>
<path d="M109.5 99.7288L129.126 88.4408C129.182 88.4096 129.251 88.4096 129.306 88.442L148.935 100.001C149.053 100.07 149.052 100.242 148.933 100.31L129.307 111.598C129.251 111.63 129.182 111.63 129.127 111.598L109.499 100.039C109.38 99.9697 109.381 99.7983 109.5 99.7288Z" fill="#CDE7FC"/>
<path d="M110.176 99.8868L129.219 111.102L148.256 100.152L129.213 88.9392L110.176 99.8868ZM129.217 112.096C129.103 112.096 128.989 112.066 128.89 112.009L109.257 100.448C109.057 100.331 108.934 100.114 108.934 99.882C108.935 99.6494 109.062 99.4337 109.263 99.3175L128.89 88.0295C129.094 87.912 129.346 87.9132 129.546 88.0331L149.175 99.5907C149.374 99.7082 149.499 99.9251 149.497 100.158C149.497 100.389 149.37 100.605 149.17 100.721L129.543 112.01C129.442 112.068 129.329 112.096 129.217 112.096Z" fill="#182849"/>
<path d="M109.234 104.06L129.218 92.5673L149.203 104.333L129.218 115.828L109.234 104.06Z" fill="#E7F4FF"/>
<path d="M129.219 153.459V111.754C129.219 111.69 129.254 111.63 129.309 111.599L148.935 100.311C149.054 100.242 149.203 100.328 149.203 100.466V142.172C149.203 142.235 149.169 142.295 149.114 142.327L129.487 153.615C129.369 153.683 129.219 153.597 129.219 153.459Z" fill="#182849"/>
<path d="M129.691 111.925V152.948L148.727 142V100.978L129.691 111.925ZM129.395 154.113C129.284 154.113 129.17 154.083 129.069 154.026C128.867 153.909 128.742 153.692 128.742 153.459V111.754C128.742 111.519 128.869 111.302 129.073 111.186L148.697 99.8988C148.897 99.7838 149.149 99.7838 149.349 99.8988C149.551 100.016 149.676 100.233 149.676 100.466V142.172C149.676 142.404 149.55 142.621 149.349 142.738L129.721 154.026C129.621 154.083 129.508 154.113 129.395 154.113Z" fill="#182849"/>
<path d="M109.234 100.196V141.899C109.234 141.962 109.268 142.021 109.323 142.053L128.948 153.61C129.068 153.68 129.218 153.594 129.218 153.455V111.753C129.218 111.689 129.184 111.63 129.13 111.598L109.505 100.042C109.385 99.9709 109.234 100.057 109.234 100.196Z" fill="#CDE7FC"/>
<path d="M109.707 141.73L128.741 152.939V111.922L109.707 100.713V141.73ZM129.036 154.11C128.922 154.11 128.808 154.08 128.708 154.021L109.08 142.463C108.881 142.345 108.758 142.129 108.758 141.9V100.196C108.758 99.9625 108.884 99.7444 109.086 99.6293C109.288 99.5119 109.542 99.5131 109.744 99.6329L129.369 111.189C129.568 111.307 129.691 111.523 129.691 111.753V153.455C129.691 153.689 129.565 153.906 129.363 154.022C129.263 154.081 129.149 154.11 129.036 154.11Z" fill="#182849"/>
<path d="M79.5271 12.0545L99.1534 0.766569C99.2098 0.734207 99.2781 0.735407 99.3344 0.767769L118.963 12.3254C119.081 12.3949 119.081 12.5663 118.961 12.6347L99.3344 23.9238C99.2781 23.9562 99.2098 23.955 99.1546 23.9226L79.5259 12.3638C79.4072 12.2943 79.4084 12.1229 79.5271 12.0545Z" fill="#CDE7FC"/>
<path d="M80.2027 12.2139L99.2453 23.4252L118.282 12.4764L99.2393 1.2639L80.2027 12.2139ZM99.2429 24.4224C99.1278 24.4224 99.0152 24.3924 98.9121 24.3313L79.2822 12.7736C79.082 12.6538 78.9586 12.4356 78.961 12.2043C78.9634 11.973 79.0892 11.7573 79.2894 11.6422L98.9157 0.355419C99.1171 0.236763 99.37 0.239162 99.5737 0.357819L119.202 11.9167C119.401 12.0341 119.525 12.2499 119.524 12.4824C119.524 12.7149 119.398 12.9294 119.198 13.0457L99.5689 24.3349C99.4682 24.3936 99.3556 24.4224 99.2429 24.4224Z" fill="#182849"/>
<path d="M79.2578 16.4748L99.2425 4.98184L119.226 16.7493L99.2425 28.2422L79.2578 16.4748Z" fill="#E7F4FF"/>
<path d="M99.2422 170.28V24.0794C99.2422 24.0147 99.2757 23.956 99.3321 23.9236L118.957 12.6356C119.077 12.5673 119.226 12.6536 119.226 12.7915V158.992C119.226 159.057 119.191 159.116 119.136 159.148L99.5107 170.436C99.3908 170.504 99.2422 170.418 99.2422 170.28Z" fill="#182849"/>
<path d="M99.7161 24.2509V169.769L118.749 158.822V13.3022L99.7161 24.2509ZM99.42 170.934C99.3074 170.934 99.1947 170.905 99.094 170.847C98.8915 170.731 98.7656 170.514 98.7656 170.28V24.0795C98.7656 23.847 98.8915 23.6301 99.094 23.5126L118.719 12.2234C118.923 12.1084 119.175 12.1096 119.372 12.2247C119.574 12.3421 119.7 12.5591 119.7 12.7916V158.992C119.7 159.227 119.573 159.445 119.369 159.561L99.7449 170.847C99.6466 170.905 99.5339 170.934 99.42 170.934Z" fill="#182849"/>
<path d="M79.2578 12.5218V158.72C79.2578 158.784 79.2926 158.843 79.3465 158.875L98.9728 170.431C99.0915 170.501 99.2425 170.416 99.2425 170.277V24.0771C99.2425 24.0147 99.2089 23.956 99.1538 23.9236L79.5287 12.3672C79.4088 12.2965 79.2578 12.3828 79.2578 12.5218Z" fill="#CDE7FC"/>
<path d="M79.7356 158.552L98.7686 169.76V24.2463L79.7356 13.0386V158.552ZM99.0647 170.93C98.9508 170.93 98.837 170.901 98.7351 170.843L79.1076 159.284C78.9062 159.164 78.7852 158.948 78.7852 158.721V12.5221C78.7852 12.2884 78.9122 12.0702 79.1148 11.954C79.3185 11.8365 79.5666 11.8389 79.7716 11.9575L99.3967 23.514C99.598 23.6351 99.7191 23.8496 99.7191 24.0773V170.277C99.7191 170.511 99.592 170.728 99.3907 170.844C99.29 170.901 99.1774 170.93 99.0647 170.93Z" fill="#182849"/>
<path d="M49.5505 77.1312L69.1769 65.8421C69.2332 65.8097 69.3015 65.8097 69.3578 65.8433L88.9866 77.4009C89.104 77.4704 89.104 77.6418 88.9842 77.7113L69.3578 88.9993C69.3027 89.0317 69.2332 89.0317 69.1781 88.9981L49.5493 77.4405C49.4307 77.3709 49.4319 77.1995 49.5505 77.1312Z" fill="#CDE7FC"/>
<path d="M50.2261 77.2893L69.2687 88.5018L88.3053 77.5518L69.2639 66.3393L50.2261 77.2893ZM69.2675 89.4978C69.1525 89.4978 69.0374 89.4678 68.9343 89.4079L49.3068 77.849C49.1066 77.7328 48.9832 77.5146 48.9844 77.2833C48.9844 77.0508 49.1114 76.8363 49.3116 76.7188H49.3128L68.9403 65.4308C69.1441 65.3122 69.3982 65.3146 69.6007 65.4356L89.2258 76.9921C89.4272 77.1107 89.5506 77.3289 89.5482 77.5614C89.5458 77.7939 89.4188 78.0096 89.2162 78.1235L69.5923 89.4115C69.4928 89.469 69.3802 89.4978 69.2675 89.4978Z" fill="#182849"/>
<path d="M49.2852 81.265L69.2686 69.7709L89.2521 81.5383L69.2686 93.0325L49.2852 81.265Z" fill="#E7F4FF"/>
<path d="M69.2656 186.861V89.155C69.2656 89.0902 69.2992 89.0315 69.3555 88.9991L88.9806 77.7112C89.1005 77.6428 89.2491 77.7291 89.2491 77.867V175.573C89.2491 175.637 89.2144 175.697 89.1592 175.729L69.5341 187.016C69.4142 187.085 69.2656 186.999 69.2656 186.861Z" fill="#182849"/>
<path d="M69.7422 89.3252V186.351L88.7765 175.402V78.3789L69.7422 89.3252ZM69.4474 187.516C69.3323 187.516 69.2185 187.486 69.1178 187.426C68.9176 187.309 68.793 187.093 68.793 186.861V89.1551C68.793 88.9237 68.9164 88.708 69.1154 88.5906L88.7465 77.3002C88.9467 77.1851 89.1983 77.1839 89.4009 77.3014C89.6011 77.4176 89.7257 77.6346 89.7257 77.8671V175.573C89.7257 175.809 89.5975 176.029 89.3913 176.144L69.7722 187.428C69.6703 187.486 69.5576 187.516 69.4474 187.516Z" fill="#182849"/>
<path d="M49.2852 77.5975V175.3C49.2852 175.364 49.3187 175.422 49.3726 175.455L68.999 187.012C69.1176 187.082 69.2686 186.996 69.2686 186.858V89.1539C69.2686 89.0904 69.2351 89.0317 69.18 88.9993L49.5548 77.4429C49.435 77.3721 49.2852 77.4584 49.2852 77.5975Z" fill="#CDE7FC"/>
<path d="M49.7579 175.132L68.7921 186.34V89.3228L49.7579 78.1151V175.132ZM69.087 187.512C68.9719 187.512 68.8568 187.481 68.755 187.42L49.1298 175.864C48.9309 175.747 48.8086 175.53 48.8086 175.3V77.5974C48.8086 77.3624 48.9345 77.1455 49.137 77.0292C49.3396 76.913 49.5913 76.9142 49.7938 77.034L69.419 88.5905C69.6167 88.7044 69.7414 88.9213 69.7414 89.1538V186.858C69.7414 187.092 69.6155 187.309 69.4118 187.426C69.3111 187.483 69.1984 187.512 69.087 187.512Z" fill="#182849"/>
<path d="M157.148 42.5048C154.608 40.9707 152.345 41.4345 151.516 42.7505C151.368 42.9878 150.989 42.7853 150.827 42.3682C149.976 40.1784 147.773 36.8464 145.271 35.3363V35.3351C143.626 34.3427 142.132 34.1964 140.998 34.7442L140.992 34.737L140.859 34.8137C140.801 34.8449 140.27 35.1481 140.215 35.1828L133.211 39.2088C133.211 39.2088 138.723 57.7289 138.877 58.5439C139.029 59.3601 145.657 70.4563 145.657 70.4563L152.878 66.3033C152.963 66.2662 153.045 66.2218 153.12 66.1643L161.204 60.0433C162.689 58.9082 163.509 56.7808 163.509 54.0649C163.509 49.8004 160.661 44.6251 157.148 42.5048Z" fill="#E7F4FF"/>
<path d="M139.341 58.448C139.528 59.112 143.318 65.5961 145.821 69.7971L152.651 65.8694C152.756 65.8203 152.804 65.7927 152.843 65.7639L160.928 59.6429C162.286 58.6038 163.036 56.6214 163.036 54.0648C163.036 49.9646 160.289 44.9714 156.912 42.9327C154.586 41.5292 152.598 41.9307 151.912 43.0226C151.855 43.1125 151.778 43.1796 151.694 43.2335L154.546 47.4021L149.756 52.5679L141.557 54.2626C141.557 54.2626 138.406 48.4532 138.406 47.2786C138.406 46.1041 139.722 41.166 139.722 41.166L146.575 36.9663C146.078 36.4976 145.561 36.0817 145.035 35.7641C143.596 34.8964 142.233 34.6926 141.197 35.1936L141.086 35.2475C141.025 35.2811 140.527 35.5652 140.46 35.6071L133.777 39.4473C134.706 42.5671 139.195 57.6713 139.341 58.448ZM139.987 34.7502C140.026 34.7238 140.58 34.4086 140.639 34.3762L141.126 34.097C142.386 33.6535 143.947 33.9651 145.509 34.9072C148.021 36.4245 150.308 39.7158 151.266 42.1824C151.275 42.204 151.283 42.2219 151.292 42.2399C152.328 40.9455 154.714 40.4625 157.385 42.0769C161.023 44.2715 163.982 49.6494 163.982 54.0648C163.982 56.945 163.095 59.2102 161.484 60.4423L153.397 66.5646C153.302 66.6377 153.191 66.7024 153.063 66.7588L145.493 71.1155L145.256 70.7176C143.69 68.0975 138.569 59.4787 138.412 58.6385C138.304 58.0608 134.972 46.7896 132.76 39.3562L132.645 38.9703L139.987 34.7502Z" fill="#182849"/>
<path d="M157.112 42.6127C155.409 41.5855 153.842 41.4681 152.737 41.89L152.725 41.878L152.622 41.9379C152.404 42.0314 152.206 42.1452 152.031 42.2819L145.456 46.1041L142.051 57.2554L145.453 69.9421C145.539 70.2597 145.885 70.412 146.162 70.2526L152.841 66.4124C152.926 66.374 153.008 66.3297 153.085 66.2722L161.168 60.1523C162.653 59.0161 163.473 56.8887 163.473 54.1728C163.473 49.9095 160.625 44.7329 157.112 42.6127Z" fill="#E7F4FF"/>
<path d="M156.876 43.0418C155.456 42.1837 154.008 41.9332 152.901 42.3551L152.82 42.385C152.603 42.4833 152.449 42.5744 152.314 42.6787L145.851 46.4409L142.546 57.2651L145.103 66.7996L148.812 63.5958L153.948 51.729L161.046 47.5628C159.952 45.6619 158.488 44.0139 156.876 43.0418ZM145.064 45.7661L151.803 41.8493C151.954 41.727 152.187 41.5904 152.444 41.4801L152.795 41.2728L152.856 41.3315C154.181 40.942 155.797 41.2476 157.35 42.1849C160.987 44.3806 163.948 49.7585 163.948 54.1728C163.948 57.0541 163.059 59.3194 161.449 60.5515L153.363 66.6725C153.266 66.7468 153.156 66.8104 153.028 66.8667L146.392 70.6877C146.277 70.7536 146.153 70.7848 146.027 70.7992L145.936 70.8567L145.921 70.8099C145.797 70.8087 145.674 70.7848 145.556 70.7332C145.283 70.6134 145.08 70.3749 145 70.0764L141.559 57.2471L145.064 45.7661Z" fill="#182849"/>
<path d="M153.743 64.3353C155.228 63.199 156.048 61.0728 156.048 58.3569C156.048 54.0924 153.199 48.9171 149.686 46.7969C147.146 45.2639 144.882 45.7278 144.055 47.0426C143.905 47.2799 143.528 47.0773 143.366 46.6614C142.515 44.4716 140.312 41.1385 137.81 39.6283C134.277 37.4961 131.414 39.2244 131.414 43.4876C131.414 46.2036 132.239 49.3234 133.731 52.2563L141.81 68.1323C142.834 70.1435 144.635 71.2306 145.659 70.4563L153.743 64.3353Z" fill="#94BFE1"/>
<path d="M148.933 67.2237C150.204 66.2505 150.907 64.4287 150.907 62.1023C150.907 58.4503 148.468 54.018 145.458 52.2022C143.283 50.8886 141.345 51.2865 140.635 52.412C140.508 52.6157 140.183 52.442 140.045 52.086C139.316 50.2102 137.43 47.3565 135.286 46.062C132.261 44.2367 129.809 45.7169 129.809 49.3689C129.809 51.6941 130.515 54.3656 131.793 56.879L138.714 70.4754C139.59 72.1977 141.133 73.129 142.009 72.465L148.933 67.2237Z" fill="#E7F4FF"/>
<path d="M134.955 39.2065C134.428 39.2065 133.945 39.3335 133.523 39.5876C132.468 40.2253 131.887 41.6108 131.887 43.4877C131.887 46.1282 132.69 49.1593 134.149 52.025L142.227 67.9011C142.827 69.0805 143.753 69.9734 144.582 70.1748C144.903 70.2515 145.173 70.2131 145.382 70.0561L153.463 63.9351C154.825 62.8935 155.574 60.9135 155.574 58.357C155.574 54.2568 152.827 49.2636 149.449 47.2248C147.123 45.8213 145.136 46.2228 144.45 47.3147C144.307 47.5412 144.06 47.6563 143.804 47.6335C143.444 47.5964 143.098 47.2884 142.928 46.8473C142.051 44.5928 139.877 41.4466 137.573 40.0563C136.639 39.493 135.746 39.2065 134.955 39.2065ZM144.888 71.2019C144.721 71.2019 144.547 71.1803 144.369 71.1372C143.267 70.8711 142.126 69.808 141.393 68.3649L133.313 52.4889C131.784 49.4841 130.941 46.2864 130.941 43.4877C130.941 41.2416 131.691 39.5529 133.05 38.7319C134.411 37.9109 136.184 38.0763 138.045 39.2005C140.559 40.7167 142.844 44.0079 143.803 46.4746C143.811 46.4961 143.821 46.5153 143.829 46.5321C144.866 45.2376 147.251 44.7558 149.922 46.3679C153.561 48.5648 156.52 53.9427 156.52 58.357C156.52 61.2371 155.632 63.5024 154.021 64.7345L154.02 64.7357L145.935 70.8567C145.633 71.0857 145.277 71.2019 144.888 71.2019Z" fill="#182849"/>
<path d="M107.072 82.7739V71.076L123.63 61.4828V73.1794C123.63 73.1794 123.393 79.0596 125.884 80.4523C128.376 81.845 128.376 81.845 128.376 81.845L111.817 91.4382C111.817 91.4382 111.817 91.4382 109.327 90.0455C106.836 88.654 107.072 82.7739 107.072 82.7739Z" fill="#94BFE1"/>
<path d="M104.983 86.3708V74.6729L121.539 65.0797V76.7764C121.539 76.7764 121.302 82.6565 123.793 84.0492C126.285 85.4419 126.285 85.4419 126.285 85.4419L109.727 95.0352C109.727 95.0352 109.727 95.0352 107.236 93.6424C104.745 92.2497 104.983 86.3708 104.983 86.3708Z" fill="#E7F4FF"/>
<path d="M125.668 80.8359C122.973 79.3305 123.179 73.4132 123.189 73.1795V62.2451L107.512 71.3302V82.7919C107.448 84.3524 107.691 88.6277 109.541 89.662L111.812 90.9325L127.486 81.8523L125.668 80.8359ZM109.11 90.4303C106.442 88.9381 106.619 83.1227 106.632 82.7656V70.8232L124.07 60.7194L124.068 73.1975C124.006 74.758 124.248 79.0345 126.099 80.0688L129.263 81.8379L111.822 91.9441L109.11 90.4303Z" fill="#182849"/>
<path d="M120.148 75.2506C120.258 72.0181 116.25 73.6277 115.196 76.9933C114.137 74.8383 110.093 77.3744 110.23 80.9329C110.327 83.4931 114.681 85.4731 115.17 85.6864C115.17 85.6864 115.187 85.7092 115.196 85.6972C115.203 85.7008 115.22 85.6588 115.22 85.6588C115.709 84.8834 120.057 77.9138 120.148 75.2506Z" fill="#94BFE1"/>
<path d="M120.148 72.4532C120.166 71.9198 120.068 71.2642 119.493 71.1659C118.572 71.0101 116.729 72.1955 116.055 74.3433L115.726 75.3944L115.24 74.4056C115.003 73.9226 114.57 73.756 113.95 73.9118C112.735 74.2198 111.024 75.9002 111.11 78.1355C111.176 79.883 113.744 81.543 115.467 82.3568C117.255 79.4827 120.08 74.4476 120.148 72.4532ZM115.401 83.3552L115.329 83.2617C114.285 82.7907 110.332 80.8359 110.23 78.1691C110.134 75.6665 111.966 73.5067 113.736 73.0596C114.426 72.8834 115.041 72.9937 115.497 73.3485C116.434 71.3122 118.344 70.0764 119.64 70.2982C120.077 70.3737 121.088 70.7357 121.027 72.4831C120.934 75.1967 116.85 81.8127 116.067 83.0424L115.875 83.3492L115.721 83.3552L115.626 83.3936L115.401 83.3552Z" fill="#182849"/>
<path d="M78.316 72.6341C78.316 72.6341 78.0955 69.9397 76.2665 67.4228C76.2329 67.376 76.1766 67.3449 76.119 67.3413L68.7515 66.9398H68.7204L61.3529 67.3413C61.2941 67.3449 61.239 67.376 61.2042 67.4228C59.3752 69.9397 59.1559 72.6341 59.1559 72.6341L59.1595 72.6353C58.8742 74.704 60.5834 76.847 64.3133 78.0132C67.1694 78.9073 70.2629 78.9073 73.1191 78.0156C76.849 76.8506 78.5581 74.7124 78.28 72.6461L78.316 72.6341Z" fill="#CDE7FC"/>
<path d="M59.6779 72.3082L59.6791 72.3094L59.6288 72.7001C59.3567 74.6813 61.2049 76.5439 64.4542 77.5614C67.1977 78.4184 70.2264 78.4208 72.9771 77.5626C76.224 76.5487 78.0746 74.6885 77.8073 72.7085L77.7545 72.3106L77.7905 72.301C77.661 71.5135 77.2344 69.615 75.9591 67.8088L68.7246 67.4133L61.5117 67.8088C60.2317 69.6222 59.8062 71.5279 59.6779 72.3082ZM68.7186 79.1555C67.1773 79.1555 65.636 78.9266 64.1689 78.4663C60.493 77.3157 58.3979 75.096 58.6771 72.6594L58.6819 72.5958C58.6915 72.4796 58.9348 69.7385 60.819 67.1436C60.9352 66.9818 61.1198 66.8799 61.3224 66.8679L68.6923 66.4664L76.1449 66.8679C76.351 66.8799 76.5356 66.9818 76.6531 67.146C78.5348 69.7385 78.7781 72.4796 78.7889 72.5958L78.8189 72.9758L78.7817 72.9866C78.8464 75.295 76.7753 77.3721 73.2599 78.4699C71.7953 78.9266 70.2576 79.1555 68.7186 79.1555Z" fill="#182849"/>
<path d="M74.4437 65.8588C77.6043 67.6842 77.6043 70.6434 74.4437 72.4676C71.2819 74.293 66.1569 74.293 62.9963 72.4676C59.8346 70.6434 59.8346 67.6842 62.9963 65.8588C66.1569 64.0346 71.2819 64.0346 74.4437 65.8588Z" fill="#CDE7FC"/>
<path d="M74.396 68.4596C77.5565 70.2838 77.5565 73.243 74.396 75.0684C71.2354 76.8926 66.1092 76.8926 62.9486 75.0684C59.788 73.243 59.788 70.2838 62.9486 68.4596C66.1092 66.6342 71.2354 66.6342 74.396 68.4596Z" fill="#E7F4FF"/>
<path d="M68.7181 64.9598C66.7309 64.9598 64.7437 65.396 63.2311 66.271C61.8564 67.0644 61.0989 68.0928 61.0989 69.1643C61.0989 70.2358 61.8564 71.263 63.2311 72.0564C66.2563 73.8027 71.1787 73.8027 74.2039 72.0564C75.5798 71.263 76.3385 70.2358 76.3385 69.1631C76.3385 68.0928 75.5798 67.0644 74.2051 66.271C72.6925 65.396 70.7053 64.9598 68.7181 64.9598ZM68.7181 74.3025C66.5595 74.3025 64.3997 73.8278 62.7565 72.8798C61.0749 71.909 60.1484 70.5894 60.1484 69.1643C60.1484 67.738 61.0749 66.4196 62.7565 65.4476C66.0429 63.5502 71.3933 63.5502 74.6797 65.4476C76.3613 66.4196 77.2878 67.738 77.2878 69.1631C77.2878 70.5894 76.3601 71.909 74.6785 72.8798C73.0353 73.8278 70.8779 74.3025 68.7181 74.3025Z" fill="#182849"/>
<path d="M75.2007 67.7922H75.2031V65.9105C75.2031 65.7834 75.1 65.6792 74.973 65.6792H73.8572C73.6894 65.5545 73.512 65.4323 73.313 65.3172C70.7757 63.8526 66.6634 63.8526 64.1261 65.3172C63.9271 65.4323 63.7497 65.5545 63.5819 65.6792H62.4673C62.3403 65.6792 62.2372 65.7822 62.2372 65.9105L62.2312 67.8533H62.2336C62.1616 69.2101 63.3446 70.5848 65.8173 71.3351C67.7098 71.9092 69.7545 71.9068 71.6458 71.3279C74.1388 70.5645 75.3122 69.1645 75.2007 67.7922Z" fill="#CDE7FC"/>
<path d="M62.7065 67.3774H62.7304L62.7065 67.8772C62.6418 69.1009 63.8858 70.2527 65.9545 70.8807C67.744 71.4237 69.718 71.4213 71.5075 70.8735C73.5929 70.2347 74.8263 69.0697 74.7256 67.8316L74.6848 67.3186H74.728V66.1548H73.6996L73.5738 66.0602C73.4191 65.9463 73.2562 65.8336 73.074 65.7282C70.6721 64.3426 66.7648 64.3426 64.3629 65.7294C64.1819 65.8348 64.0189 65.9463 63.8655 66.0602L63.7384 66.1548H62.7101L62.7065 67.3774ZM68.7184 72.2351C67.6889 72.2351 66.6593 72.0865 65.6789 71.788C63.3848 71.0929 61.9694 69.8212 61.7764 68.3278H61.756L61.7548 68.0593C61.7536 68.0066 61.7536 67.9563 61.7548 67.9047L61.762 65.9091C61.762 65.522 62.0784 65.2044 62.468 65.2044H63.4268C63.5706 65.1025 63.7228 65.0018 63.8882 64.9059C66.5526 63.3694 70.8866 63.3694 73.5498 64.9059C73.7152 65.0018 73.8662 65.1025 74.0112 65.2044H74.9725C75.362 65.2044 75.6784 65.522 75.6784 65.9115V67.834C75.6832 67.9275 75.6832 68.021 75.6784 68.1121L75.6652 68.2679C75.4986 69.7673 74.064 71.0833 71.7843 71.7809C70.7955 72.0841 69.7576 72.2351 68.7184 72.2351Z" fill="#182849"/>
<path d="M74.4708 64.1305L74.4217 64.0598C74.4217 64.0598 71.5619 60.3251 71.5991 52.4613L68.7201 52.8101H68.7189L65.84 52.4613C65.8772 60.3251 62.9659 64.1305 62.9659 64.1305C61.6774 65.5459 62.0645 67.3366 64.1249 68.5268C66.6622 69.9914 70.7745 69.9914 73.3118 68.5268C75.3721 67.3366 75.7592 65.5459 74.4708 64.1305Z" fill="#CDE7FC"/>
<path d="M74.2285 64.2036C74.2285 64.2036 71.3675 60.4701 71.4059 52.6052L68.5269 52.954H68.5245L67.9792 52.888C67.7024 59.8277 65.1303 63.1932 65.1303 63.1932C63.8418 64.6087 64.2277 66.3994 66.2892 67.5895C68.2776 68.7377 71.2273 68.9714 73.634 68.3194C75.2209 67.1472 75.4462 65.5592 74.2776 64.2755L74.2285 64.2036Z" fill="#ACC7E1"/>
<path d="M66.3151 52.9935C66.2252 60.5671 63.4661 64.2611 63.3462 64.4181C62.838 64.9802 62.6319 65.5639 62.7206 66.1404C62.8345 66.8667 63.4181 67.5679 64.365 68.1144C66.7693 69.5035 70.6778 69.5023 73.0773 68.1144C74.0242 67.5679 74.6079 66.8667 74.7205 66.1404C74.8104 65.5639 74.6031 64.979 74.1225 64.4492L74.0338 64.3282C73.9295 64.194 71.2172 60.5647 71.1285 52.9959L68.7805 53.2799L66.3151 52.9935ZM68.7206 70.0908C66.9707 70.0908 65.222 69.7061 63.8904 68.9378C62.6894 68.2439 61.9416 67.303 61.7821 66.2866C61.6479 65.4165 61.9356 64.5607 62.6175 63.8116C62.6199 63.8056 65.4042 60.0458 65.3682 52.4625L65.3658 51.9244L68.7781 52.3379L72.0789 51.9244L72.0765 52.4625C72.0394 60.0446 74.7757 63.7361 74.802 63.772L74.8248 63.8116C75.5056 64.5595 75.7956 65.4153 75.659 66.2854C75.5008 67.3018 74.7529 68.2439 73.5519 68.9378C72.2204 69.7061 70.4705 70.0908 68.7206 70.0908Z" fill="#182849"/>
<path d="M64.4219 48.8956V51.3767C64.4219 52.0119 64.8414 52.6459 65.6804 53.1301C67.3583 54.0986 70.0779 54.0986 71.7558 53.1301C72.5948 52.6459 73.0143 52.0119 73.0143 51.3767V48.8956H64.4219Z" fill="#CDE7FC"/>
<path d="M64.8985 49.3715V51.3767C64.8985 51.8621 65.2604 52.3391 65.9196 52.7191C67.4358 53.5964 70.0019 53.5964 71.5205 52.7191C72.1797 52.3391 72.5416 51.8621 72.5416 51.3767V49.3715H64.8985ZM68.7195 54.3359C67.5413 54.3359 66.3631 54.0723 65.445 53.5425C64.4802 52.9852 63.9492 52.2157 63.9492 51.3767V48.4223H73.4921V51.3767C73.4921 52.2145 72.96 52.984 71.9951 53.5413C71.077 54.0723 69.8976 54.3359 68.7195 54.3359Z" fill="#182849"/>
<path d="M75.4803 45.3683C75.4803 49.103 72.4528 52.1294 68.7193 52.1294C64.9846 52.1294 61.957 49.103 61.957 45.3683C61.957 41.6336 64.9846 38.6061 68.7193 38.6061C72.4528 38.6061 75.4803 41.6336 75.4803 45.3683Z" fill="#CDE7FC"/>
<path d="M73.0502 45.3083C73.0502 47.6994 71.1109 49.6387 68.7198 49.6387C66.3287 49.6387 64.3906 47.6994 64.3906 45.3083C64.3906 42.9172 66.3287 40.9779 68.7198 40.9779C71.1109 40.9779 73.0502 42.9172 73.0502 45.3083Z" fill="#ACC7E1"/>
<path d="M68.7173 39.0807C69.0637 39.0807 69.3981 39.1287 69.7289 39.1826C71.3398 40.3452 72.3094 42.3396 71.9379 44.5545C71.5639 46.7922 69.7553 48.6224 67.52 49.0168C66.8212 49.1402 66.1416 49.1294 65.5028 49.0072C63.7721 48.6776 62.4381 47.1542 62.4309 45.3923C62.4309 45.3839 62.4309 45.3755 62.4309 45.3671C62.4309 41.9009 65.2511 39.0807 68.7173 39.0807ZM68.7173 38.1303C64.7273 38.1303 61.4805 41.3772 61.4805 45.3671C61.4805 49.3583 64.7273 52.6052 68.7173 52.6052C72.7085 52.6052 75.9554 49.3583 75.9554 45.3671C75.9554 41.3772 72.7085 38.1303 68.7173 38.1303Z" fill="#182849"/>
<path d="M69.2695 53.8565C69.2695 53.8565 69.9036 63.2148 71.2088 65.5496C72.514 67.8844 72.0166 69.1057 72.0166 69.1057L74.3742 67.9875L75.4792 65.4262C75.4792 65.4262 74.3886 64.2324 74.4209 64.0598C74.4533 63.8872 72.7525 60.5624 72.7525 60.5624L71.4461 53.3771L69.2695 53.8565Z" fill="#182849"/>
<path d="M72.2578 73.3665C72.2578 73.3665 72.8715 75.9027 72.7528 78.2051L74.7304 77.1431L77.2869 75.4028L78.3141 73.1867L77.2869 69.1632L76.3377 70.7429L74.7376 72.2854L72.2578 73.3665Z" fill="#182849"/>
<path d="M73.9023 67.9875V70.2312L75.2088 68.6779L74.9475 66.94L73.9023 67.9875Z" fill="#182849"/>
<path d="M71.4102 51.5803L71.4497 53.377L72.7166 52.2923L73.033 50.7497L71.4102 51.5803Z" fill="#182849"/>
<path d="M172.297 114.145V116.661L173.378 116.037V113.52L172.297 114.145Z" fill="#182849"/>
<path d="M174.909 114.53L170.855 116.869V118.117L174.909 115.777V114.53Z" fill="#182849"/>
</svg>
