<svg width="61" height="70" viewBox="0 0 61 70" fill="none" xmlns="http://www.w3.org/2000/svg">
<path d="M0 5C0 2.23858 2.23858 0 5 0H56C58.7614 0 61 2.23858 61 5V70L31.3243 63.1944L0 70V5Z" fill="#5AC4B1"/>
<path d="M30.4994 40.2492L34.8224 42.8638C35.614 43.3429 36.5828 42.6346 36.3744 41.7388L35.2286 36.8221L39.0515 33.5096C39.7494 32.9054 39.3744 31.7596 38.4578 31.6867L33.4265 31.2596L31.4578 26.6138C31.1036 25.77 29.8953 25.77 29.5411 26.6138L27.5724 31.2492L22.5411 31.6763C21.6244 31.7492 21.2494 32.895 21.9474 33.4992L25.7703 36.8117L24.6244 41.7284C24.4161 42.6242 25.3849 43.3325 26.1765 42.8534L30.4994 40.2492Z" fill="white"/>
</svg>
