<svg width="21" height="24" viewBox="0 0 21 24" fill="none" xmlns="http://www.w3.org/2000/svg">
<path d="M10.4929 23.976C11.8214 23.976 12.9083 22.8891 12.9083 21.5606H8.07743C8.07743 22.8891 9.16439 23.976 10.4929 23.976ZM17.7393 16.7296V10.691C17.7393 6.98326 15.7707 3.8794 12.3045 3.05814V2.23689C12.3045 1.23447 11.4953 0.425293 10.4929 0.425293C9.49047 0.425293 8.6813 1.23447 8.6813 2.23689V3.05814C5.22719 3.8794 3.24651 6.97119 3.24651 10.691V16.7296L0.831055 19.1451V20.3528H20.1547V19.1451L17.7393 16.7296ZM15.3238 17.9374H5.66197V10.691C5.66197 7.69582 7.48564 5.25621 10.4929 5.25621C13.5001 5.25621 15.3238 7.69582 15.3238 10.691V17.9374Z" fill="#1E22AA"/>
</svg>
