<svg width="30" height="30" viewBox="0 0 30 30" fill="none" xmlns="http://www.w3.org/2000/svg">
<path d="M28.0875 8.6875C27.5 8.3875 26.8875 8.1375 26.25 7.925V22.9625C24.825 22.45 23.3625 22.1875 21.875 22.1875C19.5 22.1875 17.15 22.8625 15 24.1625V9.0375C12.975 7.875 10.6375 7.1875 8.125 7.1875C5.8875 7.1875 3.775 7.7375 1.9125 8.6875C1.5 8.8875 1.25 9.325 1.25 9.7875V24.8875C1.25 25.6125 1.8375 26.125 2.5 26.125C2.7 26.125 2.9 26.075 3.1 25.975C4.6125 25.1875 6.3125 24.6875 8.125 24.6875C10.7125 24.6875 13.1 25.7125 15 27.1875C16.9 25.7125 19.2875 24.6875 21.875 24.6875C23.6875 24.6875 25.3875 25.1875 26.9 25.9875C27.1 26.0875 27.3 26.1375 27.5 26.1375C28.15 26.1375 28.75 25.625 28.75 24.9V9.7875C28.75 9.325 28.5 8.8875 28.0875 8.6875ZM12.5 22.9625C11.075 22.45 9.6125 22.1875 8.125 22.1875C6.6375 22.1875 5.175 22.45 3.75 22.9625V10.575C5.1375 9.9875 6.6 9.6875 8.125 9.6875C9.625 9.6875 11.1125 10 12.5 10.5875V22.9625ZM23.75 2.8125L17.5 9.0625V20.9375L23.75 15.3125V2.8125Z" fill="#49A197"/>
</svg>
