<svg width="30" height="30" viewBox="0 0 30 30" fill="none" xmlns="http://www.w3.org/2000/svg">
<path d="M26.2445 24.4637L24.4608 26.2487L16.4083 18.1962L18.1958 16.4112L26.2445 24.4637ZM16.3945 3.75122C13.1695 3.75122 9.94453 4.97622 7.46953 7.43872L7.45703 7.45122C2.51953 12.3887 2.51953 20.4012 7.45703 25.3387L25.332 7.45122C22.8695 4.98872 19.632 3.75122 16.3945 3.75122ZM7.66953 21.5887C6.74453 20.0387 6.24453 18.2637 6.24453 16.4012C6.24453 15.2387 6.44453 14.1262 6.81953 13.0637C7.05703 15.4512 7.93203 17.8012 9.40703 19.8637L7.66953 21.5887ZM11.2195 18.0387C9.53203 15.4762 8.89453 12.4137 9.49453 9.50122C10.2195 9.35122 10.9445 9.27622 11.682 9.27622C13.932 9.27622 16.1195 9.96372 18.032 11.2262L11.2195 18.0387ZM13.057 6.82622C14.1195 6.45122 15.232 6.25122 16.3945 6.25122C18.257 6.25122 20.032 6.75122 21.582 7.67622L19.8445 9.41372C17.782 7.93872 15.4445 7.06372 13.057 6.82622Z" fill="#49A197"/>
</svg>
