<svg width="30" height="30" viewBox="0 0 30 30" fill="none" xmlns="http://www.w3.org/2000/svg">
<path d="M8.75 24.375C7.375 24.375 6.25 25.5 6.25 26.875H23.75C23.75 25.5 22.625 24.375 21.25 24.375H16.25V21.875H20C21.375 21.875 22.5 20.75 22.5 19.375H12.5C10.425 19.375 8.75 17.7 8.75 15.625C8.75 14.2625 9.4875 13.075 10.5875 12.4125C11.1 13.15 11.9125 13.6625 12.875 13.7375C13.75 13.8125 14.575 13.5 15.1875 12.9625L15.925 14.975L17.1 14.55L17.525 15.725L19.875 14.875L19.45 13.7L20.625 13.275L17.2 3.875L16.025 4.3L15.6 3.125L13.25 3.975L13.675 5.15L12.5 5.5875L13.2 7.525C11.7375 7.475 10.4625 8.4625 10.1 9.85C7.8375 10.8 6.25 13.025 6.25 15.625C6.25 19.075 9.05 21.875 12.5 21.875V24.375H8.75ZM16.075 6.275L18.2125 12.15L17.0375 12.575L14.9 6.7L16.075 6.275ZM13.125 9.375C13.8125 9.375 14.375 9.9375 14.375 10.625C14.375 11.3125 13.8125 11.875 13.125 11.875C12.4375 11.875 11.875 11.3125 11.875 10.625C11.875 9.9375 12.4375 9.375 13.125 9.375Z" fill="#49A197"/>
</svg>
