<svg width="30" height="30" viewBox="0 0 30 30" fill="none" xmlns="http://www.w3.org/2000/svg">
<path d="M16.25 6.5625C17.625 6.5625 18.75 5.4375 18.75 4.0625C18.75 2.6875 17.625 1.5625 16.25 1.5625C14.875 1.5625 13.75 2.6875 13.75 4.0625C13.75 5.4375 14.875 6.5625 16.25 6.5625ZM11.625 10.8125L8.125 28.4375H10.75L13 18.4375L15.625 20.9375V28.4375H18.125V19.0625L15.5 16.5625L16.25 12.8125C17.875 14.6875 20.375 15.9375 23.125 15.9375V13.4375C20.75 13.4375 18.75 12.1875 17.75 10.4375L16.5 8.4375C15.8 7.325 14.4 6.875 13.1875 7.3875L6.875 10.0625V15.9375H9.375V11.6875L11.625 10.8125Z" fill="#49A197"/>
</svg>
