<svg width="30" height="30" viewBox="0 0 30 30" fill="none" xmlns="http://www.w3.org/2000/svg">
<path d="M26.25 10.625C24.4375 10.625 23.425 12.425 23.8375 13.7625L19.4 18.2125C19.025 18.1 18.475 18.1 18.1 18.2125L14.9125 15.025C15.3375 13.6875 14.325 11.875 12.5 11.875C10.6875 11.875 9.6625 13.675 10.0875 15.025L4.3875 20.7125C3.05 20.3 1.25 21.3125 1.25 23.125C1.25 24.5 2.375 25.625 3.75 25.625C5.5625 25.625 6.575 23.825 6.1625 22.4875L11.85 16.7875C12.225 16.9 12.775 16.9 13.15 16.7875L16.3375 19.975C15.9125 21.3125 16.925 23.125 18.75 23.125C20.5625 23.125 21.5875 21.325 21.1625 19.975L25.6125 15.5375C26.95 15.95 28.75 14.9375 28.75 13.125C28.75 11.75 27.625 10.625 26.25 10.625Z" fill="#49A197"/>
<path d="M18.75 11.875L19.925 9.2875L22.5 8.125L19.925 6.9625L18.75 4.375L17.6 6.9625L15 8.125L17.6 9.2875L18.75 11.875Z" fill="#49A197"/>
<path d="M4.375 14.375L5 11.875L7.5 11.25L5 10.625L4.375 8.125L3.75 10.625L1.25 11.25L3.75 11.875L4.375 14.375Z" fill="#49A197"/>
</svg>
