<svg width="30" height="30" viewBox="0 0 30 30" fill="none" xmlns="http://www.w3.org/2000/svg">
<path d="M10.825 16.9625C11.0125 16.9625 11.1875 16.95 11.3625 16.925C11.95 18.3625 13.3625 19.375 15 19.375C16.6375 19.375 18.05 18.3625 18.6375 16.925C18.8125 16.95 19 16.9625 19.175 16.9625C21.3375 16.9625 23.1 15.2 23.1 13.0375C23.1 12.15 22.7875 11.3 22.2625 10.625C22.8 9.95 23.1 9.1 23.1 8.2125C23.1 6.05 21.3375 4.2875 19.175 4.2875C18.9875 4.2875 18.8125 4.3 18.6375 4.325C18.05 2.8875 16.6375 1.875 15 1.875C13.3625 1.875 11.95 2.8875 11.3625 4.325C11.1875 4.3 11 4.2875 10.825 4.2875C8.6625 4.2875 6.9 6.05 6.9 8.2125C6.9 9.1 7.2125 9.95 7.7375 10.625C7.2 11.3 6.8875 12.15 6.8875 13.0375C6.8875 15.2 8.65 16.9625 10.825 16.9625ZM15 16.875C14.225 16.875 13.6 16.2625 13.575 15.5L13.725 14.1375C14.125 14.2875 14.55 14.375 15 14.375C15.45 14.375 15.8875 14.2875 16.2875 14.1375L16.425 15.5C16.4 16.2625 15.775 16.875 15 16.875ZM19.175 14.4625C18.875 14.4625 18.6 14.375 18.375 14.2125L17.3625 13.5C18.05 12.9375 18.5375 12.1375 18.6875 11.2125L19.7875 11.7375C20.2875 11.975 20.6125 12.475 20.6125 13.025C20.6125 13.825 19.9625 14.4625 19.175 14.4625ZM18.3625 7.0375C18.6125 6.875 18.8875 6.7875 19.175 6.7875C19.9625 6.7875 20.6 7.425 20.6 8.2125C20.6 8.7625 20.2875 9.25 19.775 9.5L18.675 10.025C18.525 9.1 18.0375 8.3 17.3375 7.7375L18.3625 7.0375ZM15 4.375C15.775 4.375 16.4 4.9875 16.425 5.75L16.2875 7.1125C15.8875 6.9625 15.45 6.875 15 6.875C14.55 6.875 14.125 6.9625 13.725 7.1125L13.575 5.75C13.6 4.9875 14.225 4.375 15 4.375ZM10.825 6.7875C11.125 6.7875 11.4 6.875 11.625 7.0375L12.6375 7.7375C11.95 8.3 11.4625 9.1 11.3125 10.025L10.2125 9.5C9.7125 9.25 9.3875 8.7625 9.3875 8.2125C9.3875 7.425 10.0375 6.7875 10.825 6.7875ZM10.2125 11.75L11.3125 11.225C11.4625 12.15 11.95 12.95 12.65 13.5125L11.6375 14.2C11.3875 14.3625 11.1125 14.45 10.825 14.45C10.0375 14.45 9.4 13.8125 9.4 13.025C9.3875 12.4875 9.7125 12 10.2125 11.75ZM15 28.125C21.2125 28.125 26.25 23.0875 26.25 16.875C20.0375 16.875 15 21.9125 15 28.125ZM18.05 25.075C18.9375 22.7 20.825 20.8 23.2 19.925C22.3125 22.3 20.425 24.1875 18.05 25.075ZM3.75 16.875C3.75 23.0875 8.7875 28.125 15 28.125C15 21.9125 9.9625 16.875 3.75 16.875ZM6.8 19.925C9.175 20.8125 11.075 22.7 11.95 25.075C9.575 24.1875 7.6875 22.3 6.8 19.925Z" fill="#49A197"/>
</svg>
