<svg width="30" height="30" viewBox="0 0 30 30" fill="none" xmlns="http://www.w3.org/2000/svg">
<path d="M15 2.5C8.1 2.5 2.5 8.1 2.5 15C2.5 21.9 8.1 27.5 15 27.5C21.9 27.5 27.5 21.9 27.5 15C27.5 8.1 21.9 2.5 15 2.5ZM15 25C9.4875 25 5 20.5125 5 15C5 9.4875 9.4875 5 15 5C20.5125 5 25 9.4875 25 15C25 20.5125 20.5125 25 15 25ZM16.1125 13.875C13.8875 13.1375 12.8125 12.675 12.8125 11.5C12.8125 10.225 14.2 9.7625 15.075 9.7625C16.7125 9.7625 17.3125 11 17.45 11.4375L19.425 10.6C19.2375 10.05 18.4 8.2125 16.1 7.8125V6.25H13.9125V7.825C10.6625 8.525 10.6375 11.3875 10.6375 11.525C10.6375 14.3625 13.45 15.1625 14.825 15.6625C16.8 16.3625 17.675 17 17.675 18.2C17.675 19.6125 16.3625 20.2125 15.2 20.2125C12.925 20.2125 12.275 17.875 12.2 17.6L10.125 18.4375C10.9125 21.175 12.975 21.9125 13.9 22.1375V23.75H16.0875V22.2C16.7375 22.0875 19.8625 21.4625 19.8625 18.175C19.875 16.4375 19.1125 14.9125 16.1125 13.875Z" fill="#49A197"/>
</svg>
