<svg width="30" height="30" viewBox="0 0 30 30" fill="none" xmlns="http://www.w3.org/2000/svg">
<path d="M19.3625 12.0375C19.1375 8.55 17.725 5.15 15.075 2.5C12.4 5.175 10.925 8.575 10.6375 12.0375C12.2375 12.8875 13.7125 13.9875 15 15.325C16.2875 14 17.7625 12.9 19.3625 12.0375ZM15.0625 6.4875C15.85 7.775 16.4 9.2125 16.6875 10.7125C16.1 11.0875 15.55 11.5 15.0125 11.9375C14.4875 11.5125 13.925 11.1 13.35 10.725C13.6625 9.225 14.2375 7.7875 15.0625 6.4875ZM15 19.3125C13.975 17.75 12.675 16.3875 11.175 15.3125C11.0125 15.2 10.8375 15.1125 10.675 14.9875C10.8375 15.1 11.0125 15.2 11.1625 15.3C8.725 13.5375 5.7375 12.5 2.5 12.5C2.5 19.15 6.7 24.775 12.5375 26.8625C13.325 27.15 14.15 27.3625 15 27.5C15.85 27.35 16.6625 27.1375 17.4625 26.8625C23.3 24.775 27.5 19.15 27.5 12.5C22.275 12.5 17.6875 15.2125 15 19.3125ZM16.65 24.5C16.1 24.6875 15.55 24.8375 14.9875 24.9625C14.4375 24.85 13.9 24.7 13.3875 24.5125C9.275 23.0375 6.2625 19.525 5.325 15.325C6.7 15.65 8.0125 16.2125 9.225 16.9875L9.2 17C9.3625 17.1125 9.525 17.225 9.6875 17.3125L9.775 17.3625C11.0125 18.2625 12.075 19.375 12.9125 20.675L15 23.875L17.0875 20.6875C17.95 19.375 19.025 18.25 20.25 17.3625L20.3375 17.3C20.45 17.2375 20.5625 17.1625 20.675 17.0875L20.6625 17.0625C21.8875 16.25 23.25 15.65 24.675 15.3125C23.7375 19.525 20.7375 23.0375 16.65 24.5ZM11.2375 15.35C11.2125 15.3375 11.1875 15.3125 11.175 15.3C11.175 15.3 11.1875 15.3 11.1875 15.3125C11.2 15.325 11.2125 15.3375 11.2375 15.35Z" fill="#49A197"/>
</svg>
